<?xml version="1.0" encoding="utf-8"?>
<svg version="1.1" xmlns:xlink="http://www.w3.org/1999/xlink" width="31px" height="38px" xmlns="http://www.w3.org/2000/svg">
  <defs>
    <filter x="130px" y="224px" width="31px" height="38px" filterUnits="userSpaceOnUse" id="filter185">
      <feOffset dx="1" dy="1" in="SourceAlpha" result="shadowOffsetInner" />
      <feGaussianBlur stdDeviation="2.5" in="shadowOffsetInner" result="shadowGaussian" />
      <feComposite in2="shadowGaussian" operator="atop" in="SourceAlpha" result="shadowComposite" />
      <feColorMatrix type="matrix" values="0 0 0 0 0  0 0 0 0 0  0 0 0 0 0  0 0 0 0.698039215686274 0  " in="shadowComposite" />
    </filter>
    <g id="widget186">
      <path d="M 144.5 255.036928468354  C 140.5 248.40734059591  134.5 244.429587872444  134.5 237.8  C 134.5 234.345714285714  136.5 228.5  144.5 228.5  C 152.5 228.5  154.5 234.345714285714  154.5 237.8  C 154.5 244.429587872444  148.5 248.40734059591  144.5 255.036928468354  Z " fill-rule="nonzero" fill="#009dd9" stroke="none" />
      <path d="M 144.5 256  C 140.3 249  134 244.8  134 237.8  C 134 234.16  136.1 228  144.5 228  C 152.9 228  155 234.16  155 237.8  C 155 244.8  148.7 249  144.5 256  Z M 144.5 254.073856936707  C 148.3 247.81468119182  154 244.059175744887  154 237.8  C 154 234.531428571429  152.1 229  144.5 229  C 136.9 229  135 234.531428571429  135 237.8  C 135 244.059175744887  140.7 247.81468119182  144.5 254.073856936707  Z " fill-rule="nonzero" fill="#ffffff" stroke="none" />
    </g>
  </defs>
  <g transform="matrix(1 0 0 1 -130 -224 )">
    <use xlink:href="#widget186" filter="url(#filter185)" />
    <use xlink:href="#widget186" />
  </g>
</svg>