<?xml version="1.0" encoding="utf-8"?>
<svg version="1.1" xmlns:xlink="http://www.w3.org/1999/xlink" width="14px" height="19px" xmlns="http://www.w3.org/2000/svg">
  <g transform="matrix(1 0 0 1 -126 -336 )">
    <path d="M 13.740234375 11.4836647727273  C 13.9134114583333 11.6545928030303  14 11.8570075757576  14 12.0909090909091  C 14 12.3248106060606  13.9134114583333 12.5272253787879  13.740234375 12.6981534090909  L 7.615234375 18.7436079545455  C 7.44205729166667 18.9145359848485  7.23697916666667 19  7 19  C 6.76302083333333 19  6.55794270833333 18.9145359848485  6.384765625 18.7436079545455  L 0.259765625 12.6981534090909  C 0.0865885416666667 12.5272253787879  0 12.3248106060606  0 12.0909090909091  C 0 11.8570075757576  0.0865885416666667 11.6545928030303  0.259765625 11.4836647727273  C 0.432942708333333 11.3127367424242  0.638020833333333 11.2272727272727  0.875 11  L 13.125 11  C 13.3619791666667 11.2272727272727  13.5670572916667 11.3127367424242  13.740234375 11.4836647727273  Z M 13.740234375 6.30184659090909  C 13.9134114583333 6.47277462121212  14 6.67518939393939  14 6.90909090909091  C 14 7.14299242424242  13.9134114583333 7.3454071969697  13.740234375 7.51633522727273  C 13.5670572916667 7.68726325757576  13.3619791666667 7.77272727272727  13.125 8  L 0.875 8  C 0.638020833333333 7.77272727272727  0.432942708333333 7.68726325757576  0.259765625 7.51633522727273  C 0.0865885416666667 7.3454071969697  0 7.14299242424242  0 6.90909090909091  C 0 6.67518939393939  0.0865885416666667 6.47277462121212  0.259765625 6.30184659090909  L 6.384765625 0.256392045454546  C 6.55794270833333 0.0854640151515134  6.76302083333333 0  7 0  C 7.23697916666667 0  7.44205729166667 0.0854640151515134  7.615234375 0.256392045454546  L 13.740234375 6.30184659090909  Z " fill-rule="nonzero" fill="#000000" stroke="none" transform="matrix(1 0 0 1 126 336 )" />
  </g>
</svg>