<?xml version="1.0" encoding="utf-8"?>
<svg version="1.1" xmlns:xlink="http://www.w3.org/1999/xlink" width="14px" height="14px" xmlns="http://www.w3.org/2000/svg">
  <defs>
    <mask fill="white" id="clip15">
      <path d="M 0 12  L 0 2  C 0 0.879999999999995  0.879999999999999 0  2 0  L 12 0  C 13.12 0  14 0.879999999999995  14 2  L 14 7.36363636363626  L 14 12  C 14 13.12  13.12 14  12 14  L 7.27272727272725 14  L 2 14  C 0.879999999999999 14  0 13.12  0 12  Z " fill-rule="evenodd" />
    </mask>
  </defs>
  <g transform="matrix(1 0 0 1 -411 -1530 )">
    <path d="M 0 12  L 0 2  C 0 0.879999999999995  0.879999999999999 0  2 0  L 12 0  C 13.12 0  14 0.879999999999995  14 2  L 14 7.36363636363626  L 14 12  C 14 13.12  13.12 14  12 14  L 7.27272727272725 14  L 2 14  C 0.879999999999999 14  0 13.12  0 12  Z " fill-rule="nonzero" fill="#f2f2f2" stroke="none" transform="matrix(1 0 0 1 411 1530 )" />
    <path d="M 0 12  L 0 2  C 0 0.879999999999995  0.879999999999999 0  2 0  L 12 0  C 13.12 0  14 0.879999999999995  14 2  L 14 7.36363636363626  L 14 12  C 14 13.12  13.12 14  12 14  L 7.27272727272725 14  L 2 14  C 0.879999999999999 14  0 13.12  0 12  Z " stroke-width="2" stroke="#02a7f0" fill="none" transform="matrix(1 0 0 1 411 1530 )" mask="url(#clip15)" />
  </g>
</svg>