<?xml version="1.0" encoding="utf-8"?>
<svg version="1.1" xmlns:xlink="http://www.w3.org/1999/xlink" width="12px" height="12px" viewBox="51 256.5  12 12" xmlns="http://www.w3.org/2000/svg">
  <path d="M 57 256.5  C 60.36 256.5  63 259.14  63 262.5  C 63 265.86  60.36 268.5  57 268.5  C 53.64 268.5  51 265.86  51 262.5  C 51 259.14  53.64 256.5  57 256.5  Z " fill-rule="nonzero" fill="#ffffff" stroke="none" />
  <path d="M 57 257  C 60.08 257  62.5 259.42  62.5 262.5  C 62.5 265.58  60.08 268  57 268  C 53.92 268  51.5 265.58  51.5 262.5  C 51.5 259.42  53.92 257  57 257  Z " stroke-width="1" stroke="#d7d7d7" fill="none" />
  <path d="M 57 265.5  C 55.32 265.5  54 264.18  54 262.5  C 54 260.82  55.32 259.5  57 259.5  C 58.68 259.5  60 260.82  60 262.5  C 60 264.18  58.68 265.5  57 265.5  " fill-rule="nonzero" fill="#d7d7d7" stroke="none" />
</svg>