<?xml version="1.0" encoding="utf-8"?>
<svg version="1.1" xmlns:xlink="http://www.w3.org/1999/xlink" width="12px" height="12px" viewBox="45 64.5  12 12" xmlns="http://www.w3.org/2000/svg">
  <path d="M 51 64.5  C 54.36 64.5  57 67.14  57 70.5  C 57 73.86  54.36 76.5  51 76.5  C 47.64 76.5  45 73.86  45 70.5  C 45 67.14  47.64 64.5  51 64.5  Z " fill-rule="nonzero" fill="#ffffff" stroke="none" />
  <path d="M 51 65  C 54.08 65  56.5 67.42  56.5 70.5  C 56.5 73.58  54.08 76  51 76  C 47.92 76  45.5 73.58  45.5 70.5  C 45.5 67.42  47.92 65  51 65  Z " stroke-width="1" stroke="#d7d7d7" fill="none" />
  <path d="M 51 73.5  C 49.32 73.5  48 72.18  48 70.5  C 48 68.82  49.32 67.5  51 67.5  C 52.68 67.5  54 68.82  54 70.5  C 54 72.18  52.68 73.5  51 73.5  " fill-rule="nonzero" fill="#d7d7d7" stroke="none" />
</svg>