<?xml version="1.0" encoding="utf-8"?>
<svg version="1.1" xmlns:xlink="http://www.w3.org/1999/xlink" width="12px" height="12px" viewBox="51 295.5  12 12" xmlns="http://www.w3.org/2000/svg">
  <path d="M 57 295.5  C 60.36 295.5  63 298.14  63 301.5  C 63 304.86  60.36 307.5  57 307.5  C 53.64 307.5  51 304.86  51 301.5  C 51 298.14  53.64 295.5  57 295.5  Z " fill-rule="nonzero" fill="#f0f0f0" stroke="none" />
  <path d="M 57 296  C 60.08 296  62.5 298.42  62.5 301.5  C 62.5 304.58  60.08 307  57 307  C 53.92 307  51.5 304.58  51.5 301.5  C 51.5 298.42  53.92 296  57 296  Z " stroke-width="1" stroke="#d7d7d7" fill="none" />
  <path d="M 57 304.5  C 55.32 304.5  54 303.18  54 301.5  C 54 299.82  55.32 298.5  57 298.5  C 58.68 298.5  60 299.82  60 301.5  C 60 303.18  58.68 304.5  57 304.5  " fill-rule="nonzero" fill="#d7d7d7" stroke="none" />
</svg>