<?xml version="1.0" encoding="utf-8"?>
<svg version="1.1" xmlns:xlink="http://www.w3.org/1999/xlink" width="12px" height="12px" viewBox="249 4158.5  12 12" xmlns="http://www.w3.org/2000/svg">
  <path d="M 255 4158.5  C 258.36 4158.5  261 4161.14  261 4164.5  C 261 4167.86  258.36 4170.5  255 4170.5  C 251.64 4170.5  249 4167.86  249 4164.5  C 249 4161.14  251.64 4158.5  255 4158.5  Z " fill-rule="nonzero" fill="#ffffff" stroke="none" />
  <path d="M 255 4159  C 258.08 4159  260.5 4161.42  260.5 4164.5  C 260.5 4167.58  258.08 4170  255 4170  C 251.92 4170  249.5 4167.58  249.5 4164.5  C 249.5 4161.42  251.92 4159  255 4159  Z " stroke-width="1" stroke="#02a7f0" fill="none" />
  <path d="M 255 4167.5  C 253.32 4167.5  252 4166.18  252 4164.5  C 252 4162.82  253.32 4161.5  255 4161.5  C 256.68 4161.5  258 4162.82  258 4164.5  C 258 4166.18  256.68 4167.5  255 4167.5  " fill-rule="nonzero" fill="#02a7f0" stroke="none" />
</svg>