<?xml version="1.0" encoding="utf-8"?>
<svg version="1.1" xmlns:xlink="http://www.w3.org/1999/xlink" width="170px" height="41px" xmlns="http://www.w3.org/2000/svg">
  <g transform="matrix(1 0 0 1 -160 -295 )">
    <path d="M 161 299  A 3 3 0 0 1 164 296 L 326 296  A 3 3 0 0 1 329 299 L 329 332  A 3 3 0 0 1 326 335 L 164 335  A 3 3 0 0 1 161 332 L 161 299  Z " fill-rule="nonzero" fill="#ff3399" stroke="none" fill-opacity="0.0980392156862745" />
    <path d="M 160.5 299  A 3.5 3.5 0 0 1 164 295.5 L 326 295.5  A 3.5 3.5 0 0 1 329.5 299 L 329.5 332  A 3.5 3.5 0 0 1 326 335.5 L 164 335.5  A 3.5 3.5 0 0 1 160.5 332 L 160.5 299  Z " stroke-width="1" stroke-dasharray="9,4" stroke="#ff3399" fill="none" stroke-dashoffset="0.5" />
  </g>
</svg>