<?xml version="1.0" encoding="utf-8"?>
<svg version="1.1" xmlns:xlink="http://www.w3.org/1999/xlink" width="12px" height="12px" viewBox="51 61.5  12 12" xmlns="http://www.w3.org/2000/svg">
  <path d="M 57 61.5  C 60.36 61.5  63 64.14  63 67.5  C 63 70.86  60.36 73.5  57 73.5  C 53.64 73.5  51 70.86  51 67.5  C 51 64.14  53.64 61.5  57 61.5  Z " fill-rule="nonzero" fill="#f0f0f0" stroke="none" />
  <path d="M 57 62  C 60.08 62  62.5 64.42  62.5 67.5  C 62.5 70.58  60.08 73  57 73  C 53.92 73  51.5 70.58  51.5 67.5  C 51.5 64.42  53.92 62  57 62  Z " stroke-width="1" stroke="#d7d7d7" fill="none" />
  <path d="M 57 70.5  C 55.32 70.5  54 69.18  54 67.5  C 54 65.82  55.32 64.5  57 64.5  C 58.68 64.5  60 65.82  60 67.5  C 60 69.18  58.68 70.5  57 70.5  " fill-rule="nonzero" fill="#d7d7d7" stroke="none" />
</svg>