<?xml version="1.0" encoding="utf-8"?>
<svg version="1.1" xmlns:xlink="http://www.w3.org/1999/xlink" width="10px" height="20px" preserveAspectRatio="xMidYMin meet" viewBox="551 175  8 20" xmlns="http://www.w3.org/2000/svg">
  <path d="M 499 190.5  L 505 190.5  A 5 5 0 0 0 510.5 185.5 A 5 5 0 0 1 515.5 180.5 L 550 180.5  A 5 5 0 0 1 555.5 185.5 L 555.5 195  " stroke-width="1" stroke="#ff3399" fill="none" />
  <path d="M 501 187.5  A 3 3 0 0 0 498 190.5 A 3 3 0 0 0 501 193.5 A 3 3 0 0 0 504 190.5 A 3 3 0 0 0 501 187.5 Z " fill-rule="nonzero" fill="#ff3399" stroke="none" />
</svg>