<?xml version="1.0" encoding="utf-8"?>
<svg version="1.1" xmlns:xlink="http://www.w3.org/1999/xlink" width="146px" height="76px" xmlns="http://www.w3.org/2000/svg">
  <g transform="matrix(1 0 0 1 -455 -410 )">
    <path d="M 456 414  A 3 3 0 0 1 459 411 L 597 411  A 3 3 0 0 1 600 414 L 600 482  A 3 3 0 0 1 597 485 L 459 485  A 3 3 0 0 1 456 482 L 456 414  Z " fill-rule="nonzero" fill="#ff3399" stroke="none" fill-opacity="0.0980392156862745" />
    <path d="M 455.5 414  A 3.5 3.5 0 0 1 459 410.5 L 597 410.5  A 3.5 3.5 0 0 1 600.5 414 L 600.5 482  A 3.5 3.5 0 0 1 597 485.5 L 459 485.5  A 3.5 3.5 0 0 1 455.5 482 L 455.5 414  Z " stroke-width="1" stroke-dasharray="9,4" stroke="#ff3399" fill="none" stroke-dashoffset="0.5" />
  </g>
</svg>