<?xml version="1.0" encoding="utf-8"?>
<svg version="1.1" xmlns:xlink="http://www.w3.org/1999/xlink" width="20px" height="27px" xmlns="http://www.w3.org/2000/svg">
  <g transform="matrix(1 0 0 1 -270 -338 )">
    <path d="M 19.62890625 16.3188920454545  C 19.8763020833333 16.5617897727273  20 16.8494318181818  20 17.1818181818182  C 20 17.5142045454545  19.8763020833333 17.8018465909091  19.62890625 18.0447443181818  L 10.87890625 26.6356534090909  C 10.6315104166667 26.8785511363636  10.3385416666667 27  10 27  C 9.66145833333334 27  9.36848958333334 26.8785511363636  9.12109375 26.6356534090909  L 0.37109375 18.0447443181818  C 0.123697916666667 17.8018465909091  0 17.5142045454545  0 17.1818181818182  C 0 16.8494318181818  0.123697916666667 16.5617897727273  0.37109375 16.3188920454545  C 0.618489583333333 16.0759943181818  0.911458333333333 15.9545454545455  1.25 16  L 18.75 16  C 19.0885416666667 15.9545454545455  19.3815104166667 16.0759943181818  19.62890625 16.3188920454545  Z M 19.62890625 8.95525568181818  C 19.8763020833333 9.19815340909091  20 9.48579545454545  20 9.81818181818182  C 20 10.1505681818182  19.8763020833333 10.4382102272727  19.62890625 10.6811079545455  C 19.3815104166667 10.9240056818182  19.0885416666667 11.0454545454545  18.75 11  L 1.25 11  C 0.911458333333333 11.0454545454545  0.618489583333333 10.9240056818182  0.37109375 10.6811079545455  C 0.123697916666667 10.4382102272727  0 10.1505681818182  0 9.81818181818182  C 0 9.48579545454545  0.123697916666667 9.19815340909091  0.37109375 8.95525568181818  L 9.12109375 0.364346590909092  C 9.36848958333334 0.121448863636361  9.66145833333334 0  10 0  C 10.3385416666667 0  10.6315104166667 0.121448863636361  10.87890625 0.364346590909092  L 19.62890625 8.95525568181818  Z " fill-rule="nonzero" fill="#000000" stroke="none" transform="matrix(1 0 0 1 270 338 )" />
  </g>
</svg>