<?xml version="1.0" encoding="utf-8"?>
<svg version="1.1" xmlns:xlink="http://www.w3.org/1999/xlink" width="57px" height="10px" preserveAspectRatio="xMinYMid meet" viewBox="915 496  57 8" xmlns="http://www.w3.org/2000/svg">
  <path d="M 898 506.5  L 917 506.5  A 3 3 0 0 0 920.5 503.5 A 3 3 0 0 1 923.5 500.5 L 962 500.5  A 5 5 0 0 1 967.5 505.5 L 967.5 512  " stroke-width="1" stroke="#ff3399" fill="none" />
  <path d="M 900 503.5  A 3 3 0 0 0 897 506.5 A 3 3 0 0 0 900 509.5 A 3 3 0 0 0 903 506.5 A 3 3 0 0 0 900 503.5 Z " fill-rule="nonzero" fill="#ff3399" stroke="none" />
</svg>