<?xml version="1.0" encoding="utf-8"?>
<svg version="1.1" xmlns:xlink="http://www.w3.org/1999/xlink" width="29px" height="23px" xmlns="http://www.w3.org/2000/svg">
  <g transform="matrix(1 0 0 1 -320 -818 )">
    <path d="M 16.4134187082405 19.3302283653846  C 16.5156829992576 19.2426883012821  16.5668151447661 19.1344150641026  16.5668151447661 19.0054086538462  L 16.5668151447661 16.3792067307692  C 16.5668151447661 16.2502003205128  16.5156829992576 16.1419270833333  16.4134187082405 16.0543870192308  C 16.3111544172235 15.9668469551282  16.1900519673348 15.9230769230769  16.0501113585746 15.9230769230769  L 12.9498886414254 15.9230769230769  C 12.8099480326652 15.9230769230769  12.6888455827765 15.9668469551282  12.5865812917595 16.0543870192308  C 12.4843170007424 16.1419270833333  12.4331848552339 16.2502003205128  12.4331848552339 16.3792067307692  L 12.4331848552339 19.0054086538462  C 12.4331848552339 19.1344150641026  12.4843170007424 19.2426883012821  12.5865812917595 19.3302283653846  C 12.6888455827765 19.4177684294872  12.8099480326652 19.4615384615385  12.9498886414254 19.4615384615385  L 16.0501113585746 19.4615384615385  C 16.1900519673348 19.4615384615385  16.3111544172235 19.4177684294872  16.4134187082405 19.3302283653846  Z M 16.3649777282851 14.0640024038462  C 16.4672420193022 14.0041065705128  16.5237564959169 13.9280849358974  16.5345211581292 13.8359375  L 16.8251670378619 7.49158653846154  C 16.8251670378619 7.38100961538462  16.7713437268003 7.29346955128205  16.6636971046771 7.22896634615384  C 16.5237564959169 7.12760416666667  16.394580549369 7.07692307692308  16.2761692650334 7.07692307692308  L 12.7238307349666 7.07692307692308  C 12.605419450631 7.07692307692308  12.4762435040831 7.12760416666667  12.3363028953229 7.22896634615384  C 12.2286562731997 7.29346955128205  12.1748329621381 7.39022435897436  12.1748329621381 7.51923076923077  L 12.4493318485523 13.8359375  C 12.4493318485523 13.9280849358974  12.503155159614 14.0041065705128  12.6108017817372 14.0640024038462  C 12.7184484038604 14.1238982371795  12.8476243504083 14.1538461538462  12.9983296213808 14.1538461538462  L 15.9855233853007 14.1538461538462  C 16.1362286562732 14.1538461538462  16.262713437268 14.1238982371795  16.3649777282851 14.0640024038462  Z M 15.5495545657016 0.248798076923077  C 15.8724944320713 0.414663461538461  16.1254639940609 0.640424679487178  16.3084632516704 0.926081730769232  L 28.7093541202673 20.3876201923077  C 29.0861172976986 20.9681490384615  29.0753526354863 21.5486778846154  28.6770601336303 22.1292067307692  C 28.4940608760208 22.3964342948718  28.2437824795843 22.6083733974359  27.9262249443207 22.7650240384615  C 27.6086674090572 22.9216746794872  27.2668893838159 23  26.9008908685969 23  L 2.09910913140312 23  C 1.73311061618411 23  1.39133259094284 22.9216746794872  1.07377505567929 22.7650240384615  C 0.756217520415739 22.6083733974359  0.505939123979213 22.3964342948718  0.32293986636971 22.1292067307692  C -0.0753526354862658 21.5486778846154  -0.0861172976985895 20.9681490384615  0.290645879732739 20.3876201923077  L 12.6915367483296 0.926081730769232  C 12.8745360059391 0.640424679487178  13.1275055679287 0.414663461538461  13.4504454342984 0.248798076923077  C 13.7733853006682 0.0829326923076933  14.1232368225687 0  14.5 0  C 14.8767631774313 0  15.2266146993318 0.0829326923076933  15.5495545657016 0.248798076923077  Z " fill-rule="nonzero" fill="#f59a23" stroke="none" transform="matrix(1 0 0 1 320 818 )" />
  </g>
</svg>