<?xml version="1.0" encoding="utf-8"?>
<svg version="1.1" xmlns:xlink="http://www.w3.org/1999/xlink" width="12px" height="12px" viewBox="40 399.5  12 12" xmlns="http://www.w3.org/2000/svg">
  <path d="M 46 399.5  C 49.36 399.5  52 402.14  52 405.5  C 52 408.86  49.36 411.5  46 411.5  C 42.64 411.5  40 408.86  40 405.5  C 40 402.14  42.64 399.5  46 399.5  Z " fill-rule="nonzero" fill="#f0f0f0" stroke="none" />
  <path d="M 46 400  C 49.08 400  51.5 402.42  51.5 405.5  C 51.5 408.58  49.08 411  46 411  C 42.92 411  40.5 408.58  40.5 405.5  C 40.5 402.42  42.92 400  46 400  Z " stroke-width="1" stroke="#d7d7d7" fill="none" />
  <path d="M 46 408.5  C 44.32 408.5  43 407.18  43 405.5  C 43 403.82  44.32 402.5  46 402.5  C 47.68 402.5  49 403.82  49 405.5  C 49 407.18  47.68 408.5  46 408.5  " fill-rule="nonzero" fill="#d7d7d7" stroke="none" />
</svg>