<?xml version="1.0" encoding="utf-8"?>
<svg version="1.1" xmlns:xlink="http://www.w3.org/1999/xlink" width="12px" height="12px" viewBox="40 353.5  12 12" xmlns="http://www.w3.org/2000/svg">
  <path d="M 46 353.5  C 49.36 353.5  52 356.14  52 359.5  C 52 362.86  49.36 365.5  46 365.5  C 42.64 365.5  40 362.86  40 359.5  C 40 356.14  42.64 353.5  46 353.5  Z " fill-rule="nonzero" fill="#f0f0f0" stroke="none" />
  <path d="M 46 354  C 49.08 354  51.5 356.42  51.5 359.5  C 51.5 362.58  49.08 365  46 365  C 42.92 365  40.5 362.58  40.5 359.5  C 40.5 356.42  42.92 354  46 354  Z " stroke-width="1" stroke="#d7d7d7" fill="none" />
  <path d="M 46 362.5  C 44.32 362.5  43 361.18  43 359.5  C 43 357.82  44.32 356.5  46 356.5  C 47.68 356.5  49 357.82  49 359.5  C 49 361.18  47.68 362.5  46 362.5  " fill-rule="nonzero" fill="#d7d7d7" stroke="none" />
</svg>