<?xml version="1.0" encoding="utf-8"?>
<svg version="1.1" xmlns:xlink="http://www.w3.org/1999/xlink" width="16px" height="16px" viewBox="34 129.5  16 16" xmlns="http://www.w3.org/2000/svg">
  <path d="M 42 129.5  C 46.48 129.5  50 133.02  50 137.5  C 50 141.98  46.48 145.5  42 145.5  C 37.52 145.5  34 141.98  34 137.5  C 34 133.02  37.52 129.5  42 129.5  Z " fill-rule="nonzero" fill="#f0f0f0" stroke="none" />
  <path d="M 42 130  C 46.2 130  49.5 133.3  49.5 137.5  C 49.5 141.7  46.2 145  42 145  C 37.8 145  34.5 141.7  34.5 137.5  C 34.5 133.3  37.8 130  42 130  Z " stroke-width="1" stroke="#02a7f0" fill="none" />
  <path d="M 42 141.5  C 39.76 141.5  38 139.74  38 137.5  C 38 135.26  39.76 133.5  42 133.5  C 44.24 133.5  46 135.26  46 137.5  C 46 139.74  44.24 141.5  42 141.5  " fill-rule="nonzero" fill="#02a7f0" stroke="none" />
</svg>