<?xml version="1.0" encoding="utf-8"?>
<svg version="1.1" xmlns:xlink="http://www.w3.org/1999/xlink" width="16px" height="16px" viewBox="34 99.5  16 16" xmlns="http://www.w3.org/2000/svg">
  <path d="M 42 99.5  C 46.48 99.5  50 103.02  50 107.5  C 50 111.98  46.48 115.5  42 115.5  C 37.52 115.5  34 111.98  34 107.5  C 34 103.02  37.52 99.5  42 99.5  Z " fill-rule="nonzero" fill="#ffffff" stroke="none" />
  <path d="M 42 100  C 46.2 100  49.5 103.3  49.5 107.5  C 49.5 111.7  46.2 115  42 115  C 37.8 115  34.5 111.7  34.5 107.5  C 34.5 103.3  37.8 100  42 100  Z " stroke-width="1" stroke="#02a7f0" fill="none" />
  <path d="M 42 111.5  C 39.76 111.5  38 109.74  38 107.5  C 38 105.26  39.76 103.5  42 103.5  C 44.24 103.5  46 105.26  46 107.5  C 46 109.74  44.24 111.5  42 111.5  " fill-rule="nonzero" fill="#02a7f0" stroke="none" />
</svg>