<?xml version="1.0" encoding="utf-8"?>
<svg version="1.1" xmlns:xlink="http://www.w3.org/1999/xlink" width="18px" height="18px" xmlns="http://www.w3.org/2000/svg">
  <g transform="matrix(1 0 0 1 -28 -4 )">
    <path d="M 37 4  C 42.04 4  46 7.96  46 13  C 46 18.04  42.04 22  37 22  C 31.96 22  28 18.04  28 13  C 28 7.96  31.96 4  37 4  Z " fill-rule="nonzero" fill="#ffffff" stroke="none" />
    <path d="M 37 4.5  C 41.76 4.5  45.5 8.24  45.5 13  C 45.5 17.76  41.76 21.5  37 21.5  C 32.24 21.5  28.5 17.76  28.5 13  C 28.5 8.24  32.24 4.5  37 4.5  Z " stroke-width="1" stroke="#169bd5" fill="none" />
  </g>
</svg>