<?xml version="1.0" encoding="utf-8"?>
<svg version="1.1" xmlns:xlink="http://www.w3.org/1999/xlink" width="200px" height="101px" xmlns="http://www.w3.org/2000/svg">
  <g transform="matrix(1 0 0 1 -457 -90 )">
    <path d="M 458 94  A 3 3 0 0 1 461 91 L 653 91  A 3 3 0 0 1 656 94 L 656 187  A 3 3 0 0 1 653 190 L 461 190  A 3 3 0 0 1 458 187 L 458 94  Z " fill-rule="nonzero" fill="#ff3399" stroke="none" fill-opacity="0.0980392156862745" />
    <path d="M 457.5 94  A 3.5 3.5 0 0 1 461 90.5 L 653 90.5  A 3.5 3.5 0 0 1 656.5 94 L 656.5 187  A 3.5 3.5 0 0 1 653 190.5 L 461 190.5  A 3.5 3.5 0 0 1 457.5 187 L 457.5 94  Z " stroke-width="1" stroke-dasharray="9,4" stroke="#ff3399" fill="none" stroke-dashoffset="0.5" />
  </g>
</svg>