<?xml version="1.0" encoding="utf-8"?>
<svg version="1.1" xmlns:xlink="http://www.w3.org/1999/xlink" width="200px" height="150px" xmlns="http://www.w3.org/2000/svg">
  <g transform="matrix(1 0 0 1 -447 -90 )">
    <path d="M 448 94  A 3 3 0 0 1 451 91 L 643 91  A 3 3 0 0 1 646 94 L 646 236  A 3 3 0 0 1 643 239 L 451 239  A 3 3 0 0 1 448 236 L 448 94  Z " fill-rule="nonzero" fill="#ff3399" stroke="none" fill-opacity="0.0980392156862745" />
    <path d="M 447.5 94  A 3.5 3.5 0 0 1 451 90.5 L 643 90.5  A 3.5 3.5 0 0 1 646.5 94 L 646.5 236  A 3.5 3.5 0 0 1 643 239.5 L 451 239.5  A 3.5 3.5 0 0 1 447.5 236 L 447.5 94  Z " stroke-width="1" stroke-dasharray="9,4" stroke="#ff3399" fill="none" stroke-dashoffset="0.5" />
  </g>
</svg>