<?xml version="1.0" encoding="utf-8"?>
<svg version="1.1" xmlns:xlink="http://www.w3.org/1999/xlink" width="12px" height="12px" viewBox="68 62.5  12 12" xmlns="http://www.w3.org/2000/svg">
  <path d="M 74 62.5  C 77.36 62.5  80 65.14  80 68.5  C 80 71.86  77.36 74.5  74 74.5  C 70.64 74.5  68 71.86  68 68.5  C 68 65.14  70.64 62.5  74 62.5  Z " fill-rule="nonzero" fill="#f0f0f0" stroke="none" />
  <path d="M 74 63  C 77.08 63  79.5 65.42  79.5 68.5  C 79.5 71.58  77.08 74  74 74  C 70.92 74  68.5 71.58  68.5 68.5  C 68.5 65.42  70.92 63  74 63  Z " stroke-width="1" stroke="#d7d7d7" fill="none" />
  <path d="M 74 71.5  C 72.32 71.5  71 70.18  71 68.5  C 71 66.82  72.32 65.5  74 65.5  C 75.68 65.5  77 66.82  77 68.5  C 77 70.18  75.68 71.5  74 71.5  " fill-rule="nonzero" fill="#d7d7d7" stroke="none" />
</svg>