<?xml version="1.0" encoding="utf-8"?>
<svg version="1.1" xmlns:xlink="http://www.w3.org/1999/xlink" width="12px" height="12px" viewBox="55 151.5  12 12" xmlns="http://www.w3.org/2000/svg">
  <path d="M 61 151.5  C 64.36 151.5  67 154.14  67 157.5  C 67 160.86  64.36 163.5  61 163.5  C 57.64 163.5  55 160.86  55 157.5  C 55 154.14  57.64 151.5  61 151.5  Z " fill-rule="nonzero" fill="#f0f0f0" stroke="none" />
  <path d="M 61 152  C 64.08 152  66.5 154.42  66.5 157.5  C 66.5 160.58  64.08 163  61 163  C 57.92 163  55.5 160.58  55.5 157.5  C 55.5 154.42  57.92 152  61 152  Z " stroke-width="1" stroke="#d7d7d7" fill="none" />
  <path d="M 61 160.5  C 59.32 160.5  58 159.18  58 157.5  C 58 155.82  59.32 154.5  61 154.5  C 62.68 154.5  64 155.82  64 157.5  C 64 159.18  62.68 160.5  61 160.5  " fill-rule="nonzero" fill="#d7d7d7" stroke="none" />
</svg>