<?xml version="1.0" encoding="utf-8"?>
<svg version="1.1" xmlns:xlink="http://www.w3.org/1999/xlink" width="12px" height="12px" viewBox="53 160.5  12 12" xmlns="http://www.w3.org/2000/svg">
  <path d="M 59 160.5  C 62.36 160.5  65 163.14  65 166.5  C 65 169.86  62.36 172.5  59 172.5  C 55.64 172.5  53 169.86  53 166.5  C 53 163.14  55.64 160.5  59 160.5  Z " fill-rule="nonzero" fill="#ffffff" stroke="none" />
  <path d="M 59 161  C 62.08 161  64.5 163.42  64.5 166.5  C 64.5 169.58  62.08 172  59 172  C 55.92 172  53.5 169.58  53.5 166.5  C 53.5 163.42  55.92 161  59 161  Z " stroke-width="1" stroke="#d7d7d7" fill="none" />
  <path d="M 59 169.5  C 57.32 169.5  56 168.18  56 166.5  C 56 164.82  57.32 163.5  59 163.5  C 60.68 163.5  62 164.82  62 166.5  C 62 168.18  60.68 169.5  59 169.5  " fill-rule="nonzero" fill="#d7d7d7" stroke="none" />
</svg>