<?xml version="1.0" encoding="utf-8"?>
<svg version="1.1" xmlns:xlink="http://www.w3.org/1999/xlink" width="12px" height="12px" viewBox="32 108.5  12 12" xmlns="http://www.w3.org/2000/svg">
  <path d="M 38 108.5  C 41.36 108.5  44 111.14  44 114.5  C 44 117.86  41.36 120.5  38 120.5  C 34.64 120.5  32 117.86  32 114.5  C 32 111.14  34.64 108.5  38 108.5  Z " fill-rule="nonzero" fill="#ffffff" stroke="none" />
  <path d="M 38 109  C 41.08 109  43.5 111.42  43.5 114.5  C 43.5 117.58  41.08 120  38 120  C 34.92 120  32.5 117.58  32.5 114.5  C 32.5 111.42  34.92 109  38 109  Z " stroke-width="1" stroke="#d7d7d7" fill="none" />
  <path d="M 38 117.5  C 36.32 117.5  35 116.18  35 114.5  C 35 112.82  36.32 111.5  38 111.5  C 39.68 111.5  41 112.82  41 114.5  C 41 116.18  39.68 117.5  38 117.5  " fill-rule="nonzero" fill="#d7d7d7" stroke="none" />
</svg>