<?xml version="1.0" encoding="utf-8"?>
<svg version="1.1" xmlns:xlink="http://www.w3.org/1999/xlink" width="12px" height="12px" viewBox="32 71.5  12 12" xmlns="http://www.w3.org/2000/svg">
  <path d="M 38 71.5  C 41.36 71.5  44 74.14  44 77.5  C 44 80.86  41.36 83.5  38 83.5  C 34.64 83.5  32 80.86  32 77.5  C 32 74.14  34.64 71.5  38 71.5  Z " fill-rule="nonzero" fill="#f0f0f0" stroke="none" />
  <path d="M 38 72  C 41.08 72  43.5 74.42  43.5 77.5  C 43.5 80.58  41.08 83  38 83  C 34.92 83  32.5 80.58  32.5 77.5  C 32.5 74.42  34.92 72  38 72  Z " stroke-width="1" stroke="#d7d7d7" fill="none" />
  <path d="M 38 80.5  C 36.32 80.5  35 79.18  35 77.5  C 35 75.82  36.32 74.5  38 74.5  C 39.68 74.5  41 75.82  41 77.5  C 41 79.18  39.68 80.5  38 80.5  " fill-rule="nonzero" fill="#d7d7d7" stroke="none" />
</svg>