<?xml version="1.0" encoding="utf-8"?>
<svg version="1.1" xmlns:xlink="http://www.w3.org/1999/xlink" width="12px" height="12px" viewBox="127 300.5  12 12" xmlns="http://www.w3.org/2000/svg">
  <path d="M 133 300.5  C 136.36 300.5  139 303.14  139 306.5  C 139 309.86  136.36 312.5  133 312.5  C 129.64 312.5  127 309.86  127 306.5  C 127 303.14  129.64 300.5  133 300.5  Z " fill-rule="nonzero" fill="#f0f0f0" stroke="none" />
  <path d="M 133 301  C 136.08 301  138.5 303.42  138.5 306.5  C 138.5 309.58  136.08 312  133 312  C 129.92 312  127.5 309.58  127.5 306.5  C 127.5 303.42  129.92 301  133 301  Z " stroke-width="1" stroke="#d7d7d7" fill="none" />
  <path d="M 133 309.5  C 131.32 309.5  130 308.18  130 306.5  C 130 304.82  131.32 303.5  133 303.5  C 134.68 303.5  136 304.82  136 306.5  C 136 308.18  134.68 309.5  133 309.5  " fill-rule="nonzero" fill="#d7d7d7" stroke="none" />
</svg>