<?xml version="1.0" encoding="utf-8"?>
<svg version="1.1" xmlns:xlink="http://www.w3.org/1999/xlink" width="289px" height="37px" xmlns="http://www.w3.org/2000/svg">
  <g transform="matrix(1 0 0 1 -421 -90 )">
    <path d="M 422 94  A 3 3 0 0 1 425 91 L 706 91  A 3 3 0 0 1 709 94 L 709 123  A 3 3 0 0 1 706 126 L 425 126  A 3 3 0 0 1 422 123 L 422 94  Z " fill-rule="nonzero" fill="#ff3399" stroke="none" fill-opacity="0.0980392156862745" />
    <path d="M 421.5 94  A 3.5 3.5 0 0 1 425 90.5 L 706 90.5  A 3.5 3.5 0 0 1 709.5 94 L 709.5 123  A 3.5 3.5 0 0 1 706 126.5 L 425 126.5  A 3.5 3.5 0 0 1 421.5 123 L 421.5 94  Z " stroke-width="1" stroke-dasharray="9,4" stroke="#ff3399" fill="none" stroke-dashoffset="0.5" />
  </g>
</svg>