<?xml version="1.0" encoding="utf-8"?>
<svg version="1.1" xmlns:xlink="http://www.w3.org/1999/xlink" width="12px" height="12px" viewBox="127 258.5  12 12" xmlns="http://www.w3.org/2000/svg">
  <path d="M 133 258.5  C 136.36 258.5  139 261.14  139 264.5  C 139 267.86  136.36 270.5  133 270.5  C 129.64 270.5  127 267.86  127 264.5  C 127 261.14  129.64 258.5  133 258.5  Z " fill-rule="nonzero" fill="#ffffff" stroke="none" />
  <path d="M 133 259  C 136.08 259  138.5 261.42  138.5 264.5  C 138.5 267.58  136.08 270  133 270  C 129.92 270  127.5 267.58  127.5 264.5  C 127.5 261.42  129.92 259  133 259  Z " stroke-width="1" stroke="#d7d7d7" fill="none" />
  <path d="M 133 267.5  C 131.32 267.5  130 266.18  130 264.5  C 130 262.82  131.32 261.5  133 261.5  C 134.68 261.5  136 262.82  136 264.5  C 136 266.18  134.68 267.5  133 267.5  " fill-rule="nonzero" fill="#d7d7d7" stroke="none" />
</svg>