<?xml version="1.0" encoding="utf-8"?>
<svg version="1.1" xmlns:xlink="http://www.w3.org/1999/xlink" width="12px" height="12px" viewBox="53 85.5  12 12" xmlns="http://www.w3.org/2000/svg">
  <path d="M 59 85.5  C 62.36 85.5  65 88.14  65 91.5  C 65 94.86  62.36 97.5  59 97.5  C 55.64 97.5  53 94.86  53 91.5  C 53 88.14  55.64 85.5  59 85.5  Z " fill-rule="nonzero" fill="#f0f0f0" stroke="none" />
  <path d="M 59 86  C 62.08 86  64.5 88.42  64.5 91.5  C 64.5 94.58  62.08 97  59 97  C 55.92 97  53.5 94.58  53.5 91.5  C 53.5 88.42  55.92 86  59 86  Z " stroke-width="1" stroke="#d7d7d7" fill="none" />
  <path d="M 59 94.5  C 57.32 94.5  56 93.18  56 91.5  C 56 89.82  57.32 88.5  59 88.5  C 60.68 88.5  62 89.82  62 91.5  C 62 93.18  60.68 94.5  59 94.5  " fill-rule="nonzero" fill="#d7d7d7" stroke="none" />
</svg>