<?xml version="1.0" encoding="utf-8"?>
<svg version="1.1" xmlns:xlink="http://www.w3.org/1999/xlink" width="250px" height="159px" xmlns="http://www.w3.org/2000/svg">
  <g transform="matrix(1 0 0 1 -466 -117 )">
    <path d="M 467 121  A 3 3 0 0 1 470 118 L 712 118  A 3 3 0 0 1 715 121 L 715 272  A 3 3 0 0 1 712 275 L 470 275  A 3 3 0 0 1 467 272 L 467 121  Z " fill-rule="nonzero" fill="#ff3399" stroke="none" fill-opacity="0.0980392156862745" />
    <path d="M 466.5 121  A 3.5 3.5 0 0 1 470 117.5 L 712 117.5  A 3.5 3.5 0 0 1 715.5 121 L 715.5 272  A 3.5 3.5 0 0 1 712 275.5 L 470 275.5  A 3.5 3.5 0 0 1 466.5 272 L 466.5 121  Z " stroke-width="1" stroke-dasharray="9,4" stroke="#ff3399" fill="none" stroke-dashoffset="0.5" />
  </g>
</svg>