<?xml version="1.0" encoding="utf-8"?>
<svg version="1.1" xmlns:xlink="http://www.w3.org/1999/xlink" width="289px" height="62px" xmlns="http://www.w3.org/2000/svg">
  <g transform="matrix(1 0 0 1 -421 -161 )">
    <path d="M 422 165  A 3 3 0 0 1 425 162 L 706 162  A 3 3 0 0 1 709 165 L 709 219  A 3 3 0 0 1 706 222 L 425 222  A 3 3 0 0 1 422 219 L 422 165  Z " fill-rule="nonzero" fill="#ff3399" stroke="none" fill-opacity="0.0980392156862745" />
    <path d="M 421.5 165  A 3.5 3.5 0 0 1 425 161.5 L 706 161.5  A 3.5 3.5 0 0 1 709.5 165 L 709.5 219  A 3.5 3.5 0 0 1 706 222.5 L 425 222.5  A 3.5 3.5 0 0 1 421.5 219 L 421.5 165  Z " stroke-width="1" stroke-dasharray="9,4" stroke="#ff3399" fill="none" stroke-dashoffset="0.5" />
  </g>
</svg>