<?xml version="1.0" encoding="utf-8"?>
<svg version="1.1" xmlns:xlink="http://www.w3.org/1999/xlink" width="12px" height="12px" viewBox="86 173.5  12 12" xmlns="http://www.w3.org/2000/svg">
  <path d="M 92 173.5  C 95.36 173.5  98 176.14  98 179.5  C 98 182.86  95.36 185.5  92 185.5  C 88.64 185.5  86 182.86  86 179.5  C 86 176.14  88.64 173.5  92 173.5  Z " fill-rule="nonzero" fill="#ffffff" stroke="none" />
  <path d="M 92 174  C 95.08 174  97.5 176.42  97.5 179.5  C 97.5 182.58  95.08 185  92 185  C 88.92 185  86.5 182.58  86.5 179.5  C 86.5 176.42  88.92 174  92 174  Z " stroke-width="1" stroke="#d7d7d7" fill="none" />
  <path d="M 92 182.5  C 90.32 182.5  89 181.18  89 179.5  C 89 177.82  90.32 176.5  92 176.5  C 93.68 176.5  95 177.82  95 179.5  C 95 181.18  93.68 182.5  92 182.5  " fill-rule="nonzero" fill="#d7d7d7" stroke="none" />
</svg>