<?xml version="1.0" encoding="utf-8"?>
<svg version="1.1" xmlns:xlink="http://www.w3.org/1999/xlink" width="167px" height="118px" xmlns="http://www.w3.org/2000/svg">
  <g transform="matrix(1 0 0 1 -384 -59 )">
    <path d="M 385 63  A 3 3 0 0 1 388 60 L 547 60  A 3 3 0 0 1 550 63 L 550 173  A 3 3 0 0 1 547 176 L 388 176  A 3 3 0 0 1 385 173 L 385 63  Z " fill-rule="nonzero" fill="#ff3399" stroke="none" fill-opacity="0.0980392156862745" />
    <path d="M 384.5 63  A 3.5 3.5 0 0 1 388 59.5 L 547 59.5  A 3.5 3.5 0 0 1 550.5 63 L 550.5 173  A 3.5 3.5 0 0 1 547 176.5 L 388 176.5  A 3.5 3.5 0 0 1 384.5 173 L 384.5 63  Z " stroke-width="1" stroke-dasharray="9,4" stroke="#ff3399" fill="none" stroke-dashoffset="0.5" />
  </g>
</svg>