<?xml version="1.0" encoding="utf-8"?>
<svg version="1.1" xmlns:xlink="http://www.w3.org/1999/xlink" width="68px" height="27px" xmlns="http://www.w3.org/2000/svg">
  <g transform="matrix(1 0 0 1 -608 -167 )">
    <path d="M 609 171  A 3 3 0 0 1 612 168 L 672 168  A 3 3 0 0 1 675 171 L 675 190  A 3 3 0 0 1 672 193 L 612 193  A 3 3 0 0 1 609 190 L 609 171  Z " fill-rule="nonzero" fill="#ff3399" stroke="none" fill-opacity="0.0980392156862745" />
    <path d="M 608.5 171  A 3.5 3.5 0 0 1 612 167.5 L 672 167.5  A 3.5 3.5 0 0 1 675.5 171 L 675.5 190  A 3.5 3.5 0 0 1 672 193.5 L 612 193.5  A 3.5 3.5 0 0 1 608.5 190 L 608.5 171  Z " stroke-width="1" stroke-dasharray="9,4" stroke="#ff3399" fill="none" stroke-dashoffset="0.5" />
  </g>
</svg>