<?xml version="1.0" encoding="utf-8"?>
<svg version="1.1" xmlns:xlink="http://www.w3.org/1999/xlink" width="786px" height="100px" xmlns="http://www.w3.org/2000/svg">
  <g transform="matrix(1 0 0 1 -24 -287 )">
    <path d="M 25 291  A 3 3 0 0 1 28 288 L 806 288  A 3 3 0 0 1 809 291 L 809 383  A 3 3 0 0 1 806 386 L 28 386  A 3 3 0 0 1 25 383 L 25 291  Z " fill-rule="nonzero" fill="#ff3399" stroke="none" fill-opacity="0.0980392156862745" />
    <path d="M 24.5 291  A 3.5 3.5 0 0 1 28 287.5 L 806 287.5  A 3.5 3.5 0 0 1 809.5 291 L 809.5 383  A 3.5 3.5 0 0 1 806 386.5 L 28 386.5  A 3.5 3.5 0 0 1 24.5 383 L 24.5 291  Z " stroke-width="1" stroke-dasharray="9,4" stroke="#ff3399" fill="none" stroke-dashoffset="0.5" />
  </g>
</svg>