<?xml version="1.0" encoding="utf-8"?>
<svg version="1.1" xmlns:xlink="http://www.w3.org/1999/xlink" width="13px" height="12px" xmlns="http://www.w3.org/2000/svg">
  <g transform="matrix(1 0 0 1 -683 -483 )">
    <path d="M 10.0716145833333 5  C 10.0716145833333 5.13541666666667  10.0180121527778 5.25260416666667  9.91080729166667 5.3515625  L 6.33919270833333 8.6484375  C 6.23198784722222 8.74739583333333  6.10503472222222 8.796875  5.95833333333333 8.796875  C 5.81163194444444 8.796875  5.68467881944444 8.74739583333333  5.57747395833333 8.6484375  L 3.08919270833333 6.3515625  C 2.98198784722222 6.25260416666667  2.92838541666667 6.13541666666667  2.92838541666667 6  C 2.92838541666667 5.86458333333333  2.98198784722222 5.74739583333333  3.08919270833333 5.6484375  L 3.95247395833333 4.8515625  C 4.05967881944444 4.75260416666667  4.18663194444444 4.703125  4.33333333333333 4.703125  C 4.48003472222222 4.703125  4.60698784722222 4.75260416666667  4.71419270833333 4.8515625  L 5.95833333333333 6  L 8.28580729166667 3.8515625  C 8.39301215277778 3.75260416666667  8.51996527777778 3.703125  8.66666666666667 3.703125  C 8.81336805555556 3.703125  8.94032118055556 3.75260416666667  9.04752604166667 3.8515625  L 9.91080729166667 4.6484375  C 10.0180121527778 4.74739583333333  10.0716145833333 4.86458333333333  10.0716145833333 5  Z M 10.486328125 8.1328125  C 10.8982204861111 7.48177083333333  11.1041666666667 6.77083333333333  11.1041666666667 6  C 11.1041666666667 5.22916666666667  10.8982204861111 4.51822916666667  10.486328125 3.8671875  C 10.0744357638889 3.21614583333333  9.51584201388889 2.70052083333333  8.810546875 2.3203125  C 8.10525173611111 1.94010416666667  7.33506944444444 1.75  6.5 1.75  C 5.66493055555556 1.75  4.89474826388889 1.94010416666667  4.189453125 2.3203125  C 3.48415798611111 2.70052083333333  2.92556423611111 3.21614583333333  2.513671875 3.8671875  C 2.10177951388889 4.51822916666667  1.89583333333333 5.22916666666667  1.89583333333333 6  C 1.89583333333333 6.77083333333333  2.10177951388889 7.48177083333333  2.513671875 8.1328125  C 2.92556423611111 8.78385416666666  3.48415798611111 9.29947916666667  4.189453125 9.6796875  C 4.89474826388889 10.0598958333333  5.66493055555556 10.25  6.5 10.25  C 7.33506944444444 10.25  8.10525173611111 10.0598958333333  8.810546875 9.6796875  C 9.51584201388889 9.29947916666667  10.0744357638889 8.78385416666666  10.486328125 8.1328125  Z M 12.1282552083333 2.98828125  C 12.7094184027778 3.90755208333333  13 4.91145833333333  13 6  C 13 7.08854166666667  12.7094184027778 8.09244791666666  12.1282552083333 9.01171875  C 11.5470920138889 9.93098958333333  10.7585720486111 10.6588541666667  9.7626953125 11.1953125  C 8.76681857638889 11.7317708333333  7.67925347222222 12  6.5 12  C 5.32074652777778 12  4.23318142361111 11.7317708333333  3.2373046875 11.1953125  C 2.24142795138889 10.6588541666667  1.45290798611111 9.93098958333333  0.871744791666667 9.01171875  C 0.290581597222222 8.09244791666666  0 7.08854166666667  0 6  C 0 4.91145833333333  0.290581597222222 3.90755208333333  0.871744791666667 2.98828125  C 1.45290798611111 2.06901041666667  2.24142795138889 1.34114583333333  3.2373046875 0.8046875  C 4.23318142361111 0.268229166666666  5.32074652777778 0  6.5 0  C 7.67925347222222 0  8.76681857638889 0.268229166666666  9.7626953125 0.8046875  C 10.7585720486111 1.34114583333333  11.5470920138889 2.06901041666667  12.1282552083333 2.98828125  Z " fill-rule="nonzero" fill="#95f204" stroke="none" transform="matrix(1 0 0 1 683 483 )" />
  </g>
</svg>