<?xml version="1.0" encoding="utf-8"?>
<svg version="1.1" xmlns:xlink="http://www.w3.org/1999/xlink" width="22px" height="17px" xmlns="http://www.w3.org/2000/svg">
  <g transform="matrix(1 0 0 1 -680 -69 )">
    <path d="M 5.94196428571429 12.7017045454545  C 6.17113095238095 12.9270833333333  6.28571428571429 13.2007575757576  6.28571428571429 13.5227272727273  L 6.28571428571429 15.8409090909091  C 6.28571428571429 16.1628787878788  6.17113095238095 16.436553030303  5.94196428571429 16.6619318181818  C 5.71279761904762 16.8873106060606  5.43452380952381 17  5.10714285714286 17  L 1.17857142857143 17  C 0.851190476190476 17  0.572916666666667 16.8873106060606  0.34375 16.6619318181818  C 0.114583333333333 16.436553030303  0 16.1628787878788  0 15.8409090909091  L 0 13.5227272727273  C 0 13.2007575757576  0.114583333333333 12.9270833333333  0.34375 12.7017045454545  C 0.572916666666667 12.4763257575758  0.851190476190476 12.3636363636364  1.17857142857143 12.3636363636364  L 5.10714285714286 12.3636363636364  C 5.43452380952381 12.3636363636364  5.71279761904762 12.4763257575758  5.94196428571429 12.7017045454545  Z M 5.94196428571429 6.51988636363636  C 6.17113095238095 6.74526515151515  6.28571428571429 7.01893939393939  6.28571428571429 7.34090909090909  L 6.28571428571429 9.65909090909091  C 6.28571428571429 9.98106060606061  6.17113095238095 10.2547348484848  5.94196428571429 10.4801136363636  C 5.71279761904762 10.7054924242424  5.43452380952381 10.8181818181818  5.10714285714286 10.8181818181818  L 1.17857142857143 10.8181818181818  C 0.851190476190476 10.8181818181818  0.572916666666667 10.7054924242424  0.34375 10.4801136363636  C 0.114583333333333 10.2547348484848  0 9.98106060606061  0 9.65909090909091  L 0 7.34090909090909  C 0 7.01893939393939  0.114583333333333 6.74526515151515  0.34375 6.51988636363636  C 0.572916666666667 6.29450757575758  0.851190476190476 6.18181818181818  1.17857142857143 6.18181818181818  L 5.10714285714286 6.18181818181818  C 5.43452380952381 6.18181818181818  5.71279761904762 6.29450757575758  5.94196428571429 6.51988636363636  Z M 21.65625 12.7017045454545  C 21.8854166666667 12.9270833333333  22 13.2007575757576  22 13.5227272727273  L 22 15.8409090909091  C 22 16.1628787878788  21.8854166666667 16.436553030303  21.65625 16.6619318181818  C 21.4270833333333 16.8873106060606  21.1488095238095 17  20.8214285714286 17  L 9.03571428571428 17  C 8.70833333333333 17  8.43005952380952 16.8873106060606  8.20089285714286 16.6619318181818  C 7.97172619047619 16.436553030303  7.85714285714286 16.1628787878788  7.85714285714286 15.8409090909091  L 7.85714285714286 13.5227272727273  C 7.85714285714286 13.2007575757576  7.97172619047619 12.9270833333333  8.20089285714286 12.7017045454545  C 8.43005952380952 12.4763257575758  8.70833333333333 12.3636363636364  9.03571428571428 12.3636363636364  L 20.8214285714286 12.3636363636364  C 21.1488095238095 12.3636363636364  21.4270833333333 12.4763257575758  21.65625 12.7017045454545  Z M 5.94196428571429 0.338068181818182  C 6.17113095238095 0.563446969696969  6.28571428571429 0.837121212121211  6.28571428571429 1.15909090909091  L 6.28571428571429 3.47727272727273  C 6.28571428571429 3.79924242424242  6.17113095238095 4.07291666666667  5.94196428571429 4.29829545454545  C 5.71279761904762 4.52367424242424  5.43452380952381 4.63636363636364  5.10714285714286 4.63636363636364  L 1.17857142857143 4.63636363636364  C 0.851190476190476 4.63636363636364  0.572916666666667 4.52367424242424  0.34375 4.29829545454545  C 0.114583333333333 4.07291666666667  0 3.79924242424242  0 3.47727272727273  L 0 1.15909090909091  C 0 0.837121212121211  0.114583333333333 0.563446969696969  0.34375 0.338068181818182  C 0.572916666666667 0.112689393939393  0.851190476190476 0  1.17857142857143 0  L 5.10714285714286 0  C 5.43452380952381 0  5.71279761904762 0.112689393939393  5.94196428571429 0.338068181818182  Z M 21.65625 6.51988636363636  C 21.8854166666667 6.74526515151515  22 7.01893939393939  22 7.34090909090909  L 22 9.65909090909091  C 22 9.98106060606061  21.8854166666667 10.2547348484848  21.65625 10.4801136363636  C 21.4270833333333 10.7054924242424  21.1488095238095 10.8181818181818  20.8214285714286 10.8181818181818  L 9.03571428571428 10.8181818181818  C 8.70833333333333 10.8181818181818  8.43005952380952 10.7054924242424  8.20089285714286 10.4801136363636  C 7.97172619047619 10.2547348484848  7.85714285714286 9.98106060606061  7.85714285714286 9.65909090909091  L 7.85714285714286 7.34090909090909  C 7.85714285714286 7.01893939393939  7.97172619047619 6.74526515151515  8.20089285714286 6.51988636363636  C 8.43005952380952 6.29450757575758  8.70833333333333 6.18181818181818  9.03571428571428 6.18181818181818  L 20.8214285714286 6.18181818181818  C 21.1488095238095 6.18181818181818  21.4270833333333 6.29450757575758  21.65625 6.51988636363636  Z M 21.65625 0.338068181818182  C 21.8854166666667 0.563446969696969  22 0.837121212121211  22 1.15909090909091  L 22 3.47727272727273  C 22 3.79924242424242  21.8854166666667 4.07291666666667  21.65625 4.29829545454545  C 21.4270833333333 4.52367424242424  21.1488095238095 4.63636363636364  20.8214285714286 4.63636363636364  L 9.03571428571428 4.63636363636364  C 8.70833333333333 4.63636363636364  8.43005952380952 4.52367424242424  8.20089285714286 4.29829545454545  C 7.97172619047619 4.07291666666667  7.85714285714286 3.79924242424242  7.85714285714286 3.47727272727273  L 7.85714285714286 1.15909090909091  C 7.85714285714286 0.837121212121211  7.97172619047619 0.563446969696969  8.20089285714286 0.338068181818182  C 8.43005952380952 0.112689393939393  8.70833333333333 0  9.03571428571428 0  L 20.8214285714286 0  C 21.1488095238095 0  21.4270833333333 0.112689393939393  21.65625 0.338068181818182  Z " fill-rule="nonzero" fill="#000000" stroke="none" transform="matrix(1 0 0 1 680 69 )" />
  </g>
</svg>