<?xml version="1.0" encoding="utf-8"?>
<svg version="1.1" xmlns:xlink="http://www.w3.org/1999/xlink" width="764px" height="90px" xmlns="http://www.w3.org/2000/svg">
  <g transform="matrix(1 0 0 1 -10 -817 )">
    <path d="M 11 821  A 3 3 0 0 1 14 818 L 770 818  A 3 3 0 0 1 773 821 L 773 903  A 3 3 0 0 1 770 906 L 14 906  A 3 3 0 0 1 11 903 L 11 821  Z " fill-rule="nonzero" fill="#ff3399" stroke="none" fill-opacity="0.0980392156862745" />
    <path d="M 10.5 821  A 3.5 3.5 0 0 1 14 817.5 L 770 817.5  A 3.5 3.5 0 0 1 773.5 821 L 773.5 903  A 3.5 3.5 0 0 1 770 906.5 L 14 906.5  A 3.5 3.5 0 0 1 10.5 903 L 10.5 821  Z " stroke-width="1" stroke-dasharray="9,4" stroke="#ff3399" fill="none" stroke-dashoffset="0.5" />
  </g>
</svg>