<?xml version="1.0" encoding="utf-8"?>
<svg version="1.1" xmlns:xlink="http://www.w3.org/1999/xlink" width="84px" height="32px" xmlns="http://www.w3.org/2000/svg">
  <g transform="matrix(1 0 0 1 -302 -126 )">
    <path d="M 303 130  A 3 3 0 0 1 306 127 L 382 127  A 3 3 0 0 1 385 130 L 385 154  A 3 3 0 0 1 382 157 L 306 157  A 3 3 0 0 1 303 154 L 303 130  Z " fill-rule="nonzero" fill="#ff3399" stroke="none" fill-opacity="0.0980392156862745" />
    <path d="M 302.5 130  A 3.5 3.5 0 0 1 306 126.5 L 382 126.5  A 3.5 3.5 0 0 1 385.5 130 L 385.5 154  A 3.5 3.5 0 0 1 382 157.5 L 306 157.5  A 3.5 3.5 0 0 1 302.5 154 L 302.5 130  Z " stroke-width="1" stroke-dasharray="9,4" stroke="#ff3399" fill="none" stroke-dashoffset="0.5" />
  </g>
</svg>