<?xml version="1.0" encoding="utf-8"?>
<svg version="1.1" xmlns:xlink="http://www.w3.org/1999/xlink" width="484px" height="56px" xmlns="http://www.w3.org/2000/svg">
  <g transform="matrix(1 0 0 1 -6 -431 )">
    <path d="M 7 435  A 3 3 0 0 1 10 432 L 486 432  A 3 3 0 0 1 489 435 L 489 483  A 3 3 0 0 1 486 486 L 10 486  A 3 3 0 0 1 7 483 L 7 435  Z " fill-rule="nonzero" fill="#ff3399" stroke="none" fill-opacity="0.0980392156862745" />
    <path d="M 6.5 435  A 3.5 3.5 0 0 1 10 431.5 L 486 431.5  A 3.5 3.5 0 0 1 489.5 435 L 489.5 483  A 3.5 3.5 0 0 1 486 486.5 L 10 486.5  A 3.5 3.5 0 0 1 6.5 483 L 6.5 435  Z " stroke-width="1" stroke-dasharray="9,4" stroke="#ff3399" fill="none" stroke-dashoffset="0.5" />
  </g>
</svg>