<?xml version="1.0" encoding="utf-8"?>
<svg version="1.1" xmlns:xlink="http://www.w3.org/1999/xlink" width="249px" height="60px" xmlns="http://www.w3.org/2000/svg">
  <g transform="matrix(1 0 0 1 -2 -240 )">
    <path d="M 3 244  A 3 3 0 0 1 6 241 L 247 241  A 3 3 0 0 1 250 244 L 250 296  A 3 3 0 0 1 247 299 L 6 299  A 3 3 0 0 1 3 296 L 3 244  Z " fill-rule="nonzero" fill="#ff3399" stroke="none" fill-opacity="0.0980392156862745" />
    <path d="M 2.5 244  A 3.5 3.5 0 0 1 6 240.5 L 247 240.5  A 3.5 3.5 0 0 1 250.5 244 L 250.5 296  A 3.5 3.5 0 0 1 247 299.5 L 6 299.5  A 3.5 3.5 0 0 1 2.5 296 L 2.5 244  Z " stroke-width="1" stroke-dasharray="9,4" stroke="#ff3399" fill="none" stroke-dashoffset="0.5" />
  </g>
</svg>