<?xml version="1.0" encoding="utf-8"?>
<svg version="1.1" xmlns:xlink="http://www.w3.org/1999/xlink" width="178px" height="95px" xmlns="http://www.w3.org/2000/svg">
  <g transform="matrix(1 0 0 1 -23 -284 )">
    <path d="M 24 288  A 3 3 0 0 1 27 285 L 197 285  A 3 3 0 0 1 200 288 L 200 375  A 3 3 0 0 1 197 378 L 27 378  A 3 3 0 0 1 24 375 L 24 288  Z " fill-rule="nonzero" fill="#ff3399" stroke="none" fill-opacity="0.0980392156862745" />
    <path d="M 23.5 288  A 3.5 3.5 0 0 1 27 284.5 L 197 284.5  A 3.5 3.5 0 0 1 200.5 288 L 200.5 375  A 3.5 3.5 0 0 1 197 378.5 L 27 378.5  A 3.5 3.5 0 0 1 23.5 375 L 23.5 288  Z " stroke-width="1" stroke-dasharray="9,4" stroke="#ff3399" fill="none" stroke-dashoffset="0.5" />
  </g>
</svg>