<?xml version="1.0" encoding="utf-8"?>
<svg version="1.1" xmlns:xlink="http://www.w3.org/1999/xlink" width="12px" height="12px" viewBox="74 69.5  12 12" xmlns="http://www.w3.org/2000/svg">
  <path d="M 80 69.5  C 83.36 69.5  86 72.14  86 75.5  C 86 78.86  83.36 81.5  80 81.5  C 76.64 81.5  74 78.86  74 75.5  C 74 72.14  76.64 69.5  80 69.5  Z " fill-rule="nonzero" fill="#ffffff" stroke="none" />
  <path d="M 80 70  C 83.08 70  85.5 72.42  85.5 75.5  C 85.5 78.58  83.08 81  80 81  C 76.92 81  74.5 78.58  74.5 75.5  C 74.5 72.42  76.92 70  80 70  Z " stroke-width="1" stroke="#d7d7d7" fill="none" />
  <path d="M 80 78.5  C 78.32 78.5  77 77.18  77 75.5  C 77 73.82  78.32 72.5  80 72.5  C 81.68 72.5  83 73.82  83 75.5  C 83 77.18  81.68 78.5  80 78.5  " fill-rule="nonzero" fill="#d7d7d7" stroke="none" />
</svg>