<?xml version="1.0" encoding="utf-8"?>
<svg version="1.1" xmlns:xlink="http://www.w3.org/1999/xlink" width="317px" height="55px" xmlns="http://www.w3.org/2000/svg">
  <g transform="matrix(1 0 0 1 -224 -316 )">
    <path d="M 225 320  A 3 3 0 0 1 228 317 L 537 317  A 3 3 0 0 1 540 320 L 540 367  A 3 3 0 0 1 537 370 L 228 370  A 3 3 0 0 1 225 367 L 225 320  Z " fill-rule="nonzero" fill="#ff3399" stroke="none" fill-opacity="0.0980392156862745" />
    <path d="M 224.5 320  A 3.5 3.5 0 0 1 228 316.5 L 537 316.5  A 3.5 3.5 0 0 1 540.5 320 L 540.5 367  A 3.5 3.5 0 0 1 537 370.5 L 228 370.5  A 3.5 3.5 0 0 1 224.5 367 L 224.5 320  Z " stroke-width="1" stroke-dasharray="9,4" stroke="#ff3399" fill="none" stroke-dashoffset="0.5" />
  </g>
</svg>