<?xml version="1.0" encoding="utf-8"?>
<svg version="1.1" xmlns:xlink="http://www.w3.org/1999/xlink" width="12px" height="12px" viewBox="74 166.5  12 12" xmlns="http://www.w3.org/2000/svg">
  <path d="M 80 166.5  C 83.36 166.5  86 169.14  86 172.5  C 86 175.86  83.36 178.5  80 178.5  C 76.64 178.5  74 175.86  74 172.5  C 74 169.14  76.64 166.5  80 166.5  Z " fill-rule="nonzero" fill="#f0f0f0" stroke="none" />
  <path d="M 80 167  C 83.08 167  85.5 169.42  85.5 172.5  C 85.5 175.58  83.08 178  80 178  C 76.92 178  74.5 175.58  74.5 172.5  C 74.5 169.42  76.92 167  80 167  Z " stroke-width="1" stroke="#d7d7d7" fill="none" />
  <path d="M 80 175.5  C 78.32 175.5  77 174.18  77 172.5  C 77 170.82  78.32 169.5  80 169.5  C 81.68 169.5  83 170.82  83 172.5  C 83 174.18  81.68 175.5  80 175.5  " fill-rule="nonzero" fill="#d7d7d7" stroke="none" />
</svg>