<?xml version="1.0" encoding="utf-8"?>
<svg version="1.1" xmlns:xlink="http://www.w3.org/1999/xlink" width="12px" height="12px" viewBox="74 216.5  12 12" xmlns="http://www.w3.org/2000/svg">
  <path d="M 80 216.5  C 83.36 216.5  86 219.14  86 222.5  C 86 225.86  83.36 228.5  80 228.5  C 76.64 228.5  74 225.86  74 222.5  C 74 219.14  76.64 216.5  80 216.5  Z " fill-rule="nonzero" fill="#f0f0f0" stroke="none" />
  <path d="M 80 217  C 83.08 217  85.5 219.42  85.5 222.5  C 85.5 225.58  83.08 228  80 228  C 76.92 228  74.5 225.58  74.5 222.5  C 74.5 219.42  76.92 217  80 217  Z " stroke-width="1" stroke="#d7d7d7" fill="none" />
  <path d="M 80 225.5  C 78.32 225.5  77 224.18  77 222.5  C 77 220.82  78.32 219.5  80 219.5  C 81.68 219.5  83 220.82  83 222.5  C 83 224.18  81.68 225.5  80 225.5  " fill-rule="nonzero" fill="#d7d7d7" stroke="none" />
</svg>