<?xml version="1.0" encoding="utf-8"?>
<svg version="1.1" xmlns:xlink="http://www.w3.org/1999/xlink" width="14px" height="15px" xmlns="http://www.w3.org/2000/svg">
  <g transform="matrix(1 0 0 1 -158 -145 )">
    <path d="M 13.685546875 8.8427734375  C 13.7432725694444 8.90462239583333  13.7721354166667 8.97786458333333  13.7721354166667 9.0625  C 13.7721354166667 9.09505208333333  13.7690972222222 9.11783854166666  13.7630208333333 9.130859375  C 13.3741319444444 10.8756510416667  12.5598958333333 12.2900390625  11.3203125 13.3740234375  C 10.0807291666667 14.4580078125  8.62847222222222 15  6.96354166666667 15  C 6.07638888888889 15  5.21809895833333 14.8209635416667  4.388671875 14.462890625  C 3.55924479166667 14.1048177083333  2.81944444444445 13.59375  2.16927083333333 12.9296875  L 0.993489583333333 14.189453125  C 0.878038194444445 14.3131510416667  0.741319444444445 14.375  0.583333333333333 14.375  C 0.425347222222222 14.375  0.288628472222222 14.3131510416667  0.173177083333333 14.189453125  C 0.0577256944444444 14.0657552083333  0 13.9192708333333  0 13.75  L 0 9.375  C 0 9.20572916666666  0.0577256944444444 9.05924479166666  0.173177083333333 8.935546875  C 0.288628472222222 8.81184895833333  0.425347222222222 8.75  0.583333333333333 8.75  L 4.66666666666667 8.75  C 4.82465277777778 8.75  4.96137152777778 8.81184895833333  5.07682291666667 8.935546875  C 5.19227430555556 9.05924479166666  5.25 9.20572916666666  5.25 9.375  C 5.25 9.54427083333333  5.19227430555556 9.69075520833333  5.07682291666667 9.814453125  L 3.828125 11.15234375  C 4.25954861111111 11.58203125  4.74869791666667 11.9140625  5.29557291666667 12.1484375  C 5.84244791666667 12.3828125  6.41059027777778 12.5  7 12.5  C 7.81423611111111 12.5  8.57378472222222 12.2884114583333  9.27864583333333 11.865234375  C 9.98350694444444 11.4420572916667  10.5486111111111 10.859375  10.9739583333333 10.1171875  C 11.0407986111111 10.0065104166667  11.2018229166667 9.62565104166667  11.45703125 8.974609375  C 11.5056423611111 8.82486979166666  11.5967881944444 8.75  11.73046875 8.75  L 13.48046875 8.75  C 13.5594618055556 8.75  13.6278211805556 8.78092447916666  13.685546875 8.8427734375  Z M 13.8268229166667 0.810546875000001  C 13.9422743055556 0.934244791666666  14 1.08072916666667  14 1.25  L 14 5.625  C 14 5.79427083333333  13.9422743055556 5.94075520833333  13.8268229166667 6.064453125  C 13.7113715277778 6.18815104166667  13.5746527777778 6.25  13.4166666666667 6.25  L 9.33333333333333 6.25  C 9.17534722222222 6.25  9.03862847222222 6.18815104166667  8.92317708333333 6.064453125  C 8.80772569444444 5.94075520833333  8.75 5.79427083333333  8.75 5.625  C 8.75 5.45572916666667  8.80772569444444 5.30924479166667  8.92317708333333 5.185546875  L 10.1809895833333 3.837890625  C 9.28168402777778 2.94596354166666  8.22135416666667 2.5  7 2.5  C 6.18576388888889 2.5  5.42621527777778 2.71158854166666  4.72135416666667 3.134765625  C 4.01649305555556 3.55794270833333  3.45138888888889 4.140625  3.02604166666667 4.8828125  C 2.95920138888889 4.99348958333333  2.79817708333333 5.37434895833333  2.54296875 6.025390625  C 2.49435763888889 6.17513020833333  2.40321180555556 6.25  2.26953125 6.25  L 0.455729166666667 6.25  C 0.376736111111111 6.25  0.308376736111111 6.21907552083333  0.250651041666667 6.1572265625  C 0.192925347222222 6.09537760416667  0.1640625 6.02213541666667  0.1640625 5.9375  L 0.1640625 5.869140625  C 0.559027777777778 4.12434895833333  1.37934027777778 2.7099609375  2.625 1.6259765625  C 3.87065972222222 0.5419921875  5.32899305555556 0  7 0  C 7.88715277777778 0  8.75 0.180664062500001  9.58854166666667 0.5419921875  C 10.4270833333333 0.903320312499999  11.1714409722222 1.41276041666667  11.8216145833333 2.0703125  L 13.0065104166667 0.810546875000001  C 13.1219618055556 0.686848958333332  13.2586805555556 0.624999999999999  13.4166666666667 0.624999999999999  C 13.5746527777778 0.624999999999999  13.7113715277778 0.686848958333332  13.8268229166667 0.810546875000001  Z " fill-rule="nonzero" fill="#000000" stroke="none" transform="matrix(1 0 0 1 158 145 )" />
  </g>
</svg>