<?xml version="1.0" encoding="utf-8"?>
<svg version="1.1" xmlns:xlink="http://www.w3.org/1999/xlink" width="200px" height="174px" xmlns="http://www.w3.org/2000/svg">
  <g transform="matrix(1 0 0 1 -336 -20 )">
    <path d="M 337 24  A 3 3 0 0 1 340 21 L 532 21  A 3 3 0 0 1 535 24 L 535 190  A 3 3 0 0 1 532 193 L 340 193  A 3 3 0 0 1 337 190 L 337 24  Z " fill-rule="nonzero" fill="#ff3399" stroke="none" fill-opacity="0.0980392156862745" />
    <path d="M 336.5 24  A 3.5 3.5 0 0 1 340 20.5 L 532 20.5  A 3.5 3.5 0 0 1 535.5 24 L 535.5 190  A 3.5 3.5 0 0 1 532 193.5 L 340 193.5  A 3.5 3.5 0 0 1 336.5 190 L 336.5 24  Z " stroke-width="1" stroke-dasharray="9,4" stroke="#ff3399" fill="none" stroke-dashoffset="0.5" />
  </g>
</svg>