<?xml version="1.0" encoding="utf-8"?>
<svg version="1.1" xmlns:xlink="http://www.w3.org/1999/xlink" width="12px" height="12px" viewBox="131 271.5  12 12" xmlns="http://www.w3.org/2000/svg">
  <path d="M 137 271.5  C 140.36 271.5  143 274.14  143 277.5  C 143 280.86  140.36 283.5  137 283.5  C 133.64 283.5  131 280.86  131 277.5  C 131 274.14  133.64 271.5  137 271.5  Z " fill-rule="nonzero" fill="#f0f0f0" stroke="none" />
  <path d="M 137 272  C 140.08 272  142.5 274.42  142.5 277.5  C 142.5 280.58  140.08 283  137 283  C 133.92 283  131.5 280.58  131.5 277.5  C 131.5 274.42  133.92 272  137 272  Z " stroke-width="1" stroke="#02a7f0" fill="none" />
  <path d="M 137 280.5  C 135.32 280.5  134 279.18  134 277.5  C 134 275.82  135.32 274.5  137 274.5  C 138.68 274.5  140 275.82  140 277.5  C 140 279.18  138.68 280.5  137 280.5  " fill-rule="nonzero" fill="#02a7f0" stroke="none" />
</svg>