<?xml version="1.0" encoding="utf-8"?>
<svg version="1.1" xmlns:xlink="http://www.w3.org/1999/xlink" width="12px" height="12px" viewBox="131 221.5  12 12" xmlns="http://www.w3.org/2000/svg">
  <path d="M 137 221.5  C 140.36 221.5  143 224.14  143 227.5  C 143 230.86  140.36 233.5  137 233.5  C 133.64 233.5  131 230.86  131 227.5  C 131 224.14  133.64 221.5  137 221.5  Z " fill-rule="nonzero" fill="#f0f0f0" stroke="none" />
  <path d="M 137 222  C 140.08 222  142.5 224.42  142.5 227.5  C 142.5 230.58  140.08 233  137 233  C 133.92 233  131.5 230.58  131.5 227.5  C 131.5 224.42  133.92 222  137 222  Z " stroke-width="1" stroke="#02a7f0" fill="none" />
  <path d="M 137 230.5  C 135.32 230.5  134 229.18  134 227.5  C 134 225.82  135.32 224.5  137 224.5  C 138.68 224.5  140 225.82  140 227.5  C 140 229.18  138.68 230.5  137 230.5  " fill-rule="nonzero" fill="#02a7f0" stroke="none" />
</svg>