<?xml version="1.0" encoding="utf-8"?>
<svg version="1.1" xmlns:xlink="http://www.w3.org/1999/xlink" width="12px" height="12px" viewBox="80 74.5  12 12" xmlns="http://www.w3.org/2000/svg">
  <path d="M 86 74.5  C 89.36 74.5  92 77.14  92 80.5  C 92 83.86  89.36 86.5  86 86.5  C 82.64 86.5  80 83.86  80 80.5  C 80 77.14  82.64 74.5  86 74.5  Z " fill-rule="nonzero" fill="#ffffff" stroke="none" />
  <path d="M 86 75  C 89.08 75  91.5 77.42  91.5 80.5  C 91.5 83.58  89.08 86  86 86  C 82.92 86  80.5 83.58  80.5 80.5  C 80.5 77.42  82.92 75  86 75  Z " stroke-width="1" stroke="#d7d7d7" fill="none" />
  <path d="M 86 83.5  C 84.32 83.5  83 82.18  83 80.5  C 83 78.82  84.32 77.5  86 77.5  C 87.68 77.5  89 78.82  89 80.5  C 89 82.18  87.68 83.5  86 83.5  " fill-rule="nonzero" fill="#d7d7d7" stroke="none" />
</svg>