<?xml version="1.0" encoding="utf-8"?>
<svg version="1.1" xmlns:xlink="http://www.w3.org/1999/xlink" width="12px" height="12px" viewBox="80 171.5  12 12" xmlns="http://www.w3.org/2000/svg">
  <path d="M 86 171.5  C 89.36 171.5  92 174.14  92 177.5  C 92 180.86  89.36 183.5  86 183.5  C 82.64 183.5  80 180.86  80 177.5  C 80 174.14  82.64 171.5  86 171.5  Z " fill-rule="nonzero" fill="#f0f0f0" stroke="none" />
  <path d="M 86 172  C 89.08 172  91.5 174.42  91.5 177.5  C 91.5 180.58  89.08 183  86 183  C 82.92 183  80.5 180.58  80.5 177.5  C 80.5 174.42  82.92 172  86 172  Z " stroke-width="1" stroke="#d7d7d7" fill="none" />
  <path d="M 86 180.5  C 84.32 180.5  83 179.18  83 177.5  C 83 175.82  84.32 174.5  86 174.5  C 87.68 174.5  89 175.82  89 177.5  C 89 179.18  87.68 180.5  86 180.5  " fill-rule="nonzero" fill="#d7d7d7" stroke="none" />
</svg>