<?xml version="1.0" encoding="utf-8"?>
<svg version="1.1" xmlns:xlink="http://www.w3.org/1999/xlink" width="12px" height="12px" viewBox="80 221.5  12 12" xmlns="http://www.w3.org/2000/svg">
  <path d="M 86 221.5  C 89.36 221.5  92 224.14  92 227.5  C 92 230.86  89.36 233.5  86 233.5  C 82.64 233.5  80 230.86  80 227.5  C 80 224.14  82.64 221.5  86 221.5  Z " fill-rule="nonzero" fill="#f0f0f0" stroke="none" />
  <path d="M 86 222  C 89.08 222  91.5 224.42  91.5 227.5  C 91.5 230.58  89.08 233  86 233  C 82.92 233  80.5 230.58  80.5 227.5  C 80.5 224.42  82.92 222  86 222  Z " stroke-width="1" stroke="#d7d7d7" fill="none" />
  <path d="M 86 230.5  C 84.32 230.5  83 229.18  83 227.5  C 83 225.82  84.32 224.5  86 224.5  C 87.68 224.5  89 225.82  89 227.5  C 89 229.18  87.68 230.5  86 230.5  " fill-rule="nonzero" fill="#d7d7d7" stroke="none" />
</svg>