<?xml version="1.0" encoding="utf-8"?>
<svg version="1.1" xmlns:xlink="http://www.w3.org/1999/xlink" width="455px" height="51px" xmlns="http://www.w3.org/2000/svg">
  <g transform="matrix(1 0 0 1 -201 -53 )">
    <path d="M 202 57  A 3 3 0 0 1 205 54 L 652 54  A 3 3 0 0 1 655 57 L 655 100  A 3 3 0 0 1 652 103 L 205 103  A 3 3 0 0 1 202 100 L 202 57  Z " fill-rule="nonzero" fill="#ff3399" stroke="none" fill-opacity="0.0980392156862745" />
    <path d="M 201.5 57  A 3.5 3.5 0 0 1 205 53.5 L 652 53.5  A 3.5 3.5 0 0 1 655.5 57 L 655.5 100  A 3.5 3.5 0 0 1 652 103.5 L 205 103.5  A 3.5 3.5 0 0 1 201.5 100 L 201.5 57  Z " stroke-width="1" stroke-dasharray="9,4" stroke="#ff3399" fill="none" stroke-dashoffset="0.5" />
  </g>
</svg>