<?xml version="1.0" encoding="utf-8"?>
<svg version="1.1" xmlns:xlink="http://www.w3.org/1999/xlink" width="167px" height="56px" xmlns="http://www.w3.org/2000/svg">
  <g transform="matrix(1 0 0 1 -216 -343 )">
    <path d="M 217 347  A 3 3 0 0 1 220 344 L 379 344  A 3 3 0 0 1 382 347 L 382 395  A 3 3 0 0 1 379 398 L 220 398  A 3 3 0 0 1 217 395 L 217 347  Z " fill-rule="nonzero" fill="#ff3399" stroke="none" fill-opacity="0.0980392156862745" />
    <path d="M 216.5 347  A 3.5 3.5 0 0 1 220 343.5 L 379 343.5  A 3.5 3.5 0 0 1 382.5 347 L 382.5 395  A 3.5 3.5 0 0 1 379 398.5 L 220 398.5  A 3.5 3.5 0 0 1 216.5 395 L 216.5 347  Z " stroke-width="1" stroke-dasharray="9,4" stroke="#ff3399" fill="none" stroke-dashoffset="0.5" />
  </g>
</svg>