<?xml version="1.0" encoding="utf-8"?>
<svg version="1.1" xmlns:xlink="http://www.w3.org/1999/xlink" width="99px" height="56px" xmlns="http://www.w3.org/2000/svg">
  <g transform="matrix(1 0 0 1 -354 -43 )">
    <path d="M 355 47  A 3 3 0 0 1 358 44 L 449 44  A 3 3 0 0 1 452 47 L 452 95  A 3 3 0 0 1 449 98 L 358 98  A 3 3 0 0 1 355 95 L 355 47  Z " fill-rule="nonzero" fill="#ff3399" stroke="none" fill-opacity="0.0980392156862745" />
    <path d="M 354.5 47  A 3.5 3.5 0 0 1 358 43.5 L 449 43.5  A 3.5 3.5 0 0 1 452.5 47 L 452.5 95  A 3.5 3.5 0 0 1 449 98.5 L 358 98.5  A 3.5 3.5 0 0 1 354.5 95 L 354.5 47  Z " stroke-width="1" stroke-dasharray="9,4" stroke="#ff3399" fill="none" stroke-dashoffset="0.5" />
  </g>
</svg>