<?xml version="1.0" encoding="utf-8"?>
<svg version="1.1" xmlns:xlink="http://www.w3.org/1999/xlink" width="13px" height="11px" xmlns="http://www.w3.org/2000/svg">
  <g transform="matrix(1 0 0 1 -145 -265 )">
    <path d="M 12.484375 2.515625  C 12.828125 2.859375  13 3.27083333333333  13 3.75  L 13 9.25  C 13 9.72916666666667  12.828125 10.140625  12.484375 10.484375  C 12.140625 10.828125  11.7291666666667 11  11.25 11  L 1.75 11  C 1.27083333333333 11  0.859375 10.828125  0.515625 10.484375  C 0.171875 10.140625  0 9.72916666666667  0 9.25  L 0 1.75  C 0 1.27083333333333  0.171875 0.859375  0.515625 0.515625  C 0.859375 0.171875  1.27083333333333 0  1.75 0  L 4.25 0  C 4.72916666666667 0  5.140625 0.171875  5.484375 0.515625  C 5.828125 0.859375  6 1.27083333333333  6 1.75  L 6 2  L 11.25 2  C 11.7291666666667 2  12.140625 2.171875  12.484375 2.515625  Z " fill-rule="nonzero" fill="#f59a23" stroke="none" fill-opacity="0.996078431372549" transform="matrix(1 0 0 1 145 265 )" />
  </g>
</svg>