<?xml version="1.0" encoding="utf-8"?>
<svg version="1.1" xmlns:xlink="http://www.w3.org/1999/xlink" width="27px" height="27px" xmlns="http://www.w3.org/2000/svg">
  <g transform="matrix(1 0 0 1 -679 -24 )">
    <path d="M 25.7379603399433 0  C 26.2733711048159 0  26.649433427762 0.249289772727274  26.8661473087819 0.747869318181818  C 27.0828611898017 1.27201704545454  26.9936260623229 1.71946022727273  26.5984419263456 2.09019886363636  L 17 11.5440340909091  L 17 25.7727272727273  C 17.171388101983 26.3096590909091  16.9228045325779 26.6867897727273  16.4256373937677 26.9041193181818  C 16.2599150141643 26.9680397727273  16.100566572238 27  15.9475920679887 27  C 15.6033994334278 27  15.3165722379603 26.8785511363636  15.0871104815864 26.6356534090909  L 10.1919263456091 21.7265625  C 9.94971671388102 21.4836647727273  9.828611898017 21.1960227272727  9.828611898017 20.8636363636364  L 9.828611898017 11.5440340909091  L 0.401558073654391 2.09019886363636  C 0.00637393767705382 1.71946022727273  -0.0828611898016997 1.27201704545454  0.13385269121813 0.747869318181818  C 0.35056657223796 0.249289772727274  0.726628895184136 0  1.26203966005666 0  L 25.7379603399433 0  Z " fill-rule="nonzero" fill="#02a7f0" stroke="none" transform="matrix(1 0 0 1 679 24 )" />
  </g>
</svg>