<?xml version="1.0" encoding="utf-8"?>
<svg version="1.1" xmlns:xlink="http://www.w3.org/1999/xlink" width="40px" height="40px" xmlns="http://www.w3.org/2000/svg">
  <g transform="matrix(1 0 0 1 -28 -23 )">
    <path d="M 29.7526041666667 16.9140625  C 29.9175347222222 17.0789930555556  30 17.2743055555556  30 17.5  L 30 22.5  C 30 22.7256944444444  29.9175347222222 22.9210069444444  29.7526041666667 23.0859375  C 29.5876736111111 23.2508680555556  29.3923611111111 23.3333333333333  29.1666666666667 23.3333333333333  L 20 23.3333333333333  L 20 28.3333333333333  C 20 28.5763888888889  19.921875 28.7760416666667  19.765625 28.9322916666667  C 19.609375 29.0885416666667  19.4097222222222 29.1666666666667  19.1666666666667 29.1666666666667  C 18.9583333333333 29.1666666666667  18.75 29.0798611111111  18.5416666666667 28.90625  L 10.234375 20.5989583333333  C 10.078125 20.4427083333333  10 20.2430555555556  10 20  C 10 19.7569444444444  10.078125 19.5572916666667  10.234375 19.4010416666667  L 18.5677083333333 11.0677083333333  C 18.7239583333333 10.9114583333333  18.9236111111111 10.8333333333333  19.1666666666667 10.8333333333333  C 19.3923611111111 10.8333333333333  19.5876736111111 10.9157986111111  19.7526041666667 11.0807291666667  C 19.9175347222222 11.2456597222222  20 11.4409722222222  20 11.6666666666667  L 20 16.6666666666667  L 29.1666666666667 16.6666666666667  C 29.3923611111111 16.6666666666667  29.5876736111111 16.7491319444444  29.7526041666667 16.9140625  Z M 32.265625 27.109375  C 33.5329861111111 24.9392361111111  34.1666666666667 22.5694444444444  34.1666666666667 20  C 34.1666666666667 17.4305555555556  33.5329861111111 15.0607638888889  32.265625 12.890625  C 30.9982638888889 10.7204861111111  29.2795138888889 9.00173611111111  27.109375 7.734375  C 24.9392361111111 6.46701388888889  22.5694444444444 5.83333333333333  20 5.83333333333333  C 17.4305555555556 5.83333333333333  15.0607638888889 6.46701388888889  12.890625 7.734375  C 10.7204861111111 9.00173611111111  9.00173611111111 10.7204861111111  7.734375 12.890625  C 6.46701388888889 15.0607638888889  5.83333333333333 17.4305555555556  5.83333333333333 20  C 5.83333333333333 22.5694444444444  6.46701388888889 24.9392361111111  7.734375 27.109375  C 9.00173611111111 29.2795138888889  10.7204861111111 30.9982638888889  12.890625 32.265625  C 15.0607638888889 33.5329861111111  17.4305555555556 34.1666666666667  20 34.1666666666667  C 22.5694444444444 34.1666666666667  24.9392361111111 33.5329861111111  27.109375 32.265625  C 29.2795138888889 30.9982638888889  30.9982638888889 29.2795138888889  32.265625 27.109375  Z M 37.3177083333333 9.9609375  C 39.1059027777778 13.0251736111111  40 16.3715277777778  40 20  C 40 23.6284722222222  39.1059027777778 26.9748263888889  37.3177083333333 30.0390625  C 35.5295138888889 33.1032986111111  33.1032986111111 35.5295138888889  30.0390625 37.3177083333333  C 26.9748263888889 39.1059027777778  23.6284722222222 40  20 40  C 16.3715277777778 40  13.0251736111111 39.1059027777778  9.9609375 37.3177083333333  C 6.89670138888889 35.5295138888889  4.47048611111111 33.1032986111111  2.68229166666667 30.0390625  C 0.894097222222222 26.9748263888889  0 23.6284722222222  0 20  C 0 16.3715277777778  0.894097222222222 13.0251736111111  2.68229166666667 9.9609375  C 4.47048611111111 6.89670138888889  6.89670138888889 4.47048611111111  9.9609375 2.68229166666667  C 13.0251736111111 0.894097222222219  16.3715277777778 0  20 0  C 23.6284722222222 0  26.9748263888889 0.894097222222219  30.0390625 2.68229166666667  C 33.1032986111111 4.47048611111111  35.5295138888889 6.89670138888889  37.3177083333333 9.9609375  Z " fill-rule="nonzero" fill="#000000" stroke="none" transform="matrix(1 0 0 1 28 23 )" />
  </g>
</svg>