<?xml version="1.0" encoding="utf-8"?>
<svg version="1.1" xmlns:xlink="http://www.w3.org/1999/xlink" width="150px" height="28px" xmlns="http://www.w3.org/2000/svg">
  <g transform="matrix(1 0 0 1 -90 -22 )">
    <path d="M 91 26  A 3 3 0 0 1 94 23 L 236 23  A 3 3 0 0 1 239 26 L 239 46  A 3 3 0 0 1 236 49 L 94 49  A 3 3 0 0 1 91 46 L 91 26  Z " fill-rule="nonzero" fill="#ff3399" stroke="none" fill-opacity="0.0980392156862745" />
    <path d="M 90.5 26  A 3.5 3.5 0 0 1 94 22.5 L 236 22.5  A 3.5 3.5 0 0 1 239.5 26 L 239.5 46  A 3.5 3.5 0 0 1 236 49.5 L 94 49.5  A 3.5 3.5 0 0 1 90.5 46 L 90.5 26  Z " stroke-width="1" stroke-dasharray="9,4" stroke="#ff3399" fill="none" stroke-dashoffset="0.5" />
  </g>
</svg>