<?xml version="1.0" encoding="utf-8"?>
<svg version="1.1" xmlns:xlink="http://www.w3.org/1999/xlink" width="8px" height="18px" xmlns="http://www.w3.org/2000/svg">
  <g transform="matrix(1 0 0 1 -76 -81 )">
    <path d="M 7.90649350649351 4.10416666666667  C 7.9965367965368 4.21527777777778  8.01385281385281 4.33680555555556  7.95844155844156 4.46875  C 7.8961038961039 4.60069444444444  7.795670995671 4.66666666666667  7.65714285714286 4.66666666666667  L 5.32987012987013 4.66666666666667  L 5.32987012987013 17.6666666666667  C 5.32987012987013 17.7638888888889  5.2987012987013 17.84375  5.23636363636364 17.90625  C 5.17402597402597 17.96875  5.09437229437229 18  4.9974025974026 18  L 3.0025974025974 18  C 2.90562770562771 18  2.82597402597403 17.96875  2.76363636363636 17.90625  C 2.7012987012987 17.84375  2.67012987012987 17.7638888888889  2.67012987012987 17.6666666666667  L 2.67012987012987 4.66666666666667  L 0.342857142857143 4.66666666666667  C 0.197402597402597 4.66666666666667  0.096969696969697 4.60069444444444  0.0415584415584416 4.46875  C -0.0138528138528139 4.33680555555556  0.00346320346320346 4.21527777777778  0.0935064935064935 4.10416666666667  L 3.72987012987013 0.104166666666668  C 3.7991341991342 0.0347222222222219  3.87878787878788 0  3.96883116883117 0  C 4.06580086580087 0  4.14891774891775 0.0347222222222219  4.21818181818182 0.104166666666668  L 7.90649350649351 4.10416666666667  Z " fill-rule="nonzero" fill="#02a7f0" stroke="none" transform="matrix(1 0 0 1 76 81 )" />
  </g>
</svg>