<?xml version="1.0" encoding="utf-8"?>
<svg version="1.1" xmlns:xlink="http://www.w3.org/1999/xlink" width="90px" height="42px" xmlns="http://www.w3.org/2000/svg">
  <g transform="matrix(1 0 0 1 -1044 -70 )">
    <path d="M 1045 74  A 3 3 0 0 1 1048 71 L 1130 71  A 3 3 0 0 1 1133 74 L 1133 108  A 3 3 0 0 1 1130 111 L 1048 111  A 3 3 0 0 1 1045 108 L 1045 74  Z " fill-rule="nonzero" fill="#ff3399" stroke="none" fill-opacity="0.0980392156862745" />
    <path d="M 1044.5 74  A 3.5 3.5 0 0 1 1048 70.5 L 1130 70.5  A 3.5 3.5 0 0 1 1133.5 74 L 1133.5 108  A 3.5 3.5 0 0 1 1130 111.5 L 1048 111.5  A 3.5 3.5 0 0 1 1044.5 108 L 1044.5 74  Z " stroke-width="1" stroke-dasharray="9,4" stroke="#ff3399" fill="none" stroke-dashoffset="0.5" />
  </g>
</svg>