<?xml version="1.0" encoding="utf-8"?>
<svg version="1.1" xmlns:xlink="http://www.w3.org/1999/xlink" width="111px" height="70px" xmlns="http://www.w3.org/2000/svg">
  <g transform="matrix(1 0 0 1 -184 -327 )">
    <path d="M 185 331  A 3 3 0 0 1 188 328 L 291 328  A 3 3 0 0 1 294 331 L 294 393  A 3 3 0 0 1 291 396 L 188 396  A 3 3 0 0 1 185 393 L 185 331  Z " fill-rule="nonzero" fill="#ff3399" stroke="none" fill-opacity="0.0980392156862745" />
    <path d="M 184.5 331  A 3.5 3.5 0 0 1 188 327.5 L 291 327.5  A 3.5 3.5 0 0 1 294.5 331 L 294.5 393  A 3.5 3.5 0 0 1 291 396.5 L 188 396.5  A 3.5 3.5 0 0 1 184.5 393 L 184.5 331  Z " stroke-width="1" stroke-dasharray="9,4" stroke="#ff3399" fill="none" stroke-dashoffset="0.5" />
  </g>
</svg>