<?xml version="1.0" encoding="utf-8"?>
<svg version="1.1" xmlns:xlink="http://www.w3.org/1999/xlink" width="269px" height="47px" xmlns="http://www.w3.org/2000/svg">
  <g transform="matrix(1 0 0 1 -196 -115 )">
    <path d="M 197 119  A 3 3 0 0 1 200 116 L 461 116  A 3 3 0 0 1 464 119 L 464 158  A 3 3 0 0 1 461 161 L 200 161  A 3 3 0 0 1 197 158 L 197 119  Z " fill-rule="nonzero" fill="#ff3399" stroke="none" fill-opacity="0.0980392156862745" />
    <path d="M 196.5 119  A 3.5 3.5 0 0 1 200 115.5 L 461 115.5  A 3.5 3.5 0 0 1 464.5 119 L 464.5 158  A 3.5 3.5 0 0 1 461 161.5 L 200 161.5  A 3.5 3.5 0 0 1 196.5 158 L 196.5 119  Z " stroke-width="1" stroke-dasharray="9,4" stroke="#ff3399" fill="none" stroke-dashoffset="0.5" />
  </g>
</svg>