<?xml version="1.0" encoding="utf-8"?>
<svg version="1.1" xmlns:xlink="http://www.w3.org/1999/xlink" width="173px" height="46px" xmlns="http://www.w3.org/2000/svg">
  <g transform="matrix(1 0 0 1 -211 -247 )">
    <path d="M 212 251  A 3 3 0 0 1 215 248 L 380 248  A 3 3 0 0 1 383 251 L 383 289  A 3 3 0 0 1 380 292 L 215 292  A 3 3 0 0 1 212 289 L 212 251  Z " fill-rule="nonzero" fill="#ff3399" stroke="none" fill-opacity="0.0980392156862745" />
    <path d="M 211.5 251  A 3.5 3.5 0 0 1 215 247.5 L 380 247.5  A 3.5 3.5 0 0 1 383.5 251 L 383.5 289  A 3.5 3.5 0 0 1 380 292.5 L 215 292.5  A 3.5 3.5 0 0 1 211.5 289 L 211.5 251  Z " stroke-width="1" stroke-dasharray="9,4" stroke="#ff3399" fill="none" stroke-dashoffset="0.5" />
  </g>
</svg>