<?xml version="1.0" encoding="utf-8"?>
<svg version="1.1" xmlns:xlink="http://www.w3.org/1999/xlink" width="181px" height="48px" xmlns="http://www.w3.org/2000/svg">
  <g transform="matrix(1 0 0 1 -46 -191 )">
    <path d="M 47 195  A 3 3 0 0 1 50 192 L 223 192  A 3 3 0 0 1 226 195 L 226 235  A 3 3 0 0 1 223 238 L 50 238  A 3 3 0 0 1 47 235 L 47 195  Z " fill-rule="nonzero" fill="#ff3399" stroke="none" fill-opacity="0.0980392156862745" />
    <path d="M 46.5 195  A 3.5 3.5 0 0 1 50 191.5 L 223 191.5  A 3.5 3.5 0 0 1 226.5 195 L 226.5 235  A 3.5 3.5 0 0 1 223 238.5 L 50 238.5  A 3.5 3.5 0 0 1 46.5 235 L 46.5 195  Z " stroke-width="1" stroke-dasharray="9,4" stroke="#ff3399" fill="none" stroke-dashoffset="0.5" />
  </g>
</svg>