<?xml version="1.0" encoding="utf-8"?>
<svg version="1.1" xmlns:xlink="http://www.w3.org/1999/xlink" width="240px" height="42px" xmlns="http://www.w3.org/2000/svg">
  <g transform="matrix(1 0 0 1 -930 -42 )">
    <path d="M 931 46  A 3 3 0 0 1 934 43 L 1166 43  A 3 3 0 0 1 1169 46 L 1169 80  A 3 3 0 0 1 1166 83 L 934 83  A 3 3 0 0 1 931 80 L 931 46  Z " fill-rule="nonzero" fill="#ff3399" stroke="none" fill-opacity="0.0980392156862745" />
    <path d="M 930.5 46  A 3.5 3.5 0 0 1 934 42.5 L 1166 42.5  A 3.5 3.5 0 0 1 1169.5 46 L 1169.5 80  A 3.5 3.5 0 0 1 1166 83.5 L 934 83.5  A 3.5 3.5 0 0 1 930.5 80 L 930.5 46  Z " stroke-width="1" stroke-dasharray="9,4" stroke="#ff3399" fill="none" stroke-dashoffset="0.5" />
  </g>
</svg>