<?xml version="1.0" encoding="utf-8"?>
<svg version="1.1" xmlns:xlink="http://www.w3.org/1999/xlink" width="12px" height="12px" viewBox="343 916.5  12 12" xmlns="http://www.w3.org/2000/svg">
  <path d="M 349 916.5  C 352.36 916.5  355 919.14  355 922.5  C 355 925.86  352.36 928.5  349 928.5  C 345.64 928.5  343 925.86  343 922.5  C 343 919.14  345.64 916.5  349 916.5  Z " fill-rule="nonzero" fill="#ffffff" stroke="none" />
  <path d="M 349 917  C 352.08 917  354.5 919.42  354.5 922.5  C 354.5 925.58  352.08 928  349 928  C 345.92 928  343.5 925.58  343.5 922.5  C 343.5 919.42  345.92 917  349 917  Z " stroke-width="1" stroke="#d7d7d7" fill="none" />
  <path d="M 349 925.5  C 347.32 925.5  346 924.18  346 922.5  C 346 920.82  347.32 919.5  349 919.5  C 350.68 919.5  352 920.82  352 922.5  C 352 924.18  350.68 925.5  349 925.5  " fill-rule="nonzero" fill="#d7d7d7" stroke="none" />
</svg>