<?xml version="1.0" encoding="utf-8"?>
<svg version="1.1" xmlns:xlink="http://www.w3.org/1999/xlink" width="313px" height="133px" xmlns="http://www.w3.org/2000/svg">
  <g transform="matrix(1 0 0 1 -717 -1608 )">
    <path d="M 718 1612  A 3 3 0 0 1 721 1609 L 1026 1609  A 3 3 0 0 1 1029 1612 L 1029 1737  A 3 3 0 0 1 1026 1740 L 721 1740  A 3 3 0 0 1 718 1737 L 718 1612  Z " fill-rule="nonzero" fill="#ff3399" stroke="none" fill-opacity="0.0980392156862745" />
    <path d="M 717.5 1612  A 3.5 3.5 0 0 1 721 1608.5 L 1026 1608.5  A 3.5 3.5 0 0 1 1029.5 1612 L 1029.5 1737  A 3.5 3.5 0 0 1 1026 1740.5 L 721 1740.5  A 3.5 3.5 0 0 1 717.5 1737 L 717.5 1612  Z " stroke-width="1" stroke-dasharray="9,4" stroke="#ff3399" fill="none" stroke-dashoffset="0.5" />
  </g>
</svg>