<?xml version="1.0" encoding="utf-8"?>
<svg version="1.1" xmlns:xlink="http://www.w3.org/1999/xlink" width="12px" height="12px" viewBox="269 285.5  12 12" xmlns="http://www.w3.org/2000/svg">
  <path d="M 275 285.5  C 278.36 285.5  281 288.14  281 291.5  C 281 294.86  278.36 297.5  275 297.5  C 271.64 297.5  269 294.86  269 291.5  C 269 288.14  271.64 285.5  275 285.5  Z " fill-rule="nonzero" fill="#f0f0f0" stroke="none" />
  <path d="M 275 286  C 278.08 286  280.5 288.42  280.5 291.5  C 280.5 294.58  278.08 297  275 297  C 271.92 297  269.5 294.58  269.5 291.5  C 269.5 288.42  271.92 286  275 286  Z " stroke-width="1" stroke="#d7d7d7" fill="none" />
  <path d="M 275 294.5  C 273.32 294.5  272 293.18  272 291.5  C 272 289.82  273.32 288.5  275 288.5  C 276.68 288.5  278 289.82  278 291.5  C 278 293.18  276.68 294.5  275 294.5  " fill-rule="nonzero" fill="#d7d7d7" stroke="none" />
</svg>