<?xml version="1.0" encoding="utf-8"?>
<svg version="1.1" xmlns:xlink="http://www.w3.org/1999/xlink" width="12px" height="12px" viewBox="269 781.5  12 12" xmlns="http://www.w3.org/2000/svg">
  <path d="M 275 781.5  C 278.36 781.5  281 784.14  281 787.5  C 281 790.86  278.36 793.5  275 793.5  C 271.64 793.5  269 790.86  269 787.5  C 269 784.14  271.64 781.5  275 781.5  Z " fill-rule="nonzero" fill="#ffffff" stroke="none" />
  <path d="M 275 782  C 278.08 782  280.5 784.42  280.5 787.5  C 280.5 790.58  278.08 793  275 793  C 271.92 793  269.5 790.58  269.5 787.5  C 269.5 784.42  271.92 782  275 782  Z " stroke-width="1" stroke="#d7d7d7" fill="none" />
  <path d="M 275 790.5  C 273.32 790.5  272 789.18  272 787.5  C 272 785.82  273.32 784.5  275 784.5  C 276.68 784.5  278 785.82  278 787.5  C 278 789.18  276.68 790.5  275 790.5  " fill-rule="nonzero" fill="#d7d7d7" stroke="none" />
</svg>