<?xml version="1.0" encoding="utf-8"?>
<svg version="1.1" xmlns:xlink="http://www.w3.org/1999/xlink" width="12px" height="12px" viewBox="309 1268.5  12 12" xmlns="http://www.w3.org/2000/svg">
  <path d="M 315 1268.5  C 318.36 1268.5  321 1271.14  321 1274.5  C 321 1277.86  318.36 1280.5  315 1280.5  C 311.64 1280.5  309 1277.86  309 1274.5  C 309 1271.14  311.64 1268.5  315 1268.5  Z " fill-rule="nonzero" fill="#ffffff" stroke="none" />
  <path d="M 315 1269  C 318.08 1269  320.5 1271.42  320.5 1274.5  C 320.5 1277.58  318.08 1280  315 1280  C 311.92 1280  309.5 1277.58  309.5 1274.5  C 309.5 1271.42  311.92 1269  315 1269  Z " stroke-width="1" stroke="#d7d7d7" fill="none" />
  <path d="M 315 1277.5  C 313.32 1277.5  312 1276.18  312 1274.5  C 312 1272.82  313.32 1271.5  315 1271.5  C 316.68 1271.5  318 1272.82  318 1274.5  C 318 1276.18  316.68 1277.5  315 1277.5  " fill-rule="nonzero" fill="#d7d7d7" stroke="none" />
</svg>