<?xml version="1.0" encoding="utf-8"?>
<svg version="1.1" xmlns:xlink="http://www.w3.org/1999/xlink" width="7px" height="7px" xmlns="http://www.w3.org/2000/svg">
  <g transform="matrix(1 0 0 1 -421 -177 )">
    <path d="M 5.76953125 2.966796875  C 5.82421875 2.912109375  5.8515625 2.84375  5.8515625 2.76171875  C 5.8515625 2.67664930555556  5.82421875 2.60677083333333  5.76953125 2.55208333333333  L 5.35481770833333 2.14192708333333  C 5.29709201388889 2.08420138888889  5.22873263888889 2.05533854166667  5.14973958333333 2.05533854166667  C 5.07074652777778 2.05533854166667  5.00238715277778 2.08420138888889  4.94466145833333 2.14192708333333  L 3.08528645833333 3.99674479166667  L 2.05533854166667 2.966796875  C 1.99761284722222 2.90907118055556  1.92925347222222 2.88020833333333  1.85026041666667 2.88020833333333  C 1.77126736111111 2.88020833333333  1.70290798611111 2.90907118055556  1.64518229166667 2.966796875  L 1.23046875 3.376953125  C 1.17578125 3.431640625  1.1484375 3.50151909722222  1.1484375 3.58658854166667  C 1.1484375 3.66861979166667  1.17578125 3.73697916666667  1.23046875 3.79166666666667  L 2.88020833333333 5.44140625  C 2.93793402777778 5.49913194444444  3.00629340277778 5.52799479166667  3.08528645833333 5.52799479166667  C 3.16731770833333 5.52799479166667  3.23719618055556 5.49913194444444  3.294921875 5.44140625  L 5.76953125 2.966796875  Z M 6.53059895833333 1.7431640625  C 6.84353298611111 2.27940538194444  7 2.86501736111111  7 3.5  C 7 4.13498263888889  6.84353298611111 4.72059461805555  6.53059895833333 5.2568359375  C 6.21766493055556 5.79307725694444  5.79307725694444 6.21766493055556  5.2568359375 6.53059895833333  C 4.72059461805556 6.84353298611111  4.13498263888889 7  3.5 7  C 2.86501736111111 7  2.27940538194444 6.84353298611111  1.7431640625 6.53059895833333  C 1.20692274305556 6.21766493055556  0.782335069444445 5.79307725694444  0.469401041666667 5.2568359375  C 0.156467013888889 4.72059461805555  0 4.13498263888889  0 3.5  C 0 2.86501736111111  0.156467013888889 2.27940538194444  0.469401041666667 1.7431640625  C 0.782335069444445 1.20692274305556  1.20692274305556 0.782335069444444  1.7431640625 0.469401041666666  C 2.27940538194444 0.156467013888888  2.86501736111111 0  3.5 0  C 4.13498263888889 0  4.72059461805556 0.156467013888888  5.2568359375 0.469401041666666  C 5.79307725694444 0.782335069444444  6.21766493055556 1.20692274305556  6.53059895833333 1.7431640625  Z " fill-rule="nonzero" fill="#70b603" stroke="none" transform="matrix(1 0 0 1 421 177 )" />
  </g>
</svg>