<?xml version="1.0" encoding="utf-8"?>
<svg version="1.1" xmlns:xlink="http://www.w3.org/1999/xlink" width="68px" height="96px" xmlns="http://www.w3.org/2000/svg">
  <g transform="matrix(1 0 0 1 -441 -226 )">
    <path d="M 442 230  A 3 3 0 0 1 445 227 L 505 227  A 3 3 0 0 1 508 230 L 508 318  A 3 3 0 0 1 505 321 L 445 321  A 3 3 0 0 1 442 318 L 442 230  Z " fill-rule="nonzero" fill="#ff3399" stroke="none" fill-opacity="0.0980392156862745" />
    <path d="M 441.5 230  A 3.5 3.5 0 0 1 445 226.5 L 505 226.5  A 3.5 3.5 0 0 1 508.5 230 L 508.5 318  A 3.5 3.5 0 0 1 505 321.5 L 445 321.5  A 3.5 3.5 0 0 1 441.5 318 L 441.5 230  Z " stroke-width="1" stroke-dasharray="9,4" stroke="#ff3399" fill="none" stroke-dashoffset="0.5" />
  </g>
</svg>