<?xml version="1.0" encoding="utf-8"?>
<svg version="1.1" xmlns:xlink="http://www.w3.org/1999/xlink" width="16px" height="7px" xmlns="http://www.w3.org/2000/svg">
  <g transform="matrix(1 0 0 1 -8 -16 )">
    <path d="M 15.9166666666667 2.41222366710013  C 15.9722222222222 2.4668400520156  16 2.53662765496316  16 2.62158647594278  L 16 4.36931079323797  C 16 4.4542696142176  15.9722222222222 4.52405721716515  15.9166666666667 4.57867360208062  C 15.8611111111111 4.6332899869961  15.7901234567901 4.66059817945384  15.7037037037037 4.66059817945384  L 4.14814814814815 4.66059817945384  L 4.14814814814815 6.69960988296489  C 4.14814814814815 6.82704811443433  4.08950617283951 6.91504117902037  3.97222222222222 6.96358907672302  C 3.85493827160494 7.01213697442566  3.74691358024691 6.99696575639359  3.64814814814815 6.91807542262679  L 0.0925925925925926 3.73211963589077  C 0.0308641975308643 3.67143476376246  0 3.60164716081491  0 3.52275682704811  C 0 3.43779800606849  0.0308641975308643 3.36497615951452  0.0925925925925926 3.30429128738622  L 3.64814814814815 0.0819245773732121  C 3.74691358024691 -0.00303424360641702  3.85493827160494 -0.0212397052449083  3.97222222222222 0.0273081924577376  C 4.08950617283951 0.0819245773732121  4.14814814814815 0.169917641959254  4.14814814814815 0.291287386215864  L 4.14814814814815 2.33029908972692  L 15.7037037037037 2.33029908972692  C 15.7901234567901 2.33029908972692  15.8611111111111 2.35760728218466  15.9166666666667 2.41222366710013  Z " fill-rule="nonzero" fill="#02a7f0" stroke="none" transform="matrix(1 0 0 1 8 16 )" />
  </g>
</svg>