<?xml version="1.0" encoding="utf-8"?>
<svg version="1.1" xmlns:xlink="http://www.w3.org/1999/xlink" width="16px" height="7px" xmlns="http://www.w3.org/2000/svg">
  <g transform="matrix(1 0 0 1 -36 -16 )">
    <path d="M 15.9074074074074 3.26788036410923  C 15.9691358024691 3.32856523623754  16 3.39835283918509  16 3.47724317295189  C 16 3.56220199393151  15.9691358024691 3.63502384048548  15.9074074074074 3.69570871261378  L 12.3518518518519 6.91807542262679  C 12.2530864197531 7.00303424360641  12.1450617283951 7.02123970524491  12.0277777777778 6.97269180754226  C 11.9104938271605 6.91807542262679  11.8518518518519 6.83008235804074  11.8518518518519 6.70871261378414  L 11.8518518518519 4.66970091027308  L 0.296296296296296 4.66970091027308  C 0.209876543209877 4.66970091027308  0.138888888888889 4.64239271781535  0.0833333333333333 4.58777633289987  C 0.0277777777777778 4.5331599479844  0 4.46337234503684  0 4.37841352405722  L 0 2.63068920676203  C 0 2.5457303857824  0.0277777777777778 2.47594278283485  0.0833333333333333 2.42132639791938  C 0.138888888888889 2.3667100130039  0.209876543209877 2.33940182054616  0.296296296296296 2.33940182054616  L 11.8518518518519 2.33940182054616  L 11.8518518518519 0.300390117035111  C 11.8518518518519 0.17295188556567  11.9104938271605 0.0849588209796268  12.0277777777778 0.0364109232769833  C 12.1450617283951 -0.0121369744256619  12.2530864197531 0.00303424360641469  12.3518518518519 0.0819245773732121  L 15.9074074074074 3.26788036410923  Z " fill-rule="nonzero" fill="#02a7f0" stroke="none" transform="matrix(1 0 0 1 36 16 )" />
  </g>
</svg>