<?xml version="1.0" encoding="utf-8"?>
<svg version="1.1" xmlns:xlink="http://www.w3.org/1999/xlink" width="12px" height="14px" xmlns="http://www.w3.org/2000/svg">
  <g transform="matrix(1 0 0 1 -875 -42 )">
    <path d="M 11.75 1  L 11 1  C 11 2.359375  10.72265625 3.56119791666667  10.16796875 4.60546875  C 9.61328125 5.64973958333333  8.91927083333333 6.44791666666667  8.0859375 7  C 8.91927083333333 7.55208333333333  9.61328125 8.35026041666667  10.16796875 9.39453125  C 10.72265625 10.4388020833333  11 11.640625  11 13  L 11.75 13  C 11.8229166666667 13  11.8828125 13.0234375  11.9296875 13.0703125  C 11.9765625 13.1171875  12 13.1770833333333  12 13.25  L 12 13.75  C 12 13.8229166666667  11.9765625 13.8828125  11.9296875 13.9296875  C 11.8828125 13.9765625  11.8229166666667 14  11.75 14  L 0.25 14  C 0.177083333333333 14  0.1171875 13.9765625  0.0703125 13.9296875  C 0.0234375 13.8828125  0 13.8229166666667  0 13.75  L 0 13.25  C 0 13.1770833333333  0.0234375 13.1171875  0.0703125 13.0703125  C 0.1171875 13.0234375  0.177083333333333 13  0.25 13  L 1 13  C 1 11.640625  1.27734375 10.4388020833333  1.83203125 9.39453125  C 2.38671875 8.35026041666667  3.08072916666667 7.55208333333333  3.9140625 7  C 3.08072916666667 6.44791666666667  2.38671875 5.64973958333333  1.83203125 4.60546875  C 1.27734375 3.56119791666667  1 2.359375  1 1  L 0.25 1  C 0.177083333333333 1  0.1171875 0.9765625  0.0703125 0.9296875  C 0.0234375 0.8828125  0 0.822916666666666  0 0.75  L 0 0.250000000000001  C 0 0.177083333333332  0.0234375 0.1171875  0.0703125 0.0703124999999996  C 0.1171875 0.0234374999999993  0.177083333333333 0  0.25 0  L 11.75 0  C 11.8229166666667 0  11.8828125 0.0234374999999993  11.9296875 0.0703124999999996  C 11.9765625 0.1171875  12 0.177083333333332  12 0.250000000000001  L 12 0.75  C 12 0.822916666666666  11.9765625 0.8828125  11.9296875 0.9296875  C 11.8828125 0.9765625  11.8229166666667 1  11.75 1  Z M 9.9296875 2  C 9.9765625 1.68229166666667  10 1.34895833333333  10 1  L 2 1  C 2 1.34375  2.0234375 1.67708333333333  2.0703125 2  L 9.9296875 2  Z M 2 13  L 10 13  C 10 12.3229166666667  9.91145833333333 11.6731770833333  9.734375 11.05078125  C 9.55729166666667 10.4283854166667  9.32161458333333 9.88671875  9.02734375 9.42578125  C 8.73307291666667 8.96484375  8.40364583333333 8.56901041666667  8.0390625 8.23828125  C 7.67447916666667 7.90755208333333  7.29427083333333 7.66145833333333  6.8984375 7.5  L 5.1015625 7.5  C 4.70572916666667 7.66145833333333  4.32552083333333 7.90755208333333  3.9609375 8.23828125  C 3.59635416666667 8.56901041666667  3.26692708333333 8.96484375  2.97265625 9.42578125  C 2.67838541666667 9.88671875  2.44270833333333 10.4283854166667  2.265625 11.05078125  C 2.08854166666667 11.6731770833333  2 12.3229166666667  2 13  Z " fill-rule="nonzero" fill="#02a7f0" stroke="none" transform="matrix(1 0 0 1 875 42 )" />
  </g>
</svg>