<?xml version="1.0" encoding="utf-8"?>
<svg version="1.1" xmlns:xlink="http://www.w3.org/1999/xlink" width="14px" height="14px" xmlns="http://www.w3.org/2000/svg">
  <g transform="matrix(1 0 0 1 -798 -41 )">
    <path d="M 10.08984375 8.45833333333333  C 10.08984375 8.53732638888889  10.0594618055556 8.60720486111111  9.99869791666667 8.66796875  L 8.66796875 9.99869791666667  C 8.60720486111111 10.0594618055556  8.53732638888889 10.08984375  8.45833333333333 10.08984375  C 8.37934027777778 10.08984375  8.30946180555556 10.0594618055556  8.24869791666667 9.99869791666667  L 7 8.75  L 5.75130208333333 9.99869791666667  C 5.69053819444444 10.0594618055556  5.62065972222222 10.08984375  5.54166666666667 10.08984375  C 5.46267361111111 10.08984375  5.39279513888889 10.0594618055556  5.33203125 9.99869791666667  L 4.00130208333333 8.66796875  C 3.94053819444444 8.60720486111111  3.91015625 8.53732638888889  3.91015625 8.45833333333333  C 3.91015625 8.37934027777778  3.94053819444444 8.30946180555556  4.00130208333333 8.24869791666667  L 5.25 7  L 4.00130208333333 5.75130208333333  C 3.94053819444444 5.69053819444444  3.91015625 5.62065972222222  3.91015625 5.54166666666667  C 3.91015625 5.46267361111111  3.94053819444444 5.39279513888889  4.00130208333333 5.33203125  L 5.33203125 4.00130208333333  C 5.39279513888889 3.94053819444444  5.46267361111111 3.91015625  5.54166666666667 3.91015625  C 5.62065972222222 3.91015625  5.69053819444444 3.94053819444444  5.75130208333333 4.00130208333333  L 7 5.25  L 8.24869791666667 4.00130208333333  C 8.30946180555556 3.94053819444444  8.37934027777778 3.91015625  8.45833333333333 3.91015625  C 8.53732638888889 3.91015625  8.60720486111111 3.94053819444444  8.66796875 4.00130208333333  L 9.99869791666667 5.33203125  C 10.0594618055556 5.39279513888889  10.08984375 5.46267361111111  10.08984375 5.54166666666667  C 10.08984375 5.62065972222222  10.0594618055556 5.69053819444444  9.99869791666667 5.75130208333333  L 8.75 7  L 9.99869791666667 8.24869791666667  C 10.0594618055556 8.30946180555556  10.08984375 8.37934027777778  10.08984375 8.45833333333333  Z M 11.29296875 9.48828125  C 11.7365451388889 8.72873263888889  11.9583333333333 7.89930555555556  11.9583333333333 7  C 11.9583333333333 6.10069444444444  11.7365451388889 5.27126736111111  11.29296875 4.51171875  C 10.8493923611111 3.75217013888889  10.2478298611111 3.15060763888889  9.48828125 2.70703125  C 8.72873263888889 2.26345486111111  7.89930555555556 2.04166666666667  7 2.04166666666667  C 6.10069444444444 2.04166666666667  5.27126736111111 2.26345486111111  4.51171875 2.70703125  C 3.75217013888889 3.15060763888889  3.15060763888889 3.75217013888889  2.70703125 4.51171875  C 2.26345486111111 5.27126736111111  2.04166666666667 6.10069444444444  2.04166666666667 7  C 2.04166666666667 7.89930555555556  2.26345486111111 8.72873263888889  2.70703125 9.48828125  C 3.15060763888889 10.2478298611111  3.75217013888889 10.8493923611111  4.51171875 11.29296875  C 5.27126736111111 11.7365451388889  6.10069444444444 11.9583333333333  7 11.9583333333333  C 7.89930555555556 11.9583333333333  8.72873263888889 11.7365451388889  9.48828125 11.29296875  C 10.2478298611111 10.8493923611111  10.8493923611111 10.2478298611111  11.29296875 9.48828125  Z M 13.0611979166667 3.486328125  C 13.6870659722222 4.55881076388889  14 5.73003472222222  14 7  C 14 8.26996527777778  13.6870659722222 9.44118923611111  13.0611979166667 10.513671875  C 12.4353298611111 11.5861545138889  11.5861545138889 12.4353298611111  10.513671875 13.0611979166667  C 9.44118923611111 13.6870659722222  8.26996527777778 14  7 14  C 5.73003472222222 14  4.55881076388889 13.6870659722222  3.486328125 13.0611979166667  C 2.41384548611111 12.4353298611111  1.56467013888889 11.5861545138889  0.938802083333333 10.513671875  C 0.312934027777778 9.44118923611111  0 8.26996527777778  0 7  C 0 5.73003472222222  0.312934027777778 4.55881076388889  0.938802083333333 3.486328125  C 1.56467013888889 2.41384548611111  2.41384548611111 1.56467013888889  3.486328125 0.938802083333333  C 4.55881076388889 0.312934027777777  5.73003472222222 0  7 0  C 8.26996527777778 0  9.44118923611111 0.312934027777777  10.513671875 0.938802083333333  C 11.5861545138889 1.56467013888889  12.4353298611111 2.41384548611111  13.0611979166667 3.486328125  Z " fill-rule="nonzero" fill="#d9001b" stroke="none" transform="matrix(1 0 0 1 798 41 )" />
  </g>
</svg>