<?xml version="1.0" encoding="utf-8"?>
<svg version="1.1" xmlns:xlink="http://www.w3.org/1999/xlink" width="14px" height="13px" xmlns="http://www.w3.org/2000/svg">
  <g transform="matrix(1 0 0 1 -719 -42 )">
    <path d="M 7.92371937639198 10.92578125  C 7.97308834446919 10.8763020833333  7.99777282850779 10.8151041666667  7.99777282850779 10.7421875  L 7.99777282850779 9.2578125  C 7.99777282850779 9.18489583333333  7.97308834446919 9.12369791666667  7.92371937639198 9.07421875  C 7.87435040831477 9.02473958333333  7.8158871566444 9  7.74832962138085 9  L 6.25167037861915 9  C 6.18411284335561 9  6.12564959168523 9.02473958333333  6.07628062360802 9.07421875  C 6.02691165553081 9.12369791666667  6.0022271714922 9.18489583333333  6.0022271714922 9.2578125  L 6.0022271714922 10.7421875  C 6.0022271714922 10.8151041666667  6.02691165553081 10.8763020833333  6.07628062360802 10.92578125  C 6.12564959168523 10.9752604166667  6.18411284335561 11  6.25167037861915 11  L 7.74832962138085 11  C 7.8158871566444 11  7.87435040831477 10.9752604166667  7.92371937639198 10.92578125  Z M 7.90033407572383 7.94921875  C 7.94970304380104 7.91536458333333  7.97698589458055 7.87239583333333  7.98218262806236 7.8203125  L 8.12249443207127 4.234375  C 8.12249443207127 4.171875  8.09651076466221 4.12239583333333  8.0445434298441 4.0859375  C 7.97698589458055 4.02864583333333  7.91462509279881 4  7.85746102449889 4  L 6.14253897550111 4  C 6.08537490720119 4  6.02301410541945 4.02864583333333  5.9554565701559 4.0859375  C 5.90348923533779 4.12239583333333  5.87750556792873 4.17708333333333  5.87750556792873 4.25  L 6.01002227171492 7.8203125  C 6.01002227171492 7.87239583333333  6.03600593912398 7.91536458333333  6.08797327394209 7.94921875  C 6.13994060876021 7.98307291666667  6.20230141054195 8  6.2750556792873 8  L 7.71714922048998 8  C 7.78990348923534 8  7.85096510764662 7.98307291666667  7.90033407572383 7.94921875  Z M 7.50668151447661 0.140625  C 7.66258351893096 0.234375  7.78470675575353 0.361979166666666  7.87305122494432 0.523437500000001  L 13.8596881959911 11.5234375  C 14.0415738678545 11.8515625  14.0363771343727 12.1796875  13.8440979955457 12.5078125  C 13.7557535263549 12.6588541666667  13.6349294729027 12.7786458333333  13.4816258351893 12.8671875  C 13.3283221974759 12.9557291666667  13.1633259094284 13  12.9866369710468 13  L 1.01336302895323 13  C 0.836674090571641 13  0.671677802524128 12.9557291666667  0.51837416481069 12.8671875  C 0.365070527097253 12.7786458333333  0.244246473645137 12.6588541666667  0.155902004454343 12.5078125  C -0.03637713437268 12.1796875  -0.0415738678544915 11.8515625  0.140311804008909 11.5234375  L 6.12694877505568 0.523437500000001  C 6.21529324424647 0.361979166666666  6.33741648106904 0.234375  6.49331848552339 0.140625  C 6.64922048997773 0.0468750000000006  6.8181143281366 0  7 0  C 7.1818856718634 0  7.35077951002227 0.0468750000000006  7.50668151447661 0.140625  Z " fill-rule="nonzero" fill="#f59a23" stroke="none" transform="matrix(1 0 0 1 719 42 )" />
  </g>
</svg>