<?xml version="1.0" encoding="utf-8"?>
<svg version="1.1" xmlns:xlink="http://www.w3.org/1999/xlink" width="239px" height="35px" xmlns="http://www.w3.org/2000/svg">
  <g transform="matrix(1 0 0 1 -85 -117 )">
    <path d="M 86 121  A 3 3 0 0 1 89 118 L 320 118  A 3 3 0 0 1 323 121 L 323 148  A 3 3 0 0 1 320 151 L 89 151  A 3 3 0 0 1 86 148 L 86 121  Z " fill-rule="nonzero" fill="#ff3399" stroke="none" fill-opacity="0.0980392156862745" />
    <path d="M 85.5 121  A 3.5 3.5 0 0 1 89 117.5 L 320 117.5  A 3.5 3.5 0 0 1 323.5 121 L 323.5 148  A 3.5 3.5 0 0 1 320 151.5 L 89 151.5  A 3.5 3.5 0 0 1 85.5 148 L 85.5 121  Z " stroke-width="1" stroke-dasharray="9,4" stroke="#ff3399" fill="none" stroke-dashoffset="0.5" />
  </g>
</svg>