<?xml version="1.0" encoding="utf-8"?>
<svg version="1.1" xmlns:xlink="http://www.w3.org/1999/xlink" width="11px" height="24px" xmlns="http://www.w3.org/2000/svg">
  <g transform="matrix(1 0 0 1 -309 -70 )">
    <path d="M 10.8714285714286 5.47222222222222  C 10.9952380952381 5.62037037037037  11.0190476190476 5.78240740740741  10.9428571428571 5.95833333333333  C 10.8571428571429 6.13425925925926  10.7190476190476 6.22222222222222  10.5285714285714 6.22222222222222  L 7.32857142857143 6.22222222222222  L 7.32857142857143 23.5555555555556  C 7.32857142857143 23.6851851851852  7.28571428571429 23.7916666666667  7.2 23.875  C 7.11428571428571 23.9583333333333  7.0047619047619 24  6.87142857142857 24  L 4.12857142857143 24  C 3.9952380952381 24  3.88571428571429 23.9583333333333  3.8 23.875  C 3.71428571428571 23.7916666666667  3.67142857142857 23.6851851851852  3.67142857142857 23.5555555555556  L 3.67142857142857 6.22222222222222  L 0.471428571428571 6.22222222222222  C 0.271428571428571 6.22222222222222  0.133333333333333 6.13425925925926  0.0571428571428571 5.95833333333333  C -0.0190476190476191 5.78240740740741  0.00476190476190475 5.62037037037037  0.128571428571429 5.47222222222222  L 5.12857142857143 0.13888888888889  C 5.22380952380952 0.0462962962962958  5.33333333333333 0  5.45714285714286 0  C 5.59047619047619 0  5.7047619047619 0.0462962962962958  5.8 0.13888888888889  L 10.8714285714286 5.47222222222222  Z " fill-rule="nonzero" fill="#000000" stroke="none" transform="matrix(1 0 0 1 309 70 )" />
  </g>
</svg>