<?xml version="1.0" encoding="utf-8"?>
<svg version="1.1" xmlns:xlink="http://www.w3.org/1999/xlink" width="169px" height="37px" xmlns="http://www.w3.org/2000/svg">
  <g transform="matrix(1 0 0 1 -368 -212 )">
    <path d="M 369 216  A 3 3 0 0 1 372 213 L 533 213  A 3 3 0 0 1 536 216 L 536 245  A 3 3 0 0 1 533 248 L 372 248  A 3 3 0 0 1 369 245 L 369 216  Z " fill-rule="nonzero" fill="#ff3399" stroke="none" fill-opacity="0.0980392156862745" />
    <path d="M 368.5 216  A 3.5 3.5 0 0 1 372 212.5 L 533 212.5  A 3.5 3.5 0 0 1 536.5 216 L 536.5 245  A 3.5 3.5 0 0 1 533 248.5 L 372 248.5  A 3.5 3.5 0 0 1 368.5 245 L 368.5 216  Z " stroke-width="1" stroke-dasharray="9,4" stroke="#ff3399" fill="none" stroke-dashoffset="0.5" />
  </g>
</svg>