<?xml version="1.0" encoding="utf-8"?>
<svg version="1.1" xmlns:xlink="http://www.w3.org/1999/xlink" width="270px" height="70px" xmlns="http://www.w3.org/2000/svg">
  <g transform="matrix(1 0 0 1 -335 -85 )">
    <path d="M 336 89  A 3 3 0 0 1 339 86 L 601 86  A 3 3 0 0 1 604 89 L 604 151  A 3 3 0 0 1 601 154 L 339 154  A 3 3 0 0 1 336 151 L 336 89  Z " fill-rule="nonzero" fill="#ff3399" stroke="none" fill-opacity="0.0980392156862745" />
    <path d="M 335.5 89  A 3.5 3.5 0 0 1 339 85.5 L 601 85.5  A 3.5 3.5 0 0 1 604.5 89 L 604.5 151  A 3.5 3.5 0 0 1 601 154.5 L 339 154.5  A 3.5 3.5 0 0 1 335.5 151 L 335.5 89  Z " stroke-width="1" stroke-dasharray="9,4" stroke="#ff3399" fill="none" stroke-dashoffset="0.5" />
  </g>
</svg>