<?xml version="1.0" encoding="utf-8"?>
<svg version="1.1" xmlns:xlink="http://www.w3.org/1999/xlink" width="12px" height="12px" viewBox="269 247.5  12 12" xmlns="http://www.w3.org/2000/svg">
  <path d="M 275 247.5  C 278.36 247.5  281 250.14  281 253.5  C 281 256.86  278.36 259.5  275 259.5  C 271.64 259.5  269 256.86  269 253.5  C 269 250.14  271.64 247.5  275 247.5  Z " fill-rule="nonzero" fill="#f0f0f0" stroke="none" />
  <path d="M 275 248  C 278.08 248  280.5 250.42  280.5 253.5  C 280.5 256.58  278.08 259  275 259  C 271.92 259  269.5 256.58  269.5 253.5  C 269.5 250.42  271.92 248  275 248  Z " stroke-width="1" stroke="#d7d7d7" fill="none" />
  <path d="M 275 256.5  C 273.32 256.5  272 255.18  272 253.5  C 272 251.82  273.32 250.5  275 250.5  C 276.68 250.5  278 251.82  278 253.5  C 278 255.18  276.68 256.5  275 256.5  " fill-rule="nonzero" fill="#d7d7d7" stroke="none" />
</svg>