<?xml version="1.0" encoding="utf-8"?>
<svg version="1.1" xmlns:xlink="http://www.w3.org/1999/xlink" width="24px" height="21px" xmlns="http://www.w3.org/2000/svg">
  <g transform="matrix(1 0 0 1 -360 -82 )">
    <path d="M 23.0480769230769 4.80255681818182  C 23.6826923076923 5.45880681818182  24 6.24431818181818  24 7.15909090909091  L 24 17.6590909090909  C 24 18.5738636363636  23.6826923076923 19.359375  23.0480769230769 20.015625  C 22.4134615384615 20.671875  21.6538461538462 21  20.7692307692308 21  L 3.23076923076923 21  C 2.34615384615385 21  1.58653846153846 20.671875  0.951923076923077 20.015625  C 0.317307692307692 19.359375  0 18.5738636363636  0 17.6590909090909  L 0 3.34090909090909  C 0 2.42613636363636  0.317307692307692 1.640625  0.951923076923077 0.984375  C 1.58653846153846 0.328125  2.34615384615385 0  3.23076923076923 0  L 7.84615384615385 0  C 8.73076923076923 0  9.49038461538462 0.328125  10.125 0.984375  C 10.7596153846154 1.640625  11.0769230769231 2.42613636363636  11.0769230769231 3.34090909090909  L 11.0769230769231 3.81818181818182  L 20.7692307692308 3.81818181818182  C 21.6538461538462 3.81818181818182  22.4134615384615 4.14630681818182  23.0480769230769 4.80255681818182  Z " fill-rule="nonzero" fill="#f59a23" stroke="none" transform="matrix(1 0 0 1 360 82 )" />
  </g>
</svg>