<?xml version="1.0" encoding="utf-8"?>
<svg version="1.1" xmlns:xlink="http://www.w3.org/1999/xlink" width="351px" height="40px" xmlns="http://www.w3.org/2000/svg">
  <g transform="matrix(1 0 0 1 -319 -495 )">
    <path d="M 320 499  A 3 3 0 0 1 323 496 L 666 496  A 3 3 0 0 1 669 499 L 669 531  A 3 3 0 0 1 666 534 L 323 534  A 3 3 0 0 1 320 531 L 320 499  Z " fill-rule="nonzero" fill="#ff3399" stroke="none" fill-opacity="0.0980392156862745" />
    <path d="M 319.5 499  A 3.5 3.5 0 0 1 323 495.5 L 666 495.5  A 3.5 3.5 0 0 1 669.5 499 L 669.5 531  A 3.5 3.5 0 0 1 666 534.5 L 323 534.5  A 3.5 3.5 0 0 1 319.5 531 L 319.5 499  Z " stroke-width="1" stroke-dasharray="9,4" stroke="#ff3399" fill="none" stroke-dashoffset="0.5" />
  </g>
</svg>