<?xml version="1.0" encoding="utf-8"?>
<svg version="1.1" xmlns:xlink="http://www.w3.org/1999/xlink" width="17px" height="17px" xmlns="http://www.w3.org/2000/svg">
  <g transform="matrix(1 0 0 1 -736 -302 )">
    <path d="M 16.7897135416667 0.210286458333333  C 16.9299045138889 0.350477430555553  17 0.516493055555553  17 0.708333333333333  L 17 16.2916666666667  C 17 16.4835069444444  16.9299045138889 16.6495225694444  16.7897135416667 16.7897135416667  C 16.6495225694444 16.9299045138889  16.4835069444444 17  16.2916666666667 17  L 0.708333333333333 17  C 0.516493055555556 17  0.350477430555556 16.9299045138889  0.210286458333333 16.7897135416667  C 0.0700954861111111 16.6495225694444  0 16.4835069444444  0 16.2916666666667  L 0 0.708333333333333  C 0 0.516493055555553  0.0700954861111111 0.350477430555553  0.210286458333333 0.210286458333333  C 0.350477430555556 0.0700954861111103  0.516493055555556 0  0.708333333333333 0  L 16.2916666666667 0  C 16.4835069444444 0  16.6495225694444 0.0700954861111103  16.7897135416667 0.210286458333333  Z " fill-rule="nonzero" fill="#d9001b" stroke="none" transform="matrix(1 0 0 1 736 302 )" />
  </g>
</svg>