<?xml version="1.0" encoding="utf-8"?>
<svg version="1.1" xmlns:xlink="http://www.w3.org/1999/xlink" width="12px" height="12px" viewBox="55 179.5  12 12" xmlns="http://www.w3.org/2000/svg">
  <path d="M 61 179.5  C 64.36 179.5  67 182.14  67 185.5  C 67 188.86  64.36 191.5  61 191.5  C 57.64 191.5  55 188.86  55 185.5  C 55 182.14  57.64 179.5  61 179.5  Z " fill-rule="nonzero" fill="#ffffff" stroke="none" />
  <path d="M 61 180  C 64.08 180  66.5 182.42  66.5 185.5  C 66.5 188.58  64.08 191  61 191  C 57.92 191  55.5 188.58  55.5 185.5  C 55.5 182.42  57.92 180  61 180  Z " stroke-width="1" stroke="#d7d7d7" fill="none" />
  <path d="M 61 188.5  C 59.32 188.5  58 187.18  58 185.5  C 58 183.82  59.32 182.5  61 182.5  C 62.68 182.5  64 183.82  64 185.5  C 64 187.18  62.68 188.5  61 188.5  " fill-rule="nonzero" fill="#d7d7d7" stroke="none" />
</svg>