<?xml version="1.0" encoding="utf-8"?>
<svg version="1.1" xmlns:xlink="http://www.w3.org/1999/xlink" width="12px" height="12px" viewBox="309 1233.5  12 12" xmlns="http://www.w3.org/2000/svg">
  <path d="M 315 1233.5  C 318.36 1233.5  321 1236.14  321 1239.5  C 321 1242.86  318.36 1245.5  315 1245.5  C 311.64 1245.5  309 1242.86  309 1239.5  C 309 1236.14  311.64 1233.5  315 1233.5  Z " fill-rule="nonzero" fill="#f0f0f0" stroke="none" />
  <path d="M 315 1234  C 318.08 1234  320.5 1236.42  320.5 1239.5  C 320.5 1242.58  318.08 1245  315 1245  C 311.92 1245  309.5 1242.58  309.5 1239.5  C 309.5 1236.42  311.92 1234  315 1234  Z " stroke-width="1" stroke="#d7d7d7" fill="none" />
  <path d="M 315 1242.5  C 313.32 1242.5  312 1241.18  312 1239.5  C 312 1237.82  313.32 1236.5  315 1236.5  C 316.68 1236.5  318 1237.82  318 1239.5  C 318 1241.18  316.68 1242.5  315 1242.5  " fill-rule="nonzero" fill="#d7d7d7" stroke="none" />
</svg>