<?xml version="1.0" encoding="utf-8"?>
<svg version="1.1" xmlns:xlink="http://www.w3.org/1999/xlink" width="405px" height="103px" xmlns="http://www.w3.org/2000/svg">
  <g transform="matrix(1 0 0 1 -730 -7 )">
    <path d="M 731 11  A 3 3 0 0 1 734 8 L 1131 8  A 3 3 0 0 1 1134 11 L 1134 106  A 3 3 0 0 1 1131 109 L 734 109  A 3 3 0 0 1 731 106 L 731 11  Z " fill-rule="nonzero" fill="#ff3399" stroke="none" fill-opacity="0.0980392156862745" />
    <path d="M 730.5 11  A 3.5 3.5 0 0 1 734 7.5 L 1131 7.5  A 3.5 3.5 0 0 1 1134.5 11 L 1134.5 106  A 3.5 3.5 0 0 1 1131 109.5 L 734 109.5  A 3.5 3.5 0 0 1 730.5 106 L 730.5 11  Z " stroke-width="1" stroke-dasharray="9,4" stroke="#ff3399" fill="none" stroke-dashoffset="0.5" />
  </g>
</svg>