<?xml version="1.0" encoding="utf-8"?>
<svg version="1.1" xmlns:xlink="http://www.w3.org/1999/xlink" width="21px" height="16px" xmlns="http://www.w3.org/2000/svg">
  <g transform="matrix(1 0 0 1 -345 -76 )">
    <path d="M 5.671875 11.9545454545455  C 5.890625 12.1666666666667  6 12.4242424242424  6 12.7272727272727  L 6 14.9090909090909  C 6 15.2121212121212  5.890625 15.469696969697  5.671875 15.6818181818182  C 5.453125 15.8939393939394  5.1875 16  4.875 16  L 1.125 16  C 0.8125 16  0.546875 15.8939393939394  0.328125 15.6818181818182  C 0.109375 15.469696969697  0 15.2121212121212  0 14.9090909090909  L 0 12.7272727272727  C 0 12.4242424242424  0.109375 12.1666666666667  0.328125 11.9545454545455  C 0.546875 11.7424242424242  0.8125 11.6363636363636  1.125 11.6363636363636  L 4.875 11.6363636363636  C 5.1875 11.6363636363636  5.453125 11.7424242424242  5.671875 11.9545454545455  Z M 5.671875 6.13636363636364  C 5.890625 6.34848484848485  6 6.60606060606061  6 6.90909090909091  L 6 9.09090909090909  C 6 9.39393939393939  5.890625 9.65151515151515  5.671875 9.86363636363636  C 5.453125 10.0757575757576  5.1875 10.1818181818182  4.875 10.1818181818182  L 1.125 10.1818181818182  C 0.8125 10.1818181818182  0.546875 10.0757575757576  0.328125 9.86363636363636  C 0.109375 9.65151515151515  0 9.39393939393939  0 9.09090909090909  L 0 6.90909090909091  C 0 6.60606060606061  0.109375 6.34848484848485  0.328125 6.13636363636364  C 0.546875 5.92424242424242  0.8125 5.81818181818182  1.125 5.81818181818182  L 4.875 5.81818181818182  C 5.1875 5.81818181818182  5.453125 5.92424242424242  5.671875 6.13636363636364  Z M 13.171875 11.9545454545455  C 13.390625 12.1666666666667  13.5 12.4242424242424  13.5 12.7272727272727  L 13.5 14.9090909090909  C 13.5 15.2121212121212  13.390625 15.469696969697  13.171875 15.6818181818182  C 12.953125 15.8939393939394  12.6875 16  12.375 16  L 8.625 16  C 8.3125 16  8.046875 15.8939393939394  7.828125 15.6818181818182  C 7.609375 15.469696969697  7.5 15.2121212121212  7.5 14.9090909090909  L 7.5 12.7272727272727  C 7.5 12.4242424242424  7.609375 12.1666666666667  7.828125 11.9545454545455  C 8.046875 11.7424242424242  8.3125 11.6363636363636  8.625 11.6363636363636  L 12.375 11.6363636363636  C 12.6875 11.6363636363636  12.953125 11.7424242424242  13.171875 11.9545454545455  Z M 5.671875 0.318181818181818  C 5.890625 0.530303030303029  6 0.787878787878787  6 1.09090909090909  L 6 3.27272727272727  C 6 3.57575757575757  5.890625 3.83333333333333  5.671875 4.04545454545455  C 5.453125 4.25757575757576  5.1875 4.36363636363636  4.875 4.36363636363636  L 1.125 4.36363636363636  C 0.8125 4.36363636363636  0.546875 4.25757575757576  0.328125 4.04545454545455  C 0.109375 3.83333333333333  0 3.57575757575757  0 3.27272727272727  L 0 1.09090909090909  C 0 0.787878787878787  0.109375 0.530303030303029  0.328125 0.318181818181818  C 0.546875 0.106060606060606  0.8125 0  1.125 0  L 4.875 0  C 5.1875 0  5.453125 0.106060606060606  5.671875 0.318181818181818  Z M 13.171875 6.13636363636364  C 13.390625 6.34848484848485  13.5 6.60606060606061  13.5 6.90909090909091  L 13.5 9.09090909090909  C 13.5 9.39393939393939  13.390625 9.65151515151515  13.171875 9.86363636363636  C 12.953125 10.0757575757576  12.6875 10.1818181818182  12.375 10.1818181818182  L 8.625 10.1818181818182  C 8.3125 10.1818181818182  8.046875 10.0757575757576  7.828125 9.86363636363636  C 7.609375 9.65151515151515  7.5 9.39393939393939  7.5 9.09090909090909  L 7.5 6.90909090909091  C 7.5 6.60606060606061  7.609375 6.34848484848485  7.828125 6.13636363636364  C 8.046875 5.92424242424242  8.3125 5.81818181818182  8.625 5.81818181818182  L 12.375 5.81818181818182  C 12.6875 5.81818181818182  12.953125 5.92424242424242  13.171875 6.13636363636364  Z M 20.671875 11.9545454545455  C 20.890625 12.1666666666667  21 12.4242424242424  21 12.7272727272727  L 21 14.9090909090909  C 21 15.2121212121212  20.890625 15.469696969697  20.671875 15.6818181818182  C 20.453125 15.8939393939394  20.1875 16  19.875 16  L 16.125 16  C 15.8125 16  15.546875 15.8939393939394  15.328125 15.6818181818182  C 15.109375 15.469696969697  15 15.2121212121212  15 14.9090909090909  L 15 12.7272727272727  C 15 12.4242424242424  15.109375 12.1666666666667  15.328125 11.9545454545455  C 15.546875 11.7424242424242  15.8125 11.6363636363636  16.125 11.6363636363636  L 19.875 11.6363636363636  C 20.1875 11.6363636363636  20.453125 11.7424242424242  20.671875 11.9545454545455  Z M 13.171875 0.318181818181818  C 13.390625 0.530303030303029  13.5 0.787878787878787  13.5 1.09090909090909  L 13.5 3.27272727272727  C 13.5 3.57575757575757  13.390625 3.83333333333333  13.171875 4.04545454545455  C 12.953125 4.25757575757576  12.6875 4.36363636363636  12.375 4.36363636363636  L 8.625 4.36363636363636  C 8.3125 4.36363636363636  8.046875 4.25757575757576  7.828125 4.04545454545455  C 7.609375 3.83333333333333  7.5 3.57575757575757  7.5 3.27272727272727  L 7.5 1.09090909090909  C 7.5 0.787878787878787  7.609375 0.530303030303029  7.828125 0.318181818181818  C 8.046875 0.106060606060606  8.3125 0  8.625 0  L 12.375 0  C 12.6875 0  12.953125 0.106060606060606  13.171875 0.318181818181818  Z M 20.671875 6.13636363636364  C 20.890625 6.34848484848485  21 6.60606060606061  21 6.90909090909091  L 21 9.09090909090909  C 21 9.39393939393939  20.890625 9.65151515151515  20.671875 9.86363636363636  C 20.453125 10.0757575757576  20.1875 10.1818181818182  19.875 10.1818181818182  L 16.125 10.1818181818182  C 15.8125 10.1818181818182  15.546875 10.0757575757576  15.328125 9.86363636363636  C 15.109375 9.65151515151515  15 9.39393939393939  15 9.09090909090909  L 15 6.90909090909091  C 15 6.60606060606061  15.109375 6.34848484848485  15.328125 6.13636363636364  C 15.546875 5.92424242424242  15.8125 5.81818181818182  16.125 5.81818181818182  L 19.875 5.81818181818182  C 20.1875 5.81818181818182  20.453125 5.92424242424242  20.671875 6.13636363636364  Z M 20.671875 0.318181818181818  C 20.890625 0.530303030303029  21 0.787878787878787  21 1.09090909090909  L 21 3.27272727272727  C 21 3.57575757575757  20.890625 3.83333333333333  20.671875 4.04545454545455  C 20.453125 4.25757575757576  20.1875 4.36363636363636  19.875 4.36363636363636  L 16.125 4.36363636363636  C 15.8125 4.36363636363636  15.546875 4.25757575757576  15.328125 4.04545454545455  C 15.109375 3.83333333333333  15 3.57575757575757  15 3.27272727272727  L 15 1.09090909090909  C 15 0.787878787878787  15.109375 0.530303030303029  15.328125 0.318181818181818  C 15.546875 0.106060606060606  15.8125 0  16.125 0  L 19.875 0  C 20.1875 0  20.453125 0.106060606060606  20.671875 0.318181818181818  Z " fill-rule="nonzero" fill="#02a7f0" stroke="none" transform="matrix(1 0 0 1 345 76 )" />
  </g>
</svg>