<?xml version="1.0" encoding="utf-8"?>
<svg version="1.1" xmlns:xlink="http://www.w3.org/1999/xlink" width="16px" height="16px" xmlns="http://www.w3.org/2000/svg">
  <g transform="matrix(1 0 0 1 -524 -8 )">
    <path d="M 9.75480769230769 6.24519230769231  C 9.81570512820513 6.30608974358974  9.84615384615385 6.37820512820513  9.84615384615385 6.46153846153846  L 9.84615384615385 7.07692307692308  C 9.84615384615385 7.16025641025641  9.81570512820513 7.23237179487179  9.75480769230769 7.29326923076923  C 9.69391025641026 7.35416666666667  9.62179487179487 7.38461538461539  9.53846153846154 7.38461538461539  L 7.38461538461539 7.38461538461539  L 7.38461538461539 9.53846153846154  C 7.38461538461539 9.62179487179487  7.35416666666667 9.69391025641026  7.29326923076923 9.75480769230769  C 7.2323717948718 9.81570512820513  7.16025641025641 9.84615384615385  7.07692307692308 9.84615384615385  L 6.46153846153846 9.84615384615385  C 6.37820512820513 9.84615384615385  6.30608974358974 9.81570512820513  6.24519230769231 9.75480769230769  C 6.18429487179487 9.69391025641026  6.15384615384615 9.62179487179487  6.15384615384615 9.53846153846154  L 6.15384615384615 7.38461538461539  L 4 7.38461538461539  C 3.91666666666667 7.38461538461539  3.84455128205128 7.35416666666667  3.78365384615385 7.29326923076923  C 3.72275641025641 7.23237179487179  3.69230769230769 7.16025641025641  3.69230769230769 7.07692307692308  L 3.69230769230769 6.46153846153846  C 3.69230769230769 6.37820512820513  3.72275641025641 6.30608974358974  3.78365384615385 6.24519230769231  C 3.84455128205128 6.18429487179487  3.91666666666667 6.15384615384615  4 6.15384615384615  L 6.15384615384615 6.15384615384615  L 6.15384615384615 4  C 6.15384615384615 3.91666666666667  6.18429487179487 3.84455128205128  6.24519230769231 3.78365384615385  C 6.30608974358974 3.72275641025641  6.37820512820513 3.69230769230769  6.46153846153846 3.69230769230769  L 7.07692307692308 3.69230769230769  C 7.16025641025641 3.69230769230769  7.2323717948718 3.72275641025641  7.29326923076923 3.78365384615385  C 7.35416666666667 3.84455128205128  7.38461538461539 3.91666666666667  7.38461538461539 4  L 7.38461538461539 6.15384615384615  L 9.53846153846154 6.15384615384615  C 9.62179487179487 6.15384615384615  9.69391025641026 6.18429487179487  9.75480769230769 6.24519230769231  Z M 9.8125 9.8125  C 10.6554487179487 8.96955128205128  11.0769230769231 7.9551282051282  11.0769230769231 6.76923076923077  C 11.0769230769231 5.58333333333333  10.6554487179487 4.56891025641026  9.8125 3.72596153846154  C 8.96955128205128 2.88301282051282  7.95512820512821 2.46153846153846  6.76923076923077 2.46153846153846  C 5.58333333333333 2.46153846153846  4.56891025641026 2.88301282051282  3.72596153846154 3.72596153846154  C 2.88301282051282 4.56891025641026  2.46153846153846 5.58333333333333  2.46153846153846 6.76923076923077  C 2.46153846153846 7.9551282051282  2.88301282051282 8.96955128205128  3.72596153846154 9.8125  C 4.56891025641026 10.6554487179487  5.58333333333333 11.0769230769231  6.76923076923077 11.0769230769231  C 7.95512820512821 11.0769230769231  8.96955128205128 10.6554487179487  9.8125 9.8125  Z M 15.6442307692308 13.9038461538462  C 15.8814102564103 14.1410256410256  16 14.4294871794872  16 14.7692307692308  C 16 15.1089743589744  15.8798076923077 15.3990384615385  15.6394230769231 15.6394230769231  C 15.3990384615385 15.8798076923077  15.1089743589744 16  14.7692307692308 16  C 14.4230769230769 16  14.1346153846154 15.8782051282051  13.9038461538462 15.6346153846154  L 10.6057692307692 12.3461538461538  C 9.45833333333333 13.1410256410256  8.17948717948718 13.5384615384615  6.76923076923077 13.5384615384615  C 5.8525641025641 13.5384615384615  4.97596153846154 13.3605769230769  4.13942307692308 13.0048076923077  C 3.30288461538462 12.6490384615385  2.58173076923077 12.1682692307692  1.97596153846154 11.5625  C 1.37019230769231 10.9567307692308  0.889423076923077 10.2355769230769  0.533653846153846 9.39903846153846  C 0.177884615384615 8.5625  0 7.68589743589743  0 6.76923076923077  C 0 5.8525641025641  0.177884615384615 4.97596153846154  0.533653846153846 4.13942307692308  C 0.889423076923077 3.30288461538462  1.37019230769231 2.58173076923077  1.97596153846154 1.97596153846154  C 2.58173076923077 1.37019230769231  3.30288461538462 0.889423076923077  4.13942307692308 0.533653846153847  C 4.97596153846154 0.177884615384615  5.8525641025641 0  6.76923076923077 0  C 7.68589743589744 0  8.5625 0.177884615384615  9.39903846153846 0.533653846153847  C 10.2355769230769 0.889423076923077  10.9567307692308 1.37019230769231  11.5625 1.97596153846154  C 12.1682692307692 2.58173076923077  12.6490384615385 3.30288461538462  13.0048076923077 4.13942307692308  C 13.3605769230769 4.97596153846154  13.5384615384615 5.8525641025641  13.5384615384615 6.76923076923077  C 13.5384615384615 8.17948717948718  13.1410256410256 9.45833333333333  12.3461538461538 10.6057692307692  L 15.6442307692308 13.9038461538462  Z " fill-rule="nonzero" fill="#02a7f0" stroke="none" transform="matrix(1 0 0 1 524 8 )" />
  </g>
</svg>