<?xml version="1.0" encoding="utf-8"?>
<svg version="1.1" xmlns:xlink="http://www.w3.org/1999/xlink" width="21px" height="21px" xmlns="http://www.w3.org/2000/svg">
  <g transform="matrix(1 0 0 1 -92 -58 )">
    <path d="M 20.740234375 0.259765624999999  C 20.9134114583333 0.43294270833333  21 0.63802083333333  21 0.874999999999999  L 21 20.125  C 21 20.3619791666667  20.9134114583333 20.5670572916667  20.740234375 20.740234375  C 20.5670572916667 20.9134114583333  20.3619791666667 21  20.125 21  L 0.875 21  C 0.638020833333333 21  0.432942708333333 20.9134114583333  0.259765625 20.740234375  C 0.0865885416666667 20.5670572916667  0 20.3619791666667  0 20.125  L 0 0.874999999999999  C 0 0.63802083333333  0.0865885416666667 0.43294270833333  0.259765625 0.259765624999999  C 0.432942708333333 0.0865885416666656  0.638020833333333 0  0.875 0  L 20.125 0  C 20.3619791666667 0  20.5670572916667 0.0865885416666656  20.740234375 0.259765624999999  Z " fill-rule="nonzero" fill="#aaaaaa" stroke="none" transform="matrix(1 0 0 1 92 58 )" />
  </g>
</svg>