<?xml version="1.0" encoding="utf-8"?>
<svg version="1.1" xmlns:xlink="http://www.w3.org/1999/xlink" width="165px" height="45px" xmlns="http://www.w3.org/2000/svg">
  <g transform="matrix(1 0 0 1 -854 -3 )">
    <path d="M 855 7  A 3 3 0 0 1 858 4 L 1015 4  A 3 3 0 0 1 1018 7 L 1018 44  A 3 3 0 0 1 1015 47 L 858 47  A 3 3 0 0 1 855 44 L 855 7  Z " fill-rule="nonzero" fill="#ff3399" stroke="none" fill-opacity="0.0980392156862745" />
    <path d="M 854.5 7  A 3.5 3.5 0 0 1 858 3.5 L 1015 3.5  A 3.5 3.5 0 0 1 1018.5 7 L 1018.5 44  A 3.5 3.5 0 0 1 1015 47.5 L 858 47.5  A 3.5 3.5 0 0 1 854.5 44 L 854.5 7  Z " stroke-width="1" stroke-dasharray="9,4" stroke="#ff3399" fill="none" stroke-dashoffset="0.5" />
  </g>
</svg>