<?xml version="1.0" encoding="utf-8"?>
<svg version="1.1" xmlns:xlink="http://www.w3.org/1999/xlink" width="12px" height="12px" viewBox="45 85.5  12 12" xmlns="http://www.w3.org/2000/svg">
  <path d="M 51 85.5  C 54.36 85.5  57 88.14  57 91.5  C 57 94.86  54.36 97.5  51 97.5  C 47.64 97.5  45 94.86  45 91.5  C 45 88.14  47.64 85.5  51 85.5  Z " fill-rule="nonzero" fill="#ffffff" stroke="none" />
  <path d="M 51 86  C 54.08 86  56.5 88.42  56.5 91.5  C 56.5 94.58  54.08 97  51 97  C 47.92 97  45.5 94.58  45.5 91.5  C 45.5 88.42  47.92 86  51 86  Z " stroke-width="1" stroke="#d7d7d7" fill="none" />
  <path d="M 51 94.5  C 49.32 94.5  48 93.18  48 91.5  C 48 89.82  49.32 88.5  51 88.5  C 52.68 88.5  54 89.82  54 91.5  C 54 93.18  52.68 94.5  51 94.5  " fill-rule="nonzero" fill="#d7d7d7" stroke="none" />
</svg>