<?xml version="1.0" encoding="utf-8"?>
<svg version="1.1" xmlns:xlink="http://www.w3.org/1999/xlink" width="13px" height="13px" viewBox="10 16  13 13" xmlns="http://www.w3.org/2000/svg">
  <path d="M 10.5 18  A 1.5 1.5 0 0 1 12 16.5 L 21 16.5  A 1.5 1.5 0 0 1 22.5 18 L 22.5 27  A 1.5 1.5 0 0 1 21 28.5 L 12 28.5  A 1.5 1.5 0 0 1 10.5 27 L 10.5 18  Z " fill-rule="nonzero" fill="#ffffff" stroke="none" />
  <path d="M 10.5 18  A 1.5 1.5 0 0 1 12 16.5 L 21 16.5  A 1.5 1.5 0 0 1 22.5 18 L 22.5 27  A 1.5 1.5 0 0 1 21 28.5 L 12 28.5  A 1.5 1.5 0 0 1 10.5 27 L 10.5 18  Z " stroke-width="1" stroke="#8c8c8c" fill="none" />
  <path d="M 12.7857142857143 22.5  L 15.5714285714286 25.2857142857143  L 20.2142857142857 18.7857142857143  " stroke-width="2.78571428571429" stroke="#8c8c8c" fill="none" />
</svg>