<?xml version="1.0" encoding="utf-8"?>
<svg version="1.1" xmlns:xlink="http://www.w3.org/1999/xlink" width="12px" height="12px" viewBox="45 125.5  12 12" xmlns="http://www.w3.org/2000/svg">
  <path d="M 51 125.5  C 54.36 125.5  57 128.14  57 131.5  C 57 134.86  54.36 137.5  51 137.5  C 47.64 137.5  45 134.86  45 131.5  C 45 128.14  47.64 125.5  51 125.5  Z " fill-rule="nonzero" fill="#f0f0f0" stroke="none" />
  <path d="M 51 126  C 54.08 126  56.5 128.42  56.5 131.5  C 56.5 134.58  54.08 137  51 137  C 47.92 137  45.5 134.58  45.5 131.5  C 45.5 128.42  47.92 126  51 126  Z " stroke-width="1" stroke="#d7d7d7" fill="none" />
  <path d="M 51 134.5  C 49.32 134.5  48 133.18  48 131.5  C 48 129.82  49.32 128.5  51 128.5  C 52.68 128.5  54 129.82  54 131.5  C 54 133.18  52.68 134.5  51 134.5  " fill-rule="nonzero" fill="#d7d7d7" stroke="none" />
</svg>