<?xml version="1.0" encoding="utf-8"?>
<svg version="1.1" xmlns:xlink="http://www.w3.org/1999/xlink" width="13px" height="13px" viewBox="183 91  13 13" xmlns="http://www.w3.org/2000/svg">
  <path d="M 183.5 93  A 1.5 1.5 0 0 1 185 91.5 L 194 91.5  A 1.5 1.5 0 0 1 195.5 93 L 195.5 102  A 1.5 1.5 0 0 1 194 103.5 L 185 103.5  A 1.5 1.5 0 0 1 183.5 102 L 183.5 93  Z " fill-rule="nonzero" fill="#ffffff" stroke="none" />
  <path d="M 183.5 93  A 1.5 1.5 0 0 1 185 91.5 L 194 91.5  A 1.5 1.5 0 0 1 195.5 93 L 195.5 102  A 1.5 1.5 0 0 1 194 103.5 L 185 103.5  A 1.5 1.5 0 0 1 183.5 102 L 183.5 93  Z " stroke-width="1" stroke="#8c8c8c" fill="none" />
  <path d="M 185.785714285714 97.5  L 188.571428571429 100.285714285714  L 193.214285714286 93.7857142857143  " stroke-width="2.78571428571429" stroke="#8c8c8c" fill="none" />
</svg>