<?xml version="1.0" encoding="utf-8"?>
<svg version="1.1" xmlns:xlink="http://www.w3.org/1999/xlink" width="13px" height="13px" viewBox="183 41  13 13" xmlns="http://www.w3.org/2000/svg">
  <path d="M 183.5 43  A 1.5 1.5 0 0 1 185 41.5 L 194 41.5  A 1.5 1.5 0 0 1 195.5 43 L 195.5 52  A 1.5 1.5 0 0 1 194 53.5 L 185 53.5  A 1.5 1.5 0 0 1 183.5 52 L 183.5 43  Z " fill-rule="nonzero" fill="#ffffff" stroke="none" />
  <path d="M 183.5 43  A 1.5 1.5 0 0 1 185 41.5 L 194 41.5  A 1.5 1.5 0 0 1 195.5 43 L 195.5 52  A 1.5 1.5 0 0 1 194 53.5 L 185 53.5  A 1.5 1.5 0 0 1 183.5 52 L 183.5 43  Z " stroke-width="1" stroke="#8c8c8c" fill="none" />
</svg>