<?xml version="1.0" encoding="utf-8"?>
<svg version="1.1" xmlns:xlink="http://www.w3.org/1999/xlink" width="319px" height="26px" xmlns="http://www.w3.org/2000/svg">
  <g transform="matrix(1 0 0 1 -228 -121 )">
    <path d="M 229 125  A 3 3 0 0 1 232 122 L 543 122  A 3 3 0 0 1 546 125 L 546 143  A 3 3 0 0 1 543 146 L 232 146  A 3 3 0 0 1 229 143 L 229 125  Z " fill-rule="nonzero" fill="#ff3399" stroke="none" fill-opacity="0.0980392156862745" />
    <path d="M 228.5 125  A 3.5 3.5 0 0 1 232 121.5 L 543 121.5  A 3.5 3.5 0 0 1 546.5 125 L 546.5 143  A 3.5 3.5 0 0 1 543 146.5 L 232 146.5  A 3.5 3.5 0 0 1 228.5 143 L 228.5 125  Z " stroke-width="1" stroke-dasharray="9,4" stroke="#ff3399" fill="none" stroke-dashoffset="0.5" />
  </g>
</svg>