<?xml version="1.0" encoding="utf-8"?>
<svg version="1.1" xmlns:xlink="http://www.w3.org/1999/xlink" width="200px" height="40px" xmlns="http://www.w3.org/2000/svg">
  <g transform="matrix(1 0 0 1 -277 -68 )">
    <path d="M 278 72  A 3 3 0 0 1 281 69 L 473 69  A 3 3 0 0 1 476 72 L 476 104  A 3 3 0 0 1 473 107 L 281 107  A 3 3 0 0 1 278 104 L 278 72  Z " fill-rule="nonzero" fill="#ff3399" stroke="none" fill-opacity="0.0980392156862745" />
    <path d="M 277.5 72  A 3.5 3.5 0 0 1 281 68.5 L 473 68.5  A 3.5 3.5 0 0 1 476.5 72 L 476.5 104  A 3.5 3.5 0 0 1 473 107.5 L 281 107.5  A 3.5 3.5 0 0 1 277.5 104 L 277.5 72  Z " stroke-width="1" stroke-dasharray="9,4" stroke="#ff3399" fill="none" stroke-dashoffset="0.5" />
  </g>
</svg>