<?xml version="1.0" encoding="utf-8"?>
<svg version="1.1" xmlns:xlink="http://www.w3.org/1999/xlink" width="13px" height="13px" viewBox="183 16  13 13" xmlns="http://www.w3.org/2000/svg">
  <path d="M 183.5 18  A 1.5 1.5 0 0 1 185 16.5 L 194 16.5  A 1.5 1.5 0 0 1 195.5 18 L 195.5 27  A 1.5 1.5 0 0 1 194 28.5 L 185 28.5  A 1.5 1.5 0 0 1 183.5 27 L 183.5 18  Z " fill-rule="nonzero" fill="#ffffff" stroke="none" />
  <path d="M 183.5 18  A 1.5 1.5 0 0 1 185 16.5 L 194 16.5  A 1.5 1.5 0 0 1 195.5 18 L 195.5 27  A 1.5 1.5 0 0 1 194 28.5 L 185 28.5  A 1.5 1.5 0 0 1 183.5 27 L 183.5 18  Z " stroke-width="1" stroke="#8c8c8c" fill="none" />
</svg>