<?xml version="1.0" encoding="utf-8"?>
<svg version="1.1" xmlns:xlink="http://www.w3.org/1999/xlink" width="337px" height="130px" xmlns="http://www.w3.org/2000/svg">
  <g transform="matrix(1 0 0 1 -56 -118 )">
    <path d="M 57 122  A 3 3 0 0 1 60 119 L 389 119  A 3 3 0 0 1 392 122 L 392 244  A 3 3 0 0 1 389 247 L 60 247  A 3 3 0 0 1 57 244 L 57 122  Z " fill-rule="nonzero" fill="#ff3399" stroke="none" fill-opacity="0.0980392156862745" />
    <path d="M 56.5 122  A 3.5 3.5 0 0 1 60 118.5 L 389 118.5  A 3.5 3.5 0 0 1 392.5 122 L 392.5 244  A 3.5 3.5 0 0 1 389 247.5 L 60 247.5  A 3.5 3.5 0 0 1 56.5 244 L 56.5 122  Z " stroke-width="1" stroke-dasharray="9,4" stroke="#ff3399" fill="none" stroke-dashoffset="0.5" />
  </g>
</svg>