<?xml version="1.0" encoding="utf-8"?>
<svg version="1.1" xmlns:xlink="http://www.w3.org/1999/xlink" width="13px" height="13px" viewBox="10 141  13 13" xmlns="http://www.w3.org/2000/svg">
  <path d="M 10.5 143  A 1.5 1.5 0 0 1 12 141.5 L 21 141.5  A 1.5 1.5 0 0 1 22.5 143 L 22.5 152  A 1.5 1.5 0 0 1 21 153.5 L 12 153.5  A 1.5 1.5 0 0 1 10.5 152 L 10.5 143  Z " fill-rule="nonzero" fill="#ffffff" stroke="none" />
  <path d="M 10.5 143  A 1.5 1.5 0 0 1 12 141.5 L 21 141.5  A 1.5 1.5 0 0 1 22.5 143 L 22.5 152  A 1.5 1.5 0 0 1 21 153.5 L 12 153.5  A 1.5 1.5 0 0 1 10.5 152 L 10.5 143  Z " stroke-width="1" stroke="#8c8c8c" fill="none" />
</svg>