<?xml version="1.0" encoding="utf-8"?>
<svg version="1.1" xmlns:xlink="http://www.w3.org/1999/xlink" width="13px" height="13px" viewBox="260 41  13 13" xmlns="http://www.w3.org/2000/svg">
  <path d="M 260.5 43  A 1.5 1.5 0 0 1 262 41.5 L 271 41.5  A 1.5 1.5 0 0 1 272.5 43 L 272.5 52  A 1.5 1.5 0 0 1 271 53.5 L 262 53.5  A 1.5 1.5 0 0 1 260.5 52 L 260.5 43  Z " fill-rule="nonzero" fill="#ffffff" stroke="none" />
  <path d="M 260.5 43  A 1.5 1.5 0 0 1 262 41.5 L 271 41.5  A 1.5 1.5 0 0 1 272.5 43 L 272.5 52  A 1.5 1.5 0 0 1 271 53.5 L 262 53.5  A 1.5 1.5 0 0 1 260.5 52 L 260.5 43  Z " stroke-width="1" stroke="#8c8c8c" fill="none" />
  <path d="M 262.785714285714 47.5  L 265.571428571429 50.2857142857143  L 270.214285714286 43.7857142857143  " stroke-width="2.78571428571429" stroke="#8c8c8c" fill="none" />
</svg>