<?xml version="1.0" encoding="utf-8"?>
<svg version="1.1" xmlns:xlink="http://www.w3.org/1999/xlink" width="200px" height="100px" xmlns="http://www.w3.org/2000/svg">
  <g transform="matrix(1 0 0 1 -17 -47 )">
    <path d="M 18 51  A 3 3 0 0 1 21 48 L 213 48  A 3 3 0 0 1 216 51 L 216 143  A 3 3 0 0 1 213 146 L 21 146  A 3 3 0 0 1 18 143 L 18 51  Z " fill-rule="nonzero" fill="#ff3399" stroke="none" fill-opacity="0.0980392156862745" />
    <path d="M 17.5 51  A 3.5 3.5 0 0 1 21 47.5 L 213 47.5  A 3.5 3.5 0 0 1 216.5 51 L 216.5 143  A 3.5 3.5 0 0 1 213 146.5 L 21 146.5  A 3.5 3.5 0 0 1 17.5 143 L 17.5 51  Z " stroke-width="1" stroke-dasharray="9,4" stroke="#ff3399" fill="none" stroke-dashoffset="0.5" />
  </g>
</svg>