<?xml version="1.0" encoding="utf-8"?>
<svg version="1.1" xmlns:xlink="http://www.w3.org/1999/xlink" width="13px" height="13px" viewBox="10 153  13 13" xmlns="http://www.w3.org/2000/svg">
  <path d="M 10.5 155  A 1.5 1.5 0 0 1 12 153.5 L 21 153.5  A 1.5 1.5 0 0 1 22.5 155 L 22.5 164  A 1.5 1.5 0 0 1 21 165.5 L 12 165.5  A 1.5 1.5 0 0 1 10.5 164 L 10.5 155  Z " fill-rule="nonzero" fill="#ffffff" stroke="none" />
  <path d="M 10.5 155  A 1.5 1.5 0 0 1 12 153.5 L 21 153.5  A 1.5 1.5 0 0 1 22.5 155 L 22.5 164  A 1.5 1.5 0 0 1 21 165.5 L 12 165.5  A 1.5 1.5 0 0 1 10.5 164 L 10.5 155  Z " stroke-width="1" stroke="#8c8c8c" fill="none" />
  <path d="M 12.7857142857143 159.5  L 15.5714285714286 162.285714285714  L 20.2142857142857 155.785714285714  " stroke-width="2.78571428571429" stroke="#8c8c8c" fill="none" />
</svg>