<?xml version="1.0" encoding="utf-8"?>
<svg version="1.1" xmlns:xlink="http://www.w3.org/1999/xlink" width="13px" height="13px" viewBox="260 16  13 13" xmlns="http://www.w3.org/2000/svg">
  <path d="M 260.5 18  A 1.5 1.5 0 0 1 262 16.5 L 271 16.5  A 1.5 1.5 0 0 1 272.5 18 L 272.5 27  A 1.5 1.5 0 0 1 271 28.5 L 262 28.5  A 1.5 1.5 0 0 1 260.5 27 L 260.5 18  Z " fill-rule="nonzero" fill="#ffffff" stroke="none" />
  <path d="M 260.5 18  A 1.5 1.5 0 0 1 262 16.5 L 271 16.5  A 1.5 1.5 0 0 1 272.5 18 L 272.5 27  A 1.5 1.5 0 0 1 271 28.5 L 262 28.5  A 1.5 1.5 0 0 1 260.5 27 L 260.5 18  Z " stroke-width="1" stroke="#8c8c8c" fill="none" />
  <path d="M 262.785714285714 22.5  L 265.571428571429 25.2857142857143  L 270.214285714286 18.7857142857143  " stroke-width="2.78571428571429" stroke="#8c8c8c" fill="none" />
</svg>