<?xml version="1.0" encoding="utf-8"?>
<svg version="1.1" xmlns:xlink="http://www.w3.org/1999/xlink" width="13px" height="13px" viewBox="133 153  13 13" xmlns="http://www.w3.org/2000/svg">
  <path d="M 133.5 155  A 1.5 1.5 0 0 1 135 153.5 L 144 153.5  A 1.5 1.5 0 0 1 145.5 155 L 145.5 164  A 1.5 1.5 0 0 1 144 165.5 L 135 165.5  A 1.5 1.5 0 0 1 133.5 164 L 133.5 155  Z " fill-rule="nonzero" fill="#ffffff" stroke="none" />
  <path d="M 133.5 155  A 1.5 1.5 0 0 1 135 153.5 L 144 153.5  A 1.5 1.5 0 0 1 145.5 155 L 145.5 164  A 1.5 1.5 0 0 1 144 165.5 L 135 165.5  A 1.5 1.5 0 0 1 133.5 164 L 133.5 155  Z " stroke-width="1" stroke="#8c8c8c" fill="none" />
  <path d="M 135.785714285714 159.5  L 138.571428571429 162.285714285714  L 143.214285714286 155.785714285714  " stroke-width="2.78571428571429" stroke="#8c8c8c" fill="none" />
</svg>