<?xml version="1.0" encoding="utf-8"?>
<svg version="1.1" xmlns:xlink="http://www.w3.org/1999/xlink" width="13px" height="13px" viewBox="133 98  13 13" xmlns="http://www.w3.org/2000/svg">
  <path d="M 133.5 100  A 1.5 1.5 0 0 1 135 98.5 L 144 98.5  A 1.5 1.5 0 0 1 145.5 100 L 145.5 109  A 1.5 1.5 0 0 1 144 110.5 L 135 110.5  A 1.5 1.5 0 0 1 133.5 109 L 133.5 100  Z " fill-rule="nonzero" fill="#ffffff" stroke="none" />
  <path d="M 133.5 100  A 1.5 1.5 0 0 1 135 98.5 L 144 98.5  A 1.5 1.5 0 0 1 145.5 100 L 145.5 109  A 1.5 1.5 0 0 1 144 110.5 L 135 110.5  A 1.5 1.5 0 0 1 133.5 109 L 133.5 100  Z " stroke-width="1" stroke="#8c8c8c" fill="none" />
  <path d="M 135.785714285714 104.5  L 138.571428571429 107.285714285714  L 143.214285714286 100.785714285714  " stroke-width="2.78571428571429" stroke="#8c8c8c" fill="none" />
</svg>