<?xml version="1.0" encoding="utf-8"?>
<svg version="1.1" xmlns:xlink="http://www.w3.org/1999/xlink" width="206px" height="77px" xmlns="http://www.w3.org/2000/svg">
  <g transform="matrix(1 0 0 1 -831 -362 )">
    <path d="M 832 366  A 3 3 0 0 1 835 363 L 1033 363  A 3 3 0 0 1 1036 366 L 1036 435  A 3 3 0 0 1 1033 438 L 835 438  A 3 3 0 0 1 832 435 L 832 366  Z " fill-rule="nonzero" fill="#ff3399" stroke="none" fill-opacity="0.0980392156862745" />
    <path d="M 831.5 366  A 3.5 3.5 0 0 1 835 362.5 L 1033 362.5  A 3.5 3.5 0 0 1 1036.5 366 L 1036.5 435  A 3.5 3.5 0 0 1 1033 438.5 L 835 438.5  A 3.5 3.5 0 0 1 831.5 435 L 831.5 366  Z " stroke-width="1" stroke-dasharray="9,4" stroke="#ff3399" fill="none" stroke-dashoffset="0.5" />
  </g>
</svg>