<?xml version="1.0" encoding="utf-8"?>
<svg version="1.1" xmlns:xlink="http://www.w3.org/1999/xlink" width="19px" height="19px" xmlns="http://www.w3.org/2000/svg">
  <g transform="matrix(1 0 0 1 -388 -243 )">
    <path d="M 18.517578125 0.853515625  C 18.8391927083333 0.993706597222222  19 1.23697916666667  19 1.58333333333333  L 19 7.125  C 19 7.33940972222222  18.9216579861111 7.52495659722222  18.7649739583333 7.681640625  C 18.6082899305556 7.83832465277778  18.4227430555556 7.91666666666667  18.2083333333333 7.91666666666667  L 12.6666666666667 7.91666666666667  C 12.3203125 7.91666666666667  12.0770399305556 7.75173611111111  11.9368489583333 7.421875  C 11.7966579861111 7.10026041666667  11.8543836805556 6.81575520833333  12.1100260416667 6.568359375  L 13.8170572916667 4.861328125  C 12.5965711805556 3.73155381944444  11.1575520833333 3.16666666666667  9.5 3.16666666666667  C 8.64236111111111 3.16666666666667  7.82389322916667 3.33365885416667  7.04459635416667 3.66764322916667  C 6.26529947916667 4.00162760416667  5.59114583333333 4.453125  5.02213541666667 5.02213541666667  C 4.453125 5.59114583333333  4.00162760416667 6.26529947916667  3.66764322916667 7.04459635416667  C 3.33365885416667 7.82389322916667  3.16666666666667 8.64236111111111  3.16666666666667 9.5  C 3.16666666666667 10.3576388888889  3.33365885416667 11.1761067708333  3.66764322916667 11.9554036458333  C 4.00162760416667 12.7347005208333  4.453125 13.4088541666667  5.02213541666667 13.9778645833333  C 5.59114583333333 14.546875  6.26529947916667 14.9983723958333  7.04459635416667 15.3323567708333  C 7.82389322916667 15.6663411458333  8.64236111111111 15.8333333333333  9.5 15.8333333333333  C 10.4813368055556 15.8333333333333  11.4090711805556 15.6189236111111  12.283203125 15.1901041666667  C 13.1573350694444 14.7612847222222  13.8953993055556 14.1551649305556  14.4973958333333 13.3717447916667  C 14.5551215277778 13.2892795138889  14.6499565972222 13.2398003472222  14.7819010416667 13.2233072916667  C 14.9055989583333 13.2233072916667  15.0086805555556 13.2604166666667  15.0911458333333 13.3346354166667  L 16.7858072916667 15.0416666666667  C 16.8600260416667 15.1076388888889  16.8991970486111 15.1921657986111  16.9033203125 15.2952473958333  C 16.9074435763889 15.3983289930556  16.8765190972222 15.4911024305556  16.810546875 15.5735677083333  C 15.9116753472222 16.662109375  14.8231336805556 17.5053168402778  13.544921875 18.1031901041667  C 12.2667100694444 18.7010633680556  10.9184027777778 19  9.5 19  C 8.21354166666667 19  6.98480902777778 18.7484809027778  5.81380208333333 18.2454427083333  C 4.64279513888889 17.7424045138889  3.63259548611111 17.0661892361111  2.783203125 16.216796875  C 1.93381076388889 15.3674045138889  1.25759548611111 14.3572048611111  0.754557291666667 13.1861979166667  C 0.251519097222222 12.0151909722222  0 10.7864583333333  0 9.5  C 0 8.21354166666667  0.251519097222222 6.98480902777778  0.754557291666667 5.81380208333333  C 1.25759548611111 4.64279513888889  1.93381076388889 3.63259548611111  2.783203125 2.783203125  C 3.63259548611111 1.93381076388889  4.64279513888889 1.25759548611111  5.81380208333333 0.754557291666666  C 6.98480902777778 0.251519097222222  8.21354166666667 0  9.5 0  C 10.7122395833333 0  11.8853081597222 0.228841145833334  13.0192057291667 0.6865234375  C 14.1531032986111 1.14420572916667  15.1612413194444 1.78949652777778  16.0436197916667 2.62239583333333  L 17.6516927083333 1.02669270833333  C 17.8908420138889 0.771050347222222  18.1794704861111 0.713324652777776  18.517578125 0.853515625  Z " fill-rule="nonzero" fill="#d7d7d7" stroke="none" transform="matrix(1 0 0 1 388 243 )" />
  </g>
</svg>