<?xml version="1.0" encoding="utf-8"?>
<svg version="1.1" xmlns:xlink="http://www.w3.org/1999/xlink" width="7px" height="3px" xmlns="http://www.w3.org/2000/svg">
  <defs>
    <mask fill="white" id="clip92">
      <path d="M 0 1.5  C 0 2.3284271247  1.5670033757 3  3.5 3  C 5.4329966243 3  7 2.3284271247  7 1.5  C 7 0.6715728753  5.4329966243 0  3.5 0  C 1.5670033757 0  0 0.6715728753  0 1.5  Z " fill-rule="evenodd" />
    </mask>
  </defs>
  <g transform="matrix(1 0 0 1 -459 -137 )">
    <path d="M 0 1.5  C 0 2.3284271247  1.5670033757 3  3.5 3  C 5.4329966243 3  7 2.3284271247  7 1.5  C 7 0.6715728753  5.4329966243 0  3.5 0  C 1.5670033757 0  0 0.6715728753  0 1.5  Z " fill-rule="nonzero" fill="#5b8ff9" stroke="none" transform="matrix(1 0 0 1 459 137 )" />
    <path d="M 0 1.5  C 0 2.3284271247  1.5670033757 3  3.5 3  C 5.4329966243 3  7 2.3284271247  7 1.5  C 7 0.6715728753  5.4329966243 0  3.5 0  C 1.5670033757 0  0 0.6715728753  0 1.5  Z " stroke-width="2" stroke="#ffffff" fill="none" stroke-opacity="0.850980392156863" transform="matrix(1 0 0 1 459 137 )" mask="url(#clip92)" />
  </g>
</svg>