<?xml version="1.0" encoding="utf-8"?>
<svg version="1.1" xmlns:xlink="http://www.w3.org/1999/xlink" width="6px" height="3px" xmlns="http://www.w3.org/2000/svg">
  <defs>
    <mask fill="white" id="clip146">
      <path d="M 0 1.5  C 0 2.3284271247  1.3431457506 3  3 3  C 4.6568542494 3  6 2.3284271247  6 1.5  C 6 0.6715728753  4.6568542494 0  3 0  C 1.3431457506 0  0 0.6715728753  0 1.5  Z " fill-rule="evenodd" />
    </mask>
  </defs>
  <g transform="matrix(1 0 0 1 -290 -1388 )">
    <path d="M 0 1.5  C 0 2.3284271247  1.3431457506 3  3 3  C 4.6568542494 3  6 2.3284271247  6 1.5  C 6 0.6715728753  4.6568542494 0  3 0  C 1.3431457506 0  0 0.6715728753  0 1.5  Z " fill-rule="nonzero" fill="#5b8ff9" stroke="none" transform="matrix(1 0 0 1 290 1388 )" />
    <path d="M 0 1.5  C 0 2.3284271247  1.3431457506 3  3 3  C 4.6568542494 3  6 2.3284271247  6 1.5  C 6 0.6715728753  4.6568542494 0  3 0  C 1.3431457506 0  0 0.6715728753  0 1.5  Z " stroke-width="2" stroke="#000000" fill="none" stroke-opacity="0.850980392156863" transform="matrix(1 0 0 1 290 1388 )" mask="url(#clip146)" />
  </g>
</svg>