<?xml version="1.0" encoding="utf-8"?>
<svg version="1.1" xmlns:xlink="http://www.w3.org/1999/xlink" width="60px" height="60px" xmlns="http://www.w3.org/2000/svg">
  <g transform="matrix(1 0 0 1 -1080 -448 )">
    <path d="M 8.71741061946903 38.4411451327434  C 5.57816336283186 30.5324707964602  7.12296424778761 21.8180283185841  12.2566465486726 15.5449008849558  L 12.2069925876106 19.0510162831858  L 19.2661853309735 19.1999809911504  L 19.5337695610619 3.64463054867257  L 3.98124389734513 3.37980753982301  L 3.83504041061947 10.4390002831858  L 7.26947704778761 10.4858965539823  C 0.16092129557522 18.7399000938053  -2.05158666902655 30.4500204477876  2.15231970265487 41.0478841646018  C 6.75360182654867 52.6506629256637  17.8623267823009 59.9498912442478  29.9227197026549 59.9498912442478  C 31.9585377557522 59.9498912442478  34.0219680212389 59.7402361646018  36.0853982867257 59.3126635274336  L 34.6426425345133 52.3996530849558  C 23.7326407646018 54.6727525539823  12.8275823575221 48.8052633504425  8.71752926017699 38.4410088371681  Z M 57.8445504424779 18.9487592920354  C 52.4653242477876 5.39335221238938  38.195389380531 -2.28651504424779  23.9168389380531 0.687270796460176  L 25.3568405309735 7.60028123893805  C 36.266842300885 5.3271817699115  47.1719007079646 11.1946709734513  51.2819538053097 21.5532759292035  C 54.4239552212389 29.4675998230088  52.8764001769911 38.1905166371681  47.7372095575221 44.4629378761062  L 47.7813467256637 40.9264561061947  L 40.7193998230089 40.7940446017699  L 40.479406619469 56.3465702654867  L 56.0319322831858 56.5865634690265  L 56.1643437876106 49.5273707256637  L 52.7547652035398 49.4832335575221  C 59.844253699115 41.2348795752212  62.0482873274336 29.5388831150442  57.8443103362832 18.948787539823  Z " fill-rule="nonzero" fill="#d7d7d7" stroke="none" transform="matrix(1 0 0 1 1080 448 )" />
  </g>
</svg>