<?xml version="1.0" encoding="utf-8"?>
<svg version="1.1" xmlns:xlink="http://www.w3.org/1999/xlink" width="11px" height="11px" xmlns="http://www.w3.org/2000/svg">
  <g transform="matrix(1 0 0 1 -369 -335 )">
    <path d="M 6.23763020833333 7.51236979166667  C 6.28059895833333 7.55533854166667  6.30208333333333 7.61024305555555  6.30208333333333 7.67708333333333  L 6.30208333333333 8.82291666666667  C 6.30208333333333 8.88975694444444  6.28059895833333 8.94466145833333  6.23763020833333 8.98763020833333  C 6.19466145833333 9.03059895833333  6.13975694444444 9.05208333333333  6.07291666666667 9.05208333333333  L 4.92708333333333 9.05208333333333  C 4.86024305555556 9.05208333333333  4.80533854166667 9.03059895833333  4.76236979166667 8.98763020833333  C 4.71940104166667 8.94466145833333  4.69791666666667 8.88975694444444  4.69791666666667 8.82291666666667  L 4.69791666666667 7.67708333333333  C 4.69791666666667 7.61024305555555  4.71940104166667 7.55533854166667  4.76236979166667 7.51236979166667  C 4.80533854166667 7.46940104166667  4.86024305555556 7.44791666666667  4.92708333333333 7.44791666666667  L 6.07291666666667 7.44791666666667  C 6.13975694444444 7.44791666666667  6.19466145833333 7.46940104166667  6.23763020833333 7.51236979166667  Z M 7.35123697916667 2.5888671875  C 7.8740234375 3.01616753472222  8.13541666666667 3.52821180555555  8.13541666666667 4.125  C 8.13541666666667 4.36371527777778  8.099609375 4.57855902777778  8.02799479166667 4.76953125  C 7.95638020833333 4.96050347222222  7.84776475694445 5.12521701388889  7.7021484375 5.263671875  C 7.55653211805556 5.40212673611111  7.43240017361111 5.50716145833333  7.32975260416667 5.57877604166667  C 7.22710503472222 5.650390625  7.08506944444445 5.736328125  6.90364583333333 5.83658854166667  C 6.75086805555556 5.92252604166667  6.63986545138889 5.98936631944444  6.57063802083333 6.037109375  C 6.50141059027778 6.08485243055555  6.43934461805556 6.14214409722222  6.38444010416667 6.208984375  C 6.32953559027778 6.27582465277778  6.30208333333333 6.34505208333333  6.30208333333333 6.41666666666667  L 6.30208333333333 6.64583333333333  C 6.30208333333333 6.71267361111111  6.28059895833333 6.767578125  6.23763020833333 6.810546875  C 6.19466145833333 6.853515625  6.13975694444444 6.875  6.07291666666667 6.875  L 4.92708333333333 6.875  C 4.86024305555556 6.875  4.80533854166667 6.853515625  4.76236979166667 6.810546875  C 4.71940104166667 6.767578125  4.69791666666667 6.71267361111111  4.69791666666667 6.64583333333333  L 4.69791666666667 6.15885416666667  C 4.69791666666667 5.99175347222222  4.72298177083333 5.83778211805555  4.77311197916667 5.69694010416667  C 4.8232421875 5.55609809027778  4.88053385416667 5.44270833333333  4.94498697916667 5.35677083333333  C 5.00944010416667 5.27083333333333  5.1025390625 5.18608940972222  5.22428385416667 5.1025390625  C 5.34602864583333 5.01898871527778  5.44390190972222 4.95811631944444  5.51790364583333 4.919921875  C 5.59190538194445 4.88172743055556  5.69813368055556 4.83159722222222  5.83658854166667 4.76953125  C 6.08962673611111 4.65017361111111  6.26866319444444 4.54752604166667  6.37369791666667 4.46158854166667  C 6.47873263888889 4.37565104166667  6.53125 4.25868055555556  6.53125 4.11067708333333  C 6.53125 3.91015625  6.42740885416667 3.73947482638889  6.2197265625 3.5986328125  C 6.01204427083333 3.45779079861111  5.78407118055556 3.38736979166667  5.53580729166667 3.38736979166667  C 5.26844618055556 3.38736979166667  5.04166666666667 3.45182291666667  4.85546875 3.58072916666667  C 4.71701388888889 3.67621527777778  4.52604166666667 3.87434895833333  4.28255208333333 4.17513020833333  C 4.23958333333333 4.232421875  4.17990451388889 4.26106770833333  4.103515625 4.26106770833333  C 4.05099826388889 4.26106770833333  4.00564236111111 4.24674479166667  3.96744791666667 4.21809895833333  L 3.19401041666667 3.630859375  C 3.14626736111111 3.59743923611111  3.11762152777778 3.54969618055555  3.10807291666667 3.48763020833333  C 3.09852430555556 3.42556423611111  3.11046006944445 3.37065972222222  3.14388020833333 3.32291666666667  C 3.72634548611111 2.40625  4.55946180555556 1.94791666666667  5.64322916666667 1.94791666666667  C 6.25911458333333 1.94791666666667  6.82845052083333 2.16156684027778  7.35123697916667 2.5888671875  Z M 7.27962239583333 1.28190104166667  C 6.7138671875 1.03841145833333  6.12065972222222 0.916666666666667  5.5 0.916666666666667  C 4.87934027777778 0.916666666666667  4.2861328125 1.03841145833333  3.72037760416667 1.28190104166667  C 3.15462239583333 1.525390625  2.66764322916667 1.85123697916667  2.25944010416667 2.25944010416667  C 1.85123697916667 2.66764322916667  1.525390625 3.15462239583333  1.28190104166667 3.72037760416667  C 1.03841145833333 4.2861328125  0.916666666666667 4.87934027777778  0.916666666666667 5.5  C 0.916666666666667 6.12065972222222  1.03841145833333 6.7138671875  1.28190104166667 7.27962239583333  C 1.525390625 7.84537760416667  1.85123697916667 8.33235677083333  2.25944010416667 8.74055989583333  C 2.66764322916667 9.14876302083333  3.15462239583333 9.474609375  3.72037760416667 9.71809895833333  C 4.2861328125 9.96158854166667  4.87934027777778 10.0833333333333  5.5 10.0833333333333  C 6.12065972222222 10.0833333333333  6.7138671875 9.96158854166667  7.27962239583333 9.71809895833333  C 7.84537760416667 9.474609375  8.33235677083333 9.14876302083333  8.74055989583333 8.74055989583333  C 9.14876302083333 8.33235677083333  9.474609375 7.84537760416667  9.71809895833333 7.27962239583333  C 9.96158854166667 6.7138671875  10.0833333333333 6.12065972222222  10.0833333333333 5.5  C 10.0833333333333 4.87934027777778  9.96158854166667 4.2861328125  9.71809895833333 3.72037760416667  C 9.474609375 3.15462239583333  9.14876302083333 2.66764322916667  8.74055989583333 2.25944010416667  C 8.33235677083333 1.85123697916667  7.84537760416667 1.525390625  7.27962239583333 1.28190104166667  Z M 10.2623697916667 2.7392578125  C 10.7541232638889 3.58192274305555  11 4.50217013888889  11 5.5  C 11 6.49782986111111  10.7541232638889 7.41807725694444  10.2623697916667 8.2607421875  C 9.77061631944445 9.10340711805556  9.10340711805556 9.77061631944444  8.2607421875 10.2623697916667  C 7.41807725694445 10.7541232638889  6.49782986111111 11  5.5 11  C 4.50217013888889 11  3.58192274305556 10.7541232638889  2.7392578125 10.2623697916667  C 1.89659288194444 9.77061631944444  1.22938368055556 9.10340711805556  0.737630208333333 8.2607421875  C 0.245876736111111 7.41807725694444  0 6.49782986111111  0 5.5  C 0 4.50217013888889  0.245876736111111 3.58192274305555  0.737630208333333 2.7392578125  C 1.22938368055556 1.89659288194444  1.89659288194444 1.22938368055555  2.7392578125 0.737630208333333  C 3.58192274305556 0.24587673611111  4.50217013888889 0  5.5 0  C 6.49782986111111 0  7.41807725694445 0.24587673611111  8.2607421875 0.737630208333333  C 9.10340711805556 1.22938368055555  9.77061631944445 1.89659288194444  10.2623697916667 2.7392578125  Z " fill-rule="nonzero" fill="#000000" stroke="none" transform="matrix(1 0 0 1 369 335 )" />
  </g>
</svg>