<?xml version="1.0" encoding="utf-8"?>
<svg version="1.1" xmlns:xlink="http://www.w3.org/1999/xlink" width="448px" height="290px" xmlns="http://www.w3.org/2000/svg">
  <g transform="matrix(1 0 0 1 -22 -258 )">
    <path d="M 23 262  A 3 3 0 0 1 26 259 L 466 259  A 3 3 0 0 1 469 262 L 469 544  A 3 3 0 0 1 466 547 L 26 547  A 3 3 0 0 1 23 544 L 23 262  Z " fill-rule="nonzero" fill="#ff3399" stroke="none" fill-opacity="0.0980392156862745" />
    <path d="M 22.5 262  A 3.5 3.5 0 0 1 26 258.5 L 466 258.5  A 3.5 3.5 0 0 1 469.5 262 L 469.5 544  A 3.5 3.5 0 0 1 466 547.5 L 26 547.5  A 3.5 3.5 0 0 1 22.5 544 L 22.5 262  Z " stroke-width="1" stroke-dasharray="9,4" stroke="#ff3399" fill="none" stroke-dashoffset="0.5" />
  </g>
</svg>