<?xml version="1.0" encoding="utf-8"?>
<svg version="1.1" xmlns:xlink="http://www.w3.org/1999/xlink" width="200px" height="79px" xmlns="http://www.w3.org/2000/svg">
  <g transform="matrix(1 0 0 1 -310 -11 )">
    <path d="M 311 15  A 3 3 0 0 1 314 12 L 506 12  A 3 3 0 0 1 509 15 L 509 86  A 3 3 0 0 1 506 89 L 314 89  A 3 3 0 0 1 311 86 L 311 15  Z " fill-rule="nonzero" fill="#ff3399" stroke="none" fill-opacity="0.0980392156862745" />
    <path d="M 310.5 15  A 3.5 3.5 0 0 1 314 11.5 L 506 11.5  A 3.5 3.5 0 0 1 509.5 15 L 509.5 86  A 3.5 3.5 0 0 1 506 89.5 L 314 89.5  A 3.5 3.5 0 0 1 310.5 86 L 310.5 15  Z " stroke-width="1" stroke-dasharray="9,4" stroke="#ff3399" fill="none" stroke-dashoffset="0.5" />
  </g>
</svg>