<?xml version="1.0" encoding="utf-8"?>
<svg version="1.1" xmlns:xlink="http://www.w3.org/1999/xlink" width="23px" height="25px" xmlns="http://www.w3.org/2000/svg">
  <g transform="matrix(1 0 0 1 -10 -8 )">
    <path d="M 22.4921875 10.0208600770218  C 22.8307291666667 10.4220154043646  23 10.9060761660248  23 11.4730423620026  L 23 13.5269576379974  C 23 14.0939238339752  22.8307291666667 14.5779845956354  22.4921875 14.9791399229782  C 22.1536458333333 15.3802952503209  21.7135416666667 15.5808729139923  21.171875 15.5808729139923  L 10.171875 15.5808729139923  L 14.75 20.298459563543  C 15.1458333333333 20.683568677792  15.34375 21.1649550706033  15.34375 21.7426187419769  C 15.34375 22.3202824133505  15.1458333333333 22.8016688061617  14.75 23.1867779204108  L 13.578125 24.4062901155327  C 13.1927083333333 24.8020967051776  12.7239583333333 25  12.171875 25  C 11.6302083333333 25  11.15625 24.8020967051776  10.75 24.4062901155327  L 0.578125 13.9441591784339  C 0.192708333333333 13.548352588789  0 13.0669661959777  0 12.5  C 0 11.9437312794181  0.192708333333333 11.4569961489089  0.578125 11.0397946084724  L 10.75 0.609756097560976  C 11.1458333333333 0.203252032520324  11.6197916666667 0  12.171875 0  C 12.7135416666667 0  13.1822916666667 0.203252032520324  13.578125 0.609756097560976  L 14.75 1.79717586649551  C 15.1458333333333 2.20367993153616  15.34375 2.69041506204535  15.34375 3.25738125802311  C 15.34375 3.82434745400085  15.1458333333333 4.31108258451005  14.75 4.71758664955071  L 10.171875 9.4191270860077  L 21.171875 9.4191270860077  C 21.7135416666667 9.4191270860077  22.1536458333333 9.61970474967907  22.4921875 10.0208600770218  Z " fill-rule="nonzero" fill="#000000" stroke="none" transform="matrix(1 0 0 1 10 8 )" />
  </g>
</svg>