<?xml version="1.0" encoding="utf-8"?>
<svg version="1.1" xmlns:xlink="http://www.w3.org/1999/xlink" width="27px" height="27px" xmlns="http://www.w3.org/2000/svg">
  <g transform="matrix(1 0 0 1 -1136 -78 )">
    <path d="M 26.3935546875 15.9169921875  C 26.5048828125 16.0283203125  26.560546875 16.16015625  26.560546875 16.3125  C 26.560546875 16.37109375  26.5546875 16.412109375  26.54296875 16.435546875  C 25.79296875 19.576171875  24.22265625 22.1220703125  21.83203125 24.0732421875  C 19.44140625 26.0244140625  16.640625 27  13.4296875 27  C 11.71875 27  10.0634765625 26.677734375  8.4638671875 26.033203125  C 6.8642578125 25.388671875  5.4375 24.46875  4.18359375 23.2734375  L 1.916015625 25.541015625  C 1.693359375 25.763671875  1.4296875 25.875  1.125 25.875  C 0.8203125 25.875  0.556640625 25.763671875  0.333984375 25.541015625  C 0.111328125 25.318359375  0 25.0546875  0 24.75  L 0 16.875  C 0 16.5703125  0.111328125 16.306640625  0.333984375 16.083984375  C 0.556640625 15.861328125  0.8203125 15.75  1.125 15.75  L 9 15.75  C 9.3046875 15.75  9.568359375 15.861328125  9.791015625 16.083984375  C 10.013671875 16.306640625  10.125 16.5703125  10.125 16.875  C 10.125 17.1796875  10.013671875 17.443359375  9.791015625 17.666015625  L 7.3828125 20.07421875  C 8.21484375 20.84765625  9.158203125 21.4453125  10.212890625 21.8671875  C 11.267578125 22.2890625  12.36328125 22.5  13.5 22.5  C 15.0703125 22.5  16.53515625 22.119140625  17.89453125 21.357421875  C 19.25390625 20.595703125  20.34375 19.546875  21.1640625 18.2109375  C 21.29296875 18.01171875  21.603515625 17.326171875  22.095703125 16.154296875  C 22.189453125 15.884765625  22.365234375 15.75  22.623046875 15.75  L 25.998046875 15.75  C 26.150390625 15.75  26.2822265625 15.8056640625  26.3935546875 15.9169921875  Z M 26.666015625 1.458984375  C 26.888671875 1.681640625  27 1.9453125  27 2.25  L 27 10.125  C 27 10.4296875  26.888671875 10.693359375  26.666015625 10.916015625  C 26.443359375 11.138671875  26.1796875 11.25  25.875 11.25  L 18 11.25  C 17.6953125 11.25  17.431640625 11.138671875  17.208984375 10.916015625  C 16.986328125 10.693359375  16.875 10.4296875  16.875 10.125  C 16.875 9.8203125  16.986328125 9.556640625  17.208984375 9.333984375  L 19.634765625 6.908203125  C 17.900390625 5.302734375  15.85546875 4.5  13.5 4.5  C 11.9296875 4.5  10.46484375 4.880859375  9.10546875 5.642578125  C 7.74609375 6.404296875  6.65625 7.453125  5.8359375 8.7890625  C 5.70703125 8.98828125  5.396484375 9.673828125  4.904296875 10.845703125  C 4.810546875 11.115234375  4.634765625 11.25  4.376953125 11.25  L 0.87890625 11.25  C 0.7265625 11.25  0.5947265625 11.1943359375  0.4833984375 11.0830078125  C 0.3720703125 10.9716796875  0.31640625 10.83984375  0.31640625 10.6875  L 0.31640625 10.564453125  C 1.078125 7.423828125  2.66015625 4.8779296875  5.0625 2.9267578125  C 7.46484375 0.9755859375  10.27734375 0  13.5 0  C 15.2109375 0  16.875 0.325195312500001  18.4921875 0.9755859375  C 20.109375 1.6259765625  21.544921875 2.54296875  22.798828125 3.7265625  L 25.083984375 1.458984375  C 25.306640625 1.236328125  25.5703125 1.125  25.875 1.125  C 26.1796875 1.125  26.443359375 1.236328125  26.666015625 1.458984375  Z " fill-rule="nonzero" fill="#aaaaaa" stroke="none" transform="matrix(1 0 0 1 1136 78 )" />
  </g>
</svg>