<?xml version="1.0" encoding="utf-8"?>
<svg version="1.1" xmlns:xlink="http://www.w3.org/1999/xlink" width="13px" height="19px" xmlns="http://www.w3.org/2000/svg">
  <g transform="matrix(1 0 0 1 -810 -62 )">
    <path d="M 12.7587890625 11.4836647727273  C 12.9195963541667 11.6545928030303  13 11.8570075757576  13 12.0909090909091  C 13 12.3248106060606  12.9195963541667 12.5272253787879  12.7587890625 12.6981534090909  L 7.0712890625 18.7436079545455  C 6.91048177083333 18.9145359848485  6.72005208333333 19  6.5 19  C 6.27994791666667 19  6.08951822916667 18.9145359848485  5.9287109375 18.7436079545455  L 0.2412109375 12.6981534090909  C 0.0804036458333333 12.5272253787879  0 12.3248106060606  0 12.0909090909091  C 0 11.8570075757576  0.0804036458333333 11.6545928030303  0.2412109375 11.4836647727273  C 0.402018229166667 11.3127367424242  0.592447916666667 11.2272727272727  0.8125 11  L 12.1875 11  C 12.4075520833333 11.2272727272727  12.5979817708333 11.3127367424242  12.7587890625 11.4836647727273  Z M 12.7587890625 6.30184659090909  C 12.9195963541667 6.47277462121212  13 6.67518939393939  13 6.90909090909091  C 13 7.14299242424242  12.9195963541667 7.3454071969697  12.7587890625 7.51633522727273  C 12.5979817708333 7.68726325757576  12.4075520833333 7.77272727272727  12.1875 8  L 0.8125 8  C 0.592447916666667 7.77272727272727  0.402018229166667 7.68726325757576  0.2412109375 7.51633522727273  C 0.0804036458333333 7.3454071969697  0 7.14299242424242  0 6.90909090909091  C 0 6.67518939393939  0.0804036458333333 6.47277462121212  0.2412109375 6.30184659090909  L 5.9287109375 0.256392045454546  C 6.08951822916667 0.0854640151515134  6.27994791666667 0  6.5 0  C 6.72005208333333 0  6.91048177083333 0.0854640151515134  7.0712890625 0.256392045454546  L 12.7587890625 6.30184659090909  Z " fill-rule="nonzero" fill="#000000" stroke="none" transform="matrix(1 0 0 1 810 62 )" />
  </g>
</svg>