<?xml version="1.0" encoding="utf-8"?>
<svg version="1.1" xmlns:xlink="http://www.w3.org/1999/xlink" width="200px" height="130px" xmlns="http://www.w3.org/2000/svg">
  <g transform="matrix(1 0 0 1 -840 -8 )">
    <path d="M 841 12  A 3 3 0 0 1 844 9 L 1036 9  A 3 3 0 0 1 1039 12 L 1039 134  A 3 3 0 0 1 1036 137 L 844 137  A 3 3 0 0 1 841 134 L 841 12  Z " fill-rule="nonzero" fill="#ff3399" stroke="none" fill-opacity="0.0980392156862745" />
    <path d="M 840.5 12  A 3.5 3.5 0 0 1 844 8.5 L 1036 8.5  A 3.5 3.5 0 0 1 1039.5 12 L 1039.5 134  A 3.5 3.5 0 0 1 1036 137.5 L 844 137.5  A 3.5 3.5 0 0 1 840.5 134 L 840.5 12  Z " stroke-width="1" stroke-dasharray="9,4" stroke="#ff3399" fill="none" stroke-dashoffset="0.5" />
  </g>
</svg>