<?xml version="1.0" encoding="utf-8"?>
<svg version="1.1" xmlns:xlink="http://www.w3.org/1999/xlink" width="12px" height="12px" viewBox="24 451  12 12" xmlns="http://www.w3.org/2000/svg">
  <path d="M 30 451  C 33.36 451  36 453.64  36 457  C 36 460.36  33.36 463  30 463  C 26.64 463  24 460.36  24 457  C 24 453.64  26.64 451  30 451  Z " fill-rule="nonzero" fill="#ffffff" stroke="none" />
  <path d="M 30 451.5  C 33.08 451.5  35.5 453.92  35.5 457  C 35.5 460.08  33.08 462.5  30 462.5  C 26.92 462.5  24.5 460.08  24.5 457  C 24.5 453.92  26.92 451.5  30 451.5  Z " stroke-width="1" stroke="#d7d7d7" fill="none" />
  <path d="M 30 460  C 28.32 460  27 458.68  27 457  C 27 455.32  28.32 454  30 454  C 31.68 454  33 455.32  33 457  C 33 458.68  31.68 460  30 460  " fill-rule="nonzero" fill="#d7d7d7" stroke="none" />
</svg>