<?xml version="1.0" encoding="utf-8"?>
<svg version="1.1" xmlns:xlink="http://www.w3.org/1999/xlink" width="12px" height="12px" viewBox="248 194.5  12 12" xmlns="http://www.w3.org/2000/svg">
  <path d="M 254 194.5  C 257.36 194.5  260 197.14  260 200.5  C 260 203.86  257.36 206.5  254 206.5  C 250.64 206.5  248 203.86  248 200.5  C 248 197.14  250.64 194.5  254 194.5  Z " fill-rule="nonzero" fill="#f0f0f0" stroke="none" />
  <path d="M 254 195  C 257.08 195  259.5 197.42  259.5 200.5  C 259.5 203.58  257.08 206  254 206  C 250.92 206  248.5 203.58  248.5 200.5  C 248.5 197.42  250.92 195  254 195  Z " stroke-width="1" stroke="#d7d7d7" fill="none" />
  <path d="M 254 203.5  C 252.32 203.5  251 202.18  251 200.5  C 251 198.82  252.32 197.5  254 197.5  C 255.68 197.5  257 198.82  257 200.5  C 257 202.18  255.68 203.5  254 203.5  " fill-rule="nonzero" fill="#d7d7d7" stroke="none" />
</svg>