<?xml version="1.0" encoding="utf-8"?>
<svg version="1.1" xmlns:xlink="http://www.w3.org/1999/xlink" width="12px" height="12px" viewBox="122 444.5  12 12" xmlns="http://www.w3.org/2000/svg">
  <path d="M 128 444.5  C 131.36 444.5  134 447.14  134 450.5  C 134 453.86  131.36 456.5  128 456.5  C 124.64 456.5  122 453.86  122 450.5  C 122 447.14  124.64 444.5  128 444.5  Z " fill-rule="nonzero" fill="#f0f0f0" stroke="none" />
  <path d="M 128 445  C 131.08 445  133.5 447.42  133.5 450.5  C 133.5 453.58  131.08 456  128 456  C 124.92 456  122.5 453.58  122.5 450.5  C 122.5 447.42  124.92 445  128 445  Z " stroke-width="1" stroke="#d7d7d7" fill="none" />
  <path d="M 128 453.5  C 126.32 453.5  125 452.18  125 450.5  C 125 448.82  126.32 447.5  128 447.5  C 129.68 447.5  131 448.82  131 450.5  C 131 452.18  129.68 453.5  128 453.5  " fill-rule="nonzero" fill="#d7d7d7" stroke="none" />
</svg>