<?xml version="1.0" encoding="utf-8"?>
<svg version="1.1" xmlns:xlink="http://www.w3.org/1999/xlink" width="12px" height="12px" viewBox="20 524.5  12 12" xmlns="http://www.w3.org/2000/svg">
  <path d="M 26 524.5  C 29.36 524.5  32 527.14  32 530.5  C 32 533.86  29.36 536.5  26 536.5  C 22.64 536.5  20 533.86  20 530.5  C 20 527.14  22.64 524.5  26 524.5  Z " fill-rule="nonzero" fill="#f0f0f0" stroke="none" />
  <path d="M 26 525  C 29.08 525  31.5 527.42  31.5 530.5  C 31.5 533.58  29.08 536  26 536  C 22.92 536  20.5 533.58  20.5 530.5  C 20.5 527.42  22.92 525  26 525  Z " stroke-width="1" stroke="#d7d7d7" fill="none" />
  <path d="M 26 533.5  C 24.32 533.5  23 532.18  23 530.5  C 23 528.82  24.32 527.5  26 527.5  C 27.68 527.5  29 528.82  29 530.5  C 29 532.18  27.68 533.5  26 533.5  " fill-rule="nonzero" fill="#d7d7d7" stroke="none" />
</svg>