<?xml version="1.0" encoding="utf-8"?>
<svg version="1.1" xmlns:xlink="http://www.w3.org/1999/xlink" width="12px" height="12px" viewBox="20 318.5  12 12" xmlns="http://www.w3.org/2000/svg">
  <path d="M 26 318.5  C 29.36 318.5  32 321.14  32 324.5  C 32 327.86  29.36 330.5  26 330.5  C 22.64 330.5  20 327.86  20 324.5  C 20 321.14  22.64 318.5  26 318.5  Z " fill-rule="nonzero" fill="#f0f0f0" stroke="none" />
  <path d="M 26 319  C 29.08 319  31.5 321.42  31.5 324.5  C 31.5 327.58  29.08 330  26 330  C 22.92 330  20.5 327.58  20.5 324.5  C 20.5 321.42  22.92 319  26 319  Z " stroke-width="1" stroke="#d7d7d7" fill="none" />
  <path d="M 26 327.5  C 24.32 327.5  23 326.18  23 324.5  C 23 322.82  24.32 321.5  26 321.5  C 27.68 321.5  29 322.82  29 324.5  C 29 326.18  27.68 327.5  26 327.5  " fill-rule="nonzero" fill="#d7d7d7" stroke="none" />
</svg>