<?xml version="1.0" encoding="utf-8"?>
<svg version="1.1" xmlns:xlink="http://www.w3.org/1999/xlink" width="12px" height="12px" viewBox="20 190.5  12 12" xmlns="http://www.w3.org/2000/svg">
  <path d="M 26 190.5  C 29.36 190.5  32 193.14  32 196.5  C 32 199.86  29.36 202.5  26 202.5  C 22.64 202.5  20 199.86  20 196.5  C 20 193.14  22.64 190.5  26 190.5  Z " fill-rule="nonzero" fill="#ffffff" stroke="none" />
  <path d="M 26 191  C 29.08 191  31.5 193.42  31.5 196.5  C 31.5 199.58  29.08 202  26 202  C 22.92 202  20.5 199.58  20.5 196.5  C 20.5 193.42  22.92 191  26 191  Z " stroke-width="1" stroke="#d7d7d7" fill="none" />
  <path d="M 26 199.5  C 24.32 199.5  23 198.18  23 196.5  C 23 194.82  24.32 193.5  26 193.5  C 27.68 193.5  29 194.82  29 196.5  C 29 198.18  27.68 199.5  26 199.5  " fill-rule="nonzero" fill="#d7d7d7" stroke="none" />
</svg>