<?xml version="1.0" encoding="utf-8"?>
<svg version="1.1" xmlns:xlink="http://www.w3.org/1999/xlink" width="12px" height="12px" viewBox="408 234.5  12 12" xmlns="http://www.w3.org/2000/svg">
  <path d="M 414 234.5  C 417.36 234.5  420 237.14  420 240.5  C 420 243.86  417.36 246.5  414 246.5  C 410.64 246.5  408 243.86  408 240.5  C 408 237.14  410.64 234.5  414 234.5  Z " fill-rule="nonzero" fill="#ffffff" stroke="none" />
  <path d="M 414 235  C 417.08 235  419.5 237.42  419.5 240.5  C 419.5 243.58  417.08 246  414 246  C 410.92 246  408.5 243.58  408.5 240.5  C 408.5 237.42  410.92 235  414 235  Z " stroke-width="1" stroke="#d7d7d7" fill="none" />
  <path d="M 414 243.5  C 412.32 243.5  411 242.18  411 240.5  C 411 238.82  412.32 237.5  414 237.5  C 415.68 237.5  417 238.82  417 240.5  C 417 242.18  415.68 243.5  414 243.5  " fill-rule="nonzero" fill="#d7d7d7" stroke="none" />
</svg>