<?xml version="1.0" encoding="utf-8"?>
<svg version="1.1" xmlns:xlink="http://www.w3.org/1999/xlink" width="12px" height="12px" viewBox="20 117.5  12 12" xmlns="http://www.w3.org/2000/svg">
  <path d="M 26 117.5  C 29.36 117.5  32 120.14  32 123.5  C 32 126.86  29.36 129.5  26 129.5  C 22.64 129.5  20 126.86  20 123.5  C 20 120.14  22.64 117.5  26 117.5  Z " fill-rule="nonzero" fill="#ffffff" stroke="none" />
  <path d="M 26 118  C 29.08 118  31.5 120.42  31.5 123.5  C 31.5 126.58  29.08 129  26 129  C 22.92 129  20.5 126.58  20.5 123.5  C 20.5 120.42  22.92 118  26 118  Z " stroke-width="1" stroke="#d7d7d7" fill="none" />
  <path d="M 26 126.5  C 24.32 126.5  23 125.18  23 123.5  C 23 121.82  24.32 120.5  26 120.5  C 27.68 120.5  29 121.82  29 123.5  C 29 125.18  27.68 126.5  26 126.5  " fill-rule="nonzero" fill="#d7d7d7" stroke="none" />
</svg>