<?xml version="1.0" encoding="utf-8"?>
<svg version="1.1" xmlns:xlink="http://www.w3.org/1999/xlink" width="12px" height="12px" viewBox="180 107.5  12 12" xmlns="http://www.w3.org/2000/svg">
  <path d="M 186 107.5  C 189.36 107.5  192 110.14  192 113.5  C 192 116.86  189.36 119.5  186 119.5  C 182.64 119.5  180 116.86  180 113.5  C 180 110.14  182.64 107.5  186 107.5  Z " fill-rule="nonzero" fill="#ffffff" stroke="none" />
  <path d="M 186 108  C 189.08 108  191.5 110.42  191.5 113.5  C 191.5 116.58  189.08 119  186 119  C 182.92 119  180.5 116.58  180.5 113.5  C 180.5 110.42  182.92 108  186 108  Z " stroke-width="1" stroke="#d7d7d7" fill="none" />
  <path d="M 186 116.5  C 184.32 116.5  183 115.18  183 113.5  C 183 111.82  184.32 110.5  186 110.5  C 187.68 110.5  189 111.82  189 113.5  C 189 115.18  187.68 116.5  186 116.5  " fill-rule="nonzero" fill="#d7d7d7" stroke="none" />
</svg>