<?xml version="1.0" encoding="utf-8"?>
<svg version="1.1" xmlns:xlink="http://www.w3.org/1999/xlink" width="32px" height="32px" xmlns="http://www.w3.org/2000/svg">
  <g transform="matrix(1 0 0 1 -493 -80 )">
    <path d="M 509 80  C 517.96 80  525 87.04  525 96  C 525 104.96  517.96 112  509 112  C 500.04 112  493 104.96  493 96  C 493 87.04  500.04 80  509 80  Z " fill-rule="nonzero" fill="#ffffff" stroke="none" />
    <path d="M 509 80.5  C 517.68 80.5  524.5 87.32  524.5 96  C 524.5 104.68  517.68 111.5  509 111.5  C 500.32 111.5  493.5 104.68  493.5 96  C 493.5 87.32  500.32 80.5  509 80.5  Z " stroke-width="1" stroke="#cccccc" fill="none" />
  </g>
</svg>