<?xml version="1.0" encoding="utf-8"?>
<svg version="1.1" xmlns:xlink="http://www.w3.org/1999/xlink" width="170px" height="170px" xmlns="http://www.w3.org/2000/svg">
  <g transform="matrix(1 0 0 1 -90 -86 )">
    <path d="M 175 86  C 222.6 86  260 123.4  260 171  C 260 218.6  222.6 256  175 256  C 127.4 256  90 218.6  90 171  C 90 123.4  127.4 86  175 86  Z " fill-rule="nonzero" fill="#ffffff" stroke="none" />
    <path d="M 175 86.5  C 222.32 86.5  259.5 123.68  259.5 171  C 259.5 218.32  222.32 255.5  175 255.5  C 127.68 255.5  90.5 218.32  90.5 171  C 90.5 123.68  127.68 86.5  175 86.5  Z " stroke-width="1" stroke="#d7d7d7" fill="none" />
  </g>
</svg>