<?xml version="1.0" encoding="utf-8"?>
<svg version="1.1" xmlns:xlink="http://www.w3.org/1999/xlink" width="27px" height="29px" xmlns="http://www.w3.org/2000/svg">
  <g transform="matrix(1 0 0 1 -98 -81 )">
    <path d="M 6.88792067307692 21.8758680555556  C 7.29356971153846 22.2954282407407  7.49639423076923 22.8016975308642  7.49639423076923 23.3946759259259  C 7.49639423076923 23.9876543209877  7.29356971153846 24.4939236111111  6.88792067307692 24.9134837962963  C 6.48227163461538 25.3330439814815  5.99278846153846 25.5428240740741  5.41947115384615 25.5428240740741  C 4.85697115384615 25.5428240740741  4.37019230769231 25.3302469135802  3.95913461538462 24.9050925925926  C 3.54807692307692 24.4799382716049  3.34254807692308 23.9764660493827  3.34254807692308 23.3946759259259  C 3.34254807692308 22.8016975308642  3.54537259615385 22.2954282407407  3.95102163461538 21.8758680555556  C 4.35667067307692 21.4563078703704  4.84615384615385 21.2465277777778  5.41947115384615 21.2465277777778  C 5.99278846153846 21.2465277777778  6.48227163461538 21.4563078703704  6.88792067307692 21.8758680555556  Z M 14.9684495192308 25.3330439814815  C 15.3740985576923 25.7526041666667  15.5769230769231 26.2588734567901  15.5769230769231 26.8518518518519  C 15.5769230769231 27.4448302469136  15.3740985576923 27.951099537037  14.9684495192308 28.3706597222222  C 14.5628004807692 28.7902199074074  14.0733173076923 29  13.5 29  C 12.9266826923077 29  12.4371995192308 28.7902199074074  12.0315504807692 28.3706597222222  C 11.6259014423077 27.951099537037  11.4230769230769 27.4448302469136  11.4230769230769 26.8518518518519  C 11.4230769230769 26.2588734567901  11.6259014423077 25.7526041666667  12.0315504807692 25.3330439814815  C 12.4371995192308 24.9134837962963  12.9266826923077 24.7037037037037  13.5 24.7037037037037  C 14.0733173076923 24.7037037037037  14.5628004807692 24.9134837962963  14.9684495192308 25.3330439814815  Z M 3.54537259615385 13.5182291666667  C 3.95102163461538 13.9377893518519  4.15384615384615 14.4440586419753  4.15384615384615 15.037037037037  C 4.15384615384615 15.6300154320988  3.95102163461538 16.1362847222222  3.54537259615385 16.5558449074074  C 3.13972355769231 16.9754050925926  2.65024038461539 17.1851851851852  2.07692307692308 17.1851851851852  C 1.50360576923077 17.1851851851852  1.01412259615385 16.9754050925926  0.608473557692308 16.5558449074074  C 0.202824519230769 16.1362847222222  0 15.6300154320988  0 15.037037037037  C 0 14.4440586419753  0.202824519230769 13.9377893518519  0.608473557692308 13.5182291666667  C 1.01412259615385 13.0986689814815  1.50360576923077 12.8888888888889  2.07692307692308 12.8888888888889  C 2.65024038461539 12.8888888888889  3.13972355769231 13.0986689814815  3.54537259615385 13.5182291666667  Z M 23.0489783653846 21.8758680555556  C 23.4546274038462 22.2954282407407  23.6574519230769 22.8016975308642  23.6574519230769 23.3946759259259  C 23.6574519230769 23.9764660493827  23.4519230769231 24.4799382716049  23.0408653846154 24.9050925925926  C 22.6298076923077 25.3302469135802  22.1430288461538 25.5428240740741  21.5805288461538 25.5428240740741  C 21.0072115384615 25.5428240740741  20.5177283653846 25.3330439814815  20.1120793269231 24.9134837962963  C 19.7064302884615 24.4939236111111  19.5036057692308 23.9876543209877  19.5036057692308 23.3946759259259  C 19.5036057692308 22.8016975308642  19.7064302884615 22.2954282407407  20.1120793269231 21.8758680555556  C 20.5177283653846 21.4563078703704  21.0072115384615 21.2465277777778  21.5805288461538 21.2465277777778  C 22.1538461538462 21.2465277777778  22.6433293269231 21.4563078703704  23.0489783653846 21.8758680555556  Z M 7.25300480769231 4.78298611111111  C 7.76141826923077 5.30883487654321  8.015625 5.94097222222222  8.015625 6.67939814814815  C 8.015625 7.41782407407408  7.76141826923077 8.04996141975308  7.25300480769231 8.57581018518518  C 6.74459134615385 9.10165895061728  6.13341346153846 9.36458333333333  5.41947115384615 9.36458333333333  C 4.70552884615385 9.36458333333333  4.09435096153846 9.10165895061728  3.5859375 8.57581018518518  C 3.07752403846154 8.04996141975308  2.82331730769231 7.41782407407408  2.82331730769231 6.67939814814815  C 2.82331730769231 5.94097222222222  3.07752403846154 5.30883487654321  3.5859375 4.78298611111111  C 4.09435096153846 4.25713734567901  4.70552884615385 3.99421296296296  5.41947115384615 3.99421296296296  C 6.13341346153846 3.99421296296296  6.74459134615385 4.25713734567901  7.25300480769231 4.78298611111111  Z M 26.3915264423077 13.5182291666667  C 26.7971754807692 13.9377893518519  27 14.4440586419753  27 15.037037037037  C 27 15.6300154320988  26.7971754807692 16.1362847222222  26.3915264423077 16.5558449074074  C 25.9858774038462 16.9754050925926  25.4963942307692 17.1851851851852  24.9230769230769 17.1851851851852  C 24.3497596153846 17.1851851851852  23.8602764423077 16.9754050925926  23.4546274038462 16.5558449074074  C 23.0489783653846 16.1362847222222  22.8461538461538 15.6300154320988  22.8461538461538 15.037037037037  C 22.8461538461538 14.4440586419753  23.0489783653846 13.9377893518519  23.4546274038462 13.5182291666667  C 23.8602764423077 13.0986689814815  24.3497596153846 12.8888888888889  24.9230769230769 12.8888888888889  C 25.4963942307692 12.8888888888889  25.9858774038462 13.0986689814815  26.3915264423077 13.5182291666667  Z M 15.7067307692308 0.939814814814816  C 16.3125 1.56635802469136  16.6153846153846 2.32716049382716  16.6153846153846 3.22222222222222  C 16.6153846153846 4.11728395061728  16.3125 4.87808641975308  15.7067307692308 5.50462962962963  C 15.1009615384615 6.13117283950617  14.3653846153846 6.44444444444444  13.5 6.44444444444444  C 12.6346153846154 6.44444444444444  11.8990384615385 6.13117283950617  11.2932692307692 5.50462962962963  C 10.6875 4.87808641975308  10.3846153846154 4.11728395061728  10.3846153846154 3.22222222222222  C 10.3846153846154 2.32716049382716  10.6875 1.56635802469136  11.2932692307692 0.939814814814816  C 11.8990384615385 0.313271604938273  12.6346153846154 0  13.5 0  C 14.3653846153846 0  15.1009615384615 0.313271604938273  15.7067307692308 0.939814814814816  Z M 24.1442307692308 4.02777777777778  C 24.8581730769231 4.7662037037037  25.2151442307692 5.65007716049383  25.2151442307692 6.67939814814815  C 25.2151442307692 7.71990740740741  24.8581730769231 8.60657793209876  24.1442307692308 9.33940972222222  C 23.4302884615385 10.0722415123457  22.5757211538462 10.4386574074074  21.5805288461538 10.4386574074074  C 20.5745192307692 10.4386574074074  19.7172475961538 10.0722415123457  19.0087139423077 9.33940972222222  C 18.3001802884615 8.60657793209876  17.9459134615385 7.71990740740741  17.9459134615385 6.67939814814815  C 17.9459134615385 5.65007716049383  18.3001802884615 4.7662037037037  19.0087139423077 4.02777777777778  C 19.7172475961538 3.28935185185185  20.5745192307692 2.92013888888889  21.5805288461538 2.92013888888889  C 22.5757211538462 2.92013888888889  23.4302884615385 3.28935185185185  24.1442307692308 4.02777777777778  Z " fill-rule="nonzero" fill="#000000" stroke="none" transform="matrix(1 0 0 1 98 81 )" />
  </g>
</svg>