<?xml version="1.0" encoding="utf-8"?>
<svg version="1.1" xmlns:xlink="http://www.w3.org/1999/xlink" width="12px" height="12px" viewBox="188 218.5  12 12" xmlns="http://www.w3.org/2000/svg">
  <path d="M 194 218.5  C 197.36 218.5  200 221.14  200 224.5  C 200 227.86  197.36 230.5  194 230.5  C 190.64 230.5  188 227.86  188 224.5  C 188 221.14  190.64 218.5  194 218.5  Z " fill-rule="nonzero" fill="#f0f0f0" stroke="none" />
  <path d="M 194 219  C 197.08 219  199.5 221.42  199.5 224.5  C 199.5 227.58  197.08 230  194 230  C 190.92 230  188.5 227.58  188.5 224.5  C 188.5 221.42  190.92 219  194 219  Z " stroke-width="1" stroke="#02a7f0" fill="none" />
  <path d="M 194 227.5  C 192.32 227.5  191 226.18  191 224.5  C 191 222.82  192.32 221.5  194 221.5  C 195.68 221.5  197 222.82  197 224.5  C 197 226.18  195.68 227.5  194 227.5  " fill-rule="nonzero" fill="#02a7f0" stroke="none" />
</svg>