<?xml version="1.0" encoding="utf-8"?>
<svg version="1.1" xmlns:xlink="http://www.w3.org/1999/xlink" width="24px" height="24px" xmlns="http://www.w3.org/2000/svg">
  <g transform="matrix(1 0 0 1 -575 -87 )">
    <path d="M 587 87  C 593.72 87  599 92.28  599 99  C 599 105.72  593.72 111  587 111  C 580.28 111  575 105.72  575 99  C 575 92.28  580.28 87  587 87  Z " fill-rule="nonzero" fill="#ffffff" stroke="none" />
    <path d="M 587 87.5  C 593.44 87.5  598.5 92.56  598.5 99  C 598.5 105.44  593.44 110.5  587 110.5  C 580.56 110.5  575.5 105.44  575.5 99  C 575.5 92.56  580.56 87.5  587 87.5  Z " stroke-width="1" stroke="#cccccc" fill="none" />
  </g>
</svg>