<?xml version="1.0" encoding="utf-8"?>
<svg version="1.1" xmlns:xlink="http://www.w3.org/1999/xlink" width="22px" height="23px" xmlns="http://www.w3.org/2000/svg">
  <g transform="matrix(1 0 0 1 -571 -88 )">
    <path d="M 5.61237980769231 17.3498263888889  C 5.94290865384615 17.6825810185185  6.10817307692308 18.0841049382716  6.10817307692308 18.5543981481481  C 6.10817307692308 19.0246913580247  5.94290865384615 19.4262152777778  5.61237980769231 19.7589699074074  C 5.28185096153846 20.091724537037  4.88301282051282 20.2581018518519  4.41586538461539 20.2581018518519  C 3.95753205128205 20.2581018518519  3.56089743589744 20.0895061728395  3.22596153846154 19.7523148148148  C 2.89102564102564 19.4151234567901  2.72355769230769 19.0158179012346  2.72355769230769 18.5543981481481  C 2.72355769230769 18.0841049382716  2.88882211538462 17.6825810185185  3.21935096153846 17.3498263888889  C 3.54987980769231 17.0170717592593  3.94871794871795 16.8506944444444  4.41586538461539 16.8506944444444  C 4.88301282051282 16.8506944444444  5.28185096153846 17.0170717592593  5.61237980769231 17.3498263888889  Z M 12.1965144230769 20.091724537037  C 12.5270432692308 20.4244791666667  12.6923076923077 20.8260030864198  12.6923076923077 21.2962962962963  C 12.6923076923077 21.7665895061728  12.5270432692308 22.1681134259259  12.1965144230769 22.5008680555556  C 11.8659855769231 22.8336226851852  11.4671474358974 23  11 23  C 10.5328525641026 23  10.1340144230769 22.8336226851852  9.80348557692308 22.5008680555556  C 9.47295673076923 22.1681134259259  9.30769230769231 21.7665895061728  9.30769230769231 21.2962962962963  C 9.30769230769231 20.8260030864198  9.47295673076923 20.4244791666667  9.80348557692308 20.091724537037  C 10.1340144230769 19.7589699074074  10.5328525641026 19.5925925925926  11 19.5925925925926  C 11.4671474358974 19.5925925925926  11.8659855769231 19.7589699074074  12.1965144230769 20.091724537037  Z M 2.88882211538462 10.7213541666667  C 3.21935096153846 11.0541087962963  3.38461538461539 11.4556327160494  3.38461538461539 11.9259259259259  C 3.38461538461539 12.3962191358025  3.21935096153846 12.7977430555556  2.88882211538462 13.1304976851852  C 2.55829326923077 13.4632523148148  2.15945512820513 13.6296296296296  1.69230769230769 13.6296296296296  C 1.22516025641026 13.6296296296296  0.826322115384615 13.4632523148148  0.495793269230769 13.1304976851852  C 0.165264423076923 12.7977430555556  0 12.3962191358025  0 11.9259259259259  C 0 11.4556327160494  0.165264423076923 11.0541087962963  0.495793269230769 10.7213541666667  C 0.826322115384615 10.388599537037  1.22516025641026 10.2222222222222  1.69230769230769 10.2222222222222  C 2.15945512820513 10.2222222222222  2.55829326923077 10.388599537037  2.88882211538462 10.7213541666667  Z M 18.7806490384615 17.3498263888889  C 19.1111778846154 17.6825810185185  19.2764423076923 18.0841049382716  19.2764423076923 18.5543981481481  C 19.2764423076923 19.0158179012346  19.1089743589744 19.4151234567901  18.7740384615385 19.7523148148148  C 18.4391025641026 20.0895061728395  18.0424679487179 20.2581018518519  17.5841346153846 20.2581018518519  C 17.1169871794872 20.2581018518519  16.7181490384615 20.091724537037  16.3876201923077 19.7589699074074  C 16.0570913461538 19.4262152777778  15.8918269230769 19.0246913580247  15.8918269230769 18.5543981481481  C 15.8918269230769 18.0841049382716  16.0570913461538 17.6825810185185  16.3876201923077 17.3498263888889  C 16.7181490384615 17.0170717592593  17.1169871794872 16.8506944444444  17.5841346153846 16.8506944444444  C 18.0512820512821 16.8506944444444  18.4501201923077 17.0170717592593  18.7806490384615 17.3498263888889  Z M 5.90985576923077 3.79340277777778  C 6.32411858974359 4.21045524691358  6.53125 4.71180555555556  6.53125 5.2974537037037  C 6.53125 5.88310185185185  6.32411858974359 6.38445216049382  5.90985576923077 6.80150462962963  C 5.49559294871795 7.21855709876543  4.99759615384615 7.42708333333333  4.41586538461539 7.42708333333333  C 3.83413461538462 7.42708333333333  3.33613782051282 7.21855709876543  2.921875 6.80150462962963  C 2.50761217948718 6.38445216049382  2.30048076923077 5.88310185185185  2.30048076923077 5.2974537037037  C 2.30048076923077 4.71180555555556  2.50761217948718 4.21045524691358  2.921875 3.79340277777778  C 3.33613782051282 3.37635030864197  3.83413461538462 3.16782407407407  4.41586538461539 3.16782407407407  C 4.99759615384615 3.16782407407407  5.49559294871795 3.37635030864197  5.90985576923077 3.79340277777778  Z M 21.5042067307692 10.7213541666667  C 21.8347355769231 11.0541087962963  22 11.4556327160494  22 11.9259259259259  C 22 12.3962191358025  21.8347355769231 12.7977430555556  21.5042067307692 13.1304976851852  C 21.1736778846154 13.4632523148148  20.7748397435897 13.6296296296296  20.3076923076923 13.6296296296296  C 19.8405448717949 13.6296296296296  19.4417067307692 13.4632523148148  19.1111778846154 13.1304976851852  C 18.7806490384615 12.7977430555556  18.6153846153846 12.3962191358025  18.6153846153846 11.9259259259259  C 18.6153846153846 11.4556327160494  18.7806490384615 11.0541087962963  19.1111778846154 10.7213541666667  C 19.4417067307692 10.388599537037  19.8405448717949 10.2222222222222  20.3076923076923 10.2222222222222  C 20.7748397435897 10.2222222222222  21.1736778846154 10.388599537037  21.5042067307692 10.7213541666667  Z M 12.7980769230769 0.745370370370371  C 13.2916666666667 1.24228395061728  13.5384615384615 1.84567901234568  13.5384615384615 2.55555555555556  C 13.5384615384615 3.26543209876543  13.2916666666667 3.86882716049382  12.7980769230769 4.36574074074074  C 12.3044871794872 4.86265432098765  11.7051282051282 5.11111111111111  11 5.11111111111111  C 10.2948717948718 5.11111111111111  9.69551282051282 4.86265432098765  9.20192307692308 4.36574074074074  C 8.70833333333333 3.86882716049382  8.46153846153846 3.26543209876543  8.46153846153846 2.55555555555556  C 8.46153846153846 1.84567901234568  8.70833333333333 1.24228395061728  9.20192307692308 0.745370370370371  C 9.69551282051282 0.248456790123458  10.2948717948718 0  11 0  C 11.7051282051282 0  12.3044871794872 0.248456790123458  12.7980769230769 0.745370370370371  Z M 19.6730769230769 3.19444444444444  C 20.2548076923077 3.78009259259259  20.5456730769231 4.48109567901234  20.5456730769231 5.2974537037037  C 20.5456730769231 6.12268518518519  20.2548076923077 6.82590663580247  19.6730769230769 7.40711805555556  C 19.0913461538462 7.98832947530864  18.3950320512821 8.27893518518519  17.5841346153846 8.27893518518519  C 16.7644230769231 8.27893518518519  16.0659054487179 7.98832947530864  15.4885817307692 7.40711805555556  C 14.9112580128205 6.82590663580247  14.6225961538462 6.12268518518519  14.6225961538462 5.2974537037037  C 14.6225961538462 4.48109567901234  14.9112580128205 3.78009259259259  15.4885817307692 3.19444444444444  C 16.0659054487179 2.6087962962963  16.7644230769231 2.31597222222222  17.5841346153846 2.31597222222222  C 18.3950320512821 2.31597222222222  19.0913461538462 2.6087962962963  19.6730769230769 3.19444444444444  Z " fill-rule="nonzero" fill="#000000" stroke="none" transform="matrix(1 0 0 1 571 88 )" />
  </g>
</svg>