<?xml version="1.0" encoding="utf-8"?>
<svg version="1.1" xmlns:xlink="http://www.w3.org/1999/xlink" width="21px" height="22px" xmlns="http://www.w3.org/2000/svg">
  <g transform="matrix(1 0 0 1 -307 -87 )">
    <path d="M 5.35727163461538 16.5954861111111  C 5.67277644230769 16.9137731481481  5.83052884615385 17.2978395061728  5.83052884615385 17.7476851851852  C 5.83052884615385 18.1975308641975  5.67277644230769 18.5815972222222  5.35727163461538 18.8998842592593  C 5.04176682692308 19.2181712962963  4.66105769230769 19.3773148148148  4.21514423076923 19.3773148148148  C 3.77764423076923 19.3773148148148  3.39903846153846 19.2160493827161  3.07932692307692 18.8935185185185  C 2.75961538461538 18.570987654321  2.59975961538462 18.1890432098765  2.59975961538462 17.7476851851852  C 2.59975961538462 17.2978395061728  2.75751201923077 16.9137731481481  3.07301682692308 16.5954861111111  C 3.38852163461538 16.2771990740741  3.76923076923077 16.1180555555556  4.21514423076923 16.1180555555556  C 4.66105769230769 16.1180555555556  5.04176682692308 16.2771990740741  5.35727163461538 16.5954861111111  Z M 11.6421274038462 19.2181712962963  C 11.9576322115385 19.5364583333333  12.1153846153846 19.920524691358  12.1153846153846 20.3703703703704  C 12.1153846153846 20.8202160493827  11.9576322115385 21.2042824074074  11.6421274038462 21.5225694444444  C 11.3266225961538 21.8408564814815  10.9459134615385 22  10.5 22  C 10.0540865384615 22  9.67337740384616 21.8408564814815  9.35787259615385 21.5225694444444  C 9.04236778846154 21.2042824074074  8.88461538461539 20.8202160493827  8.88461538461539 20.3703703703704  C 8.88461538461539 19.920524691358  9.04236778846154 19.5364583333333  9.35787259615385 19.2181712962963  C 9.67337740384616 18.8998842592593  10.0540865384615 18.7407407407407  10.5 18.7407407407407  C 10.9459134615385 18.7407407407407  11.3266225961538 18.8998842592593  11.6421274038462 19.2181712962963  Z M 2.75751201923077 10.2552083333333  C 3.07301682692308 10.5734953703704  3.23076923076923 10.9575617283951  3.23076923076923 11.4074074074074  C 3.23076923076923 11.8572530864198  3.07301682692308 12.2413194444444  2.75751201923077 12.5596064814815  C 2.44200721153846 12.8778935185185  2.06129807692308 13.037037037037  1.61538461538462 13.037037037037  C 1.16947115384615 13.037037037037  0.788762019230769 12.8778935185185  0.473257211538462 12.5596064814815  C 0.157752403846154 12.2413194444444  0 11.8572530864198  0 11.4074074074074  C 0 10.9575617283951  0.157752403846154 10.5734953703704  0.473257211538462 10.2552083333333  C 0.788762019230769 9.9369212962963  1.16947115384615 9.77777777777778  1.61538461538462 9.77777777777778  C 2.06129807692308 9.77777777777778  2.44200721153846 9.9369212962963  2.75751201923077 10.2552083333333  Z M 17.9269831730769 16.5954861111111  C 18.2424879807692 16.9137731481481  18.4002403846154 17.2978395061728  18.4002403846154 17.7476851851852  C 18.4002403846154 18.1890432098765  18.2403846153846 18.570987654321  17.9206730769231 18.8935185185185  C 17.6009615384615 19.2160493827161  17.2223557692308 19.3773148148148  16.7848557692308 19.3773148148148  C 16.3389423076923 19.3773148148148  15.9582331730769 19.2181712962963  15.6427283653846 18.8998842592593  C 15.3272235576923 18.5815972222222  15.1694711538462 18.1975308641975  15.1694711538462 17.7476851851852  C 15.1694711538462 17.2978395061728  15.3272235576923 16.9137731481481  15.6427283653846 16.5954861111111  C 15.9582331730769 16.2771990740741  16.3389423076923 16.1180555555556  16.7848557692308 16.1180555555556  C 17.2307692307692 16.1180555555556  17.6114783653846 16.2771990740741  17.9269831730769 16.5954861111111  Z M 5.64122596153846 3.62847222222222  C 6.03665865384615 4.02739197530864  6.234375 4.50694444444445  6.234375 5.06712962962963  C 6.234375 5.62731481481482  6.03665865384615 6.10686728395061  5.64122596153846 6.50578703703704  C 5.24579326923077 6.90470679012346  4.77043269230769 7.10416666666667  4.21514423076923 7.10416666666667  C 3.65985576923077 7.10416666666667  3.18449519230769 6.90470679012346  2.7890625 6.50578703703704  C 2.39362980769231 6.10686728395061  2.19591346153846 5.62731481481482  2.19591346153846 5.06712962962963  C 2.19591346153846 4.50694444444445  2.39362980769231 4.02739197530864  2.7890625 3.62847222222222  C 3.18449519230769 3.2295524691358  3.65985576923077 3.03009259259259  4.21514423076923 3.03009259259259  C 4.77043269230769 3.03009259259259  5.24579326923077 3.2295524691358  5.64122596153846 3.62847222222222  Z M 20.5267427884615 10.2552083333333  C 20.8422475961539 10.5734953703704  21 10.9575617283951  21 11.4074074074074  C 21 11.8572530864198  20.8422475961539 12.2413194444444  20.5267427884615 12.5596064814815  C 20.2112379807692 12.8778935185185  19.8305288461539 13.037037037037  19.3846153846154 13.037037037037  C 18.9387019230769 13.037037037037  18.5579927884615 12.8778935185185  18.2424879807692 12.5596064814815  C 17.9269831730769 12.2413194444444  17.7692307692308 11.8572530864198  17.7692307692308 11.4074074074074  C 17.7692307692308 10.9575617283951  17.9269831730769 10.5734953703704  18.2424879807692 10.2552083333333  C 18.5579927884615 9.9369212962963  18.9387019230769 9.77777777777778  19.3846153846154 9.77777777777778  C 19.8305288461539 9.77777777777778  20.2112379807692 9.9369212962963  20.5267427884615 10.2552083333333  Z M 12.2163461538462 0.712962962962964  C 12.6875 1.18827160493827  12.9230769230769 1.76543209876543  12.9230769230769 2.44444444444445  C 12.9230769230769 3.12345679012346  12.6875 3.70061728395061  12.2163461538462 4.17592592592592  C 11.7451923076923 4.65123456790123  11.1730769230769 4.88888888888889  10.5 4.88888888888889  C 9.82692307692308 4.88888888888889  9.2548076923077 4.65123456790123  8.78365384615385 4.17592592592592  C 8.3125 3.70061728395061  8.07692307692308 3.12345679012346  8.07692307692308 2.44444444444445  C 8.07692307692308 1.76543209876543  8.3125 1.18827160493827  8.78365384615385 0.712962962962964  C 9.2548076923077 0.237654320987655  9.82692307692308 0  10.5 0  C 11.1730769230769 0  11.7451923076923 0.237654320987655  12.2163461538462 0.712962962962964  Z M 18.7788461538462 3.05555555555555  C 19.3341346153846 3.61574074074074  19.6117788461538 4.28626543209876  19.6117788461538 5.06712962962963  C 19.6117788461538 5.85648148148148  19.3341346153846 6.52912808641975  18.7788461538462 7.08506944444445  C 18.2235576923077 7.64101080246913  17.5588942307692 7.91898148148148  16.7848557692308 7.91898148148148  C 16.0024038461538 7.91898148148148  15.3356370192308 7.64101080246913  14.7845552884615 7.08506944444445  C 14.2334735576923 6.52912808641975  13.9579326923077 5.85648148148148  13.9579326923077 5.06712962962963  C 13.9579326923077 4.28626543209876  14.2334735576923 3.61574074074074  14.7845552884615 3.05555555555555  C 15.3356370192308 2.49537037037037  16.0024038461538 2.21527777777778  16.7848557692308 2.21527777777778  C 17.5588942307692 2.21527777777778  18.2235576923077 2.49537037037037  18.7788461538462 3.05555555555555  Z " fill-rule="nonzero" fill="#000000" stroke="none" transform="matrix(1 0 0 1 307 87 )" />
  </g>
</svg>