<?xml version="1.0" encoding="utf-8"?>
<svg version="1.1" xmlns:xlink="http://www.w3.org/1999/xlink" width="12px" height="12px" viewBox="88 234.5  12 12" xmlns="http://www.w3.org/2000/svg">
  <path d="M 94 234.5  C 97.36 234.5  100 237.14  100 240.5  C 100 243.86  97.36 246.5  94 246.5  C 90.64 246.5  88 243.86  88 240.5  C 88 237.14  90.64 234.5  94 234.5  Z " fill-rule="nonzero" fill="#f0f0f0" stroke="none" />
  <path d="M 94 235  C 97.08 235  99.5 237.42  99.5 240.5  C 99.5 243.58  97.08 246  94 246  C 90.92 246  88.5 243.58  88.5 240.5  C 88.5 237.42  90.92 235  94 235  Z " stroke-width="1" stroke="#d7d7d7" fill="none" />
  <path d="M 94 243.5  C 92.32 243.5  91 242.18  91 240.5  C 91 238.82  92.32 237.5  94 237.5  C 95.68 237.5  97 238.82  97 240.5  C 97 242.18  95.68 243.5  94 243.5  " fill-rule="nonzero" fill="#d7d7d7" stroke="none" />
</svg>