<?xml version="1.0" encoding="utf-8"?>
<svg version="1.1" xmlns:xlink="http://www.w3.org/1999/xlink" width="12px" height="12px" viewBox="248 234.5  12 12" xmlns="http://www.w3.org/2000/svg">
  <path d="M 254 234.5  C 257.36 234.5  260 237.14  260 240.5  C 260 243.86  257.36 246.5  254 246.5  C 250.64 246.5  248 243.86  248 240.5  C 248 237.14  250.64 234.5  254 234.5  Z " fill-rule="nonzero" fill="#f0f0f0" stroke="none" />
  <path d="M 254 235  C 257.08 235  259.5 237.42  259.5 240.5  C 259.5 243.58  257.08 246  254 246  C 250.92 246  248.5 243.58  248.5 240.5  C 248.5 237.42  250.92 235  254 235  Z " stroke-width="1" stroke="#d7d7d7" fill="none" />
  <path d="M 254 243.5  C 252.32 243.5  251 242.18  251 240.5  C 251 238.82  252.32 237.5  254 237.5  C 255.68 237.5  257 238.82  257 240.5  C 257 242.18  255.68 243.5  254 243.5  " fill-rule="nonzero" fill="#d7d7d7" stroke="none" />
</svg>