<?xml version="1.0" encoding="utf-8"?>
<svg version="1.1" xmlns:xlink="http://www.w3.org/1999/xlink" width="12px" height="12px" viewBox="122 524.5  12 12" xmlns="http://www.w3.org/2000/svg">
  <path d="M 128 524.5  C 131.36 524.5  134 527.14  134 530.5  C 134 533.86  131.36 536.5  128 536.5  C 124.64 536.5  122 533.86  122 530.5  C 122 527.14  124.64 524.5  128 524.5  Z " fill-rule="nonzero" fill="#ffffff" stroke="none" />
  <path d="M 128 525  C 131.08 525  133.5 527.42  133.5 530.5  C 133.5 533.58  131.08 536  128 536  C 124.92 536  122.5 533.58  122.5 530.5  C 122.5 527.42  124.92 525  128 525  Z " stroke-width="1" stroke="#d7d7d7" fill="none" />
  <path d="M 128 533.5  C 126.32 533.5  125 532.18  125 530.5  C 125 528.82  126.32 527.5  128 527.5  C 129.68 527.5  131 528.82  131 530.5  C 131 532.18  129.68 533.5  128 533.5  " fill-rule="nonzero" fill="#d7d7d7" stroke="none" />
</svg>