<?xml version="1.0" encoding="utf-8"?>
<svg version="1.1" xmlns:xlink="http://www.w3.org/1999/xlink" width="18px" height="18px" xmlns="http://www.w3.org/2000/svg">
  <g transform="matrix(1 0 0 1 -20 -264 )">
    <path d="M 12.708984375 12.708984375  C 13.337890625 12.080078125  13.77734375 11.34375  14.02734375 10.5  L 12.75 10.5  C 12.546875 10.5  12.37109375 10.42578125  12.22265625 10.27734375  C 12.07421875 10.12890625  12 9.953125  12 9.75  L 12 8.25  C 12 8.046875  12.07421875 7.87109375  12.22265625 7.72265625  C 12.37109375 7.57421875  12.546875 7.5  12.75 7.5  L 14.02734375 7.5  C 13.77734375 6.65625  13.337890625 5.919921875  12.708984375 5.291015625  C 12.080078125 4.662109375  11.34375 4.22265625  10.5 3.97265625  L 10.5 5.25  C 10.5 5.453125  10.42578125 5.62890625  10.27734375 5.77734375  C 10.12890625 5.92578125  9.953125 6  9.75 6  L 8.25 6  C 8.046875 6  7.87109375 5.92578125  7.72265625 5.77734375  C 7.57421875 5.62890625  7.5 5.453125  7.5 5.25  L 7.5 3.97265625  C 6.65625 4.22265625  5.919921875 4.662109375  5.291015625 5.291015625  C 4.662109375 5.919921875  4.22265625 6.65625  3.97265625 7.5  L 5.25 7.5  C 5.453125 7.5  5.62890625 7.57421875  5.77734375 7.72265625  C 5.92578125 7.87109375  6 8.046875  6 8.25  L 6 9.75  C 6 9.953125  5.92578125 10.12890625  5.77734375 10.27734375  C 5.62890625 10.42578125  5.453125 10.5  5.25 10.5  L 3.97265625 10.5  C 4.22265625 11.34375  4.662109375 12.080078125  5.291015625 12.708984375  C 5.919921875 13.337890625  6.65625 13.77734375  7.5 14.02734375  L 7.5 12.75  C 7.5 12.546875  7.57421875 12.37109375  7.72265625 12.22265625  C 7.87109375 12.07421875  8.046875 12  8.25 12  L 9.75 12  C 9.953125 12  10.12890625 12.07421875  10.27734375 12.22265625  C 10.42578125 12.37109375  10.5 12.546875  10.5 12.75  L 10.5 14.02734375  C 11.34375 13.77734375  12.080078125 13.337890625  12.708984375 12.708984375  Z M 17.77734375 7.72265625  C 17.92578125 7.87109375  18 8.046875  18 8.25  L 18 9.75  C 18 9.953125  17.92578125 10.12890625  17.77734375 10.27734375  C 17.62890625 10.42578125  17.453125 10.5  17.25 10.5  L 15.57421875 10.5  C 15.28515625 11.7578125  14.681640625 12.845703125  13.763671875 13.763671875  C 12.845703125 14.681640625  11.7578125 15.28515625  10.5 15.57421875  L 10.5 17.25  C 10.5 17.453125  10.42578125 17.62890625  10.27734375 17.77734375  C 10.12890625 17.92578125  9.953125 18  9.75 18  L 8.25 18  C 8.046875 18  7.87109375 17.92578125  7.72265625 17.77734375  C 7.57421875 17.62890625  7.5 17.453125  7.5 17.25  L 7.5 15.57421875  C 6.2421875 15.28515625  5.154296875 14.681640625  4.236328125 13.763671875  C 3.318359375 12.845703125  2.71484375 11.7578125  2.42578125 10.5  L 0.75 10.5  C 0.546875 10.5  0.37109375 10.42578125  0.22265625 10.27734375  C 0.07421875 10.12890625  0 9.953125  0 9.75  L 0 8.25  C 0 8.046875  0.07421875 7.87109375  0.22265625 7.72265625  C 0.37109375 7.57421875  0.546875 7.5  0.75 7.5  L 2.42578125 7.5  C 2.71484375 6.2421875  3.318359375 5.154296875  4.236328125 4.236328125  C 5.154296875 3.318359375  6.2421875 2.71484375  7.5 2.42578125  L 7.5 0.749999999999999  C 7.5 0.546874999999998  7.57421875 0.371093749999998  7.72265625 0.222656249999999  C 7.87109375 0.0742187499999991  8.046875 0  8.25 0  L 9.75 0  C 9.953125 0  10.12890625 0.0742187499999991  10.27734375 0.222656249999999  C 10.42578125 0.371093749999998  10.5 0.546874999999998  10.5 0.749999999999999  L 10.5 2.42578125  C 11.7578125 2.71484375  12.845703125 3.318359375  13.763671875 4.236328125  C 14.681640625 5.154296875  15.28515625 6.2421875  15.57421875 7.5  L 17.25 7.5  C 17.453125 7.5  17.62890625 7.57421875  17.77734375 7.72265625  Z " fill-rule="nonzero" fill="#000000" stroke="none" transform="matrix(1 0 0 1 20 264 )" />
  </g>
</svg>