<?xml version="1.0" encoding="utf-8"?>
<svg version="1.1" xmlns:xlink="http://www.w3.org/1999/xlink" width="17px" height="17px" xmlns="http://www.w3.org/2000/svg">
  <g transform="matrix(1 0 0 1 -30 -29 )">
    <path d="M 16.7897135416667 13.85234375  C 16.9299045138889 14.0205729166667  17 14.2197916666667  17 14.45  L 17 16.15  C 17 16.3802083333333  16.9299045138889 16.5794270833333  16.7897135416667 16.74765625  C 16.6495225694444 16.9158854166667  16.4835069444444 17  16.2916666666667 17  L 0.708333333333333 17  C 0.516493055555556 17  0.350477430555556 16.9158854166667  0.210286458333333 16.74765625  C 0.0700954861111111 16.5794270833333  0 16.3802083333333  0 16.15  L 0 14.45  C 0 14.2197916666667  0.0700954861111111 14.0205729166667  0.210286458333333 13.85234375  C 0.350477430555556 13.6841145833333  0.516493055555556 13.6  0.708333333333333 13.6  L 16.2916666666667 13.6  C 16.4835069444444 13.6  16.6495225694444 13.6841145833333  16.7897135416667 13.85234375  Z M 16.7897135416667 7.05234375  C 16.9299045138889 7.22057291666667  17 7.41979166666667  17 7.65  L 17 9.35  C 17 9.58020833333333  16.9299045138889 9.77942708333333  16.7897135416667 9.94765625  C 16.6495225694444 10.1158854166667  16.4835069444444 10.2  16.2916666666667 10  L 0.708333333333333 10  C 0.516493055555556 10.2  0.350477430555556 10.1158854166667  0.210286458333333 9.94765625  C 0.0700954861111111 9.77942708333333  0 9.58020833333333  0 9.35  L 0 7.65  C 0 7.41979166666667  0.0700954861111111 7.22057291666667  0.210286458333333 7.05234375  C 0.350477430555556 6.88411458333333  0.516493055555556 6.8  0.708333333333333 7  L 16.2916666666667 7  C 16.4835069444444 6.8  16.6495225694444 6.88411458333333  16.7897135416667 7.05234375  Z M 16.7897135416667 0.252343750000001  C 16.9299045138889 0.420572916666665  17 0.619791666666665  17 0.850000000000001  L 17 2.55  C 17 2.78020833333333  16.9299045138889 2.97942708333333  16.7897135416667 3.14765625  C 16.6495225694444 3.31588541666666  16.4835069444444 3.4  16.2916666666667 3.4  L 0.708333333333333 3.4  C 0.516493055555556 3.4  0.350477430555556 3.31588541666666  0.210286458333333 3.14765625  C 0.0700954861111111 2.97942708333333  0 2.78020833333333  0 2.55  L 0 0.850000000000001  C 0 0.619791666666665  0.0700954861111111 0.420572916666665  0.210286458333333 0.252343750000001  C 0.350477430555556 0.0841145833333323  0.516493055555556 0  0.708333333333333 0  L 16.2916666666667 0  C 16.4835069444444 0  16.6495225694444 0.0841145833333323  16.7897135416667 0.252343750000001  Z " fill-rule="nonzero" fill="#000000" stroke="none" transform="matrix(1 0 0 1 30 29 )" />
  </g>
</svg>