<?xml version="1.0" encoding="utf-8"?>
<svg version="1.1" xmlns:xlink="http://www.w3.org/1999/xlink" width="162px" height="151px" xmlns="http://www.w3.org/2000/svg">
  <defs>
    <mask fill="white" id="clip422">
      <path d="M 20.5471434240096 1.15664828090359  C 20.5471434240096 1.15664828090359  21.50374672268 0  21.50374672268 0  C 21.50374672268 0  51.1570720739764 24.1451010845391  51.1570720739764 24.1451010845391  C 43.181748988625 33.594957583054  38.3858246216133 45.7399263076941  38.3858246216133 58.9880316145963  C 38.3858246216133 89.1125584912288  63.1831734832925 113.533312626867  93.7722534971137 113.533312626867  C 109.73515170112 113.533312626867  124.120805297393 106.882882597326  134.228255388218 96.2419622575839  C 134.228255388218 96.2419622575839  162 121.909084381402  162 121.909084381402  C 127.361000772974 158.213664786719  69.69216073322 160.890333202632  31.7355372429149 127.955239860469  C -5.8415200124872 95.3494974517278  -10.656823626701 39.5041724966414  20.5471434240096 1.15664828090359  Z " fill-rule="evenodd" />
    </mask>
  </defs>
  <g transform="matrix(1 0 0 1 -100 -147 )">
    <path d="M 20.5471434240096 1.15664828090359  C 20.5471434240096 1.15664828090359  21.50374672268 0  21.50374672268 0  C 21.50374672268 0  51.1570720739764 24.1451010845391  51.1570720739764 24.1451010845391  C 43.181748988625 33.594957583054  38.3858246216133 45.7399263076941  38.3858246216133 58.9880316145963  C 38.3858246216133 89.1125584912288  63.1831734832925 113.533312626867  93.7722534971137 113.533312626867  C 109.73515170112 113.533312626867  124.120805297393 106.882882597326  134.228255388218 96.2419622575839  C 134.228255388218 96.2419622575839  162 121.909084381402  162 121.909084381402  C 127.361000772974 158.213664786719  69.69216073322 160.890333202632  31.7355372429149 127.955239860469  C -5.8415200124872 95.3494974517278  -10.656823626701 39.5041724966414  20.5471434240096 1.15664828090359  Z " fill-rule="nonzero" fill="#ffff00" stroke="none" transform="matrix(1 0 0 1 100 147 )" />
    <path d="M 20.5471434240096 1.15664828090359  C 20.5471434240096 1.15664828090359  21.50374672268 0  21.50374672268 0  C 21.50374672268 0  51.1570720739764 24.1451010845391  51.1570720739764 24.1451010845391  C 43.181748988625 33.594957583054  38.3858246216133 45.7399263076941  38.3858246216133 58.9880316145963  C 38.3858246216133 89.1125584912288  63.1831734832925 113.533312626867  93.7722534971137 113.533312626867  C 109.73515170112 113.533312626867  124.120805297393 106.882882597326  134.228255388218 96.2419622575839  C 134.228255388218 96.2419622575839  162 121.909084381402  162 121.909084381402  C 127.361000772974 158.213664786719  69.69216073322 160.890333202632  31.7355372429149 127.955239860469  C -5.8415200124872 95.3494974517278  -10.656823626701 39.5041724966414  20.5471434240096 1.15664828090359  Z " stroke-width="2" stroke="#d7d7d7" fill="none" transform="matrix(1 0 0 1 100 147 )" mask="url(#clip422)" />
  </g>
</svg>