<?xml version="1.0" encoding="utf-8"?>
<svg version="1.1" xmlns:xlink="http://www.w3.org/1999/xlink" width="72px" height="58px" xmlns="http://www.w3.org/2000/svg">
  <defs>
    <mask fill="white" id="clip174">
      <path d="M 71.1649524044014 0.0037011538578567  C 71.1649524044014 0.0037011538578567  72 0  72 0  L 71.9994838044944 38.154789522878  C 71.9994838044944 38.154789522878  71.1604380870137 38.1621456562343  71.1604380870137 38.1621456562343  C 54.4399408600287 38.4317982755978  39.5254415099229 46.0911954510209  29.5741026912569 58  C 29.5741026912569 58  0 33.6796481878489  0 33.6796481878489  C 17.5745295933965 12.561710514108  43.6232254426472 0.247866245463375  71.1649524044014 0.0037011538578567  Z " fill-rule="evenodd" />
    </mask>
  </defs>
  <g transform="matrix(1 0 0 1 -91 -98 )">
    <path d="M 71.1649524044014 0.0037011538578567  C 71.1649524044014 0.0037011538578567  72 0  72 0  L 71.9994838044944 38.154789522878  C 71.9994838044944 38.154789522878  71.1604380870137 38.1621456562343  71.1604380870137 38.1621456562343  C 54.4399408600287 38.4317982755978  39.5254415099229 46.0911954510209  29.5741026912569 58  C 29.5741026912569 58  0 33.6796481878489  0 33.6796481878489  C 17.5745295933965 12.561710514108  43.6232254426472 0.247866245463375  71.1649524044014 0.0037011538578567  Z " fill-rule="nonzero" fill="#d9001b" stroke="none" transform="matrix(1 0 0 1 91 98 )" />
    <path d="M 71.1649524044014 0.0037011538578567  C 71.1649524044014 0.0037011538578567  72 0  72 0  L 71.9994838044944 38.154789522878  C 71.9994838044944 38.154789522878  71.1604380870137 38.1621456562343  71.1604380870137 38.1621456562343  C 54.4399408600287 38.4317982755978  39.5254415099229 46.0911954510209  29.5741026912569 58  C 29.5741026912569 58  0 33.6796481878489  0 33.6796481878489  C 17.5745295933965 12.561710514108  43.6232254426472 0.247866245463375  71.1649524044014 0.0037011538578567  Z " stroke-width="2" stroke="#d7d7d7" fill="none" transform="matrix(1 0 0 1 91 98 )" mask="url(#clip174)" />
  </g>
</svg>