<?xml version="1.0" encoding="utf-8"?>
<svg version="1.1" xmlns:xlink="http://www.w3.org/1999/xlink" width="93px" height="157px" xmlns="http://www.w3.org/2000/svg">
  <defs>
    <mask fill="white" id="clip115">
      <path d="M 0 38.282216418758  C 0 38.282216418758  0 0  0 0  C 37.0830254963481 0  70.621806321186 22.0787677507739  85.3492516754164 56.1858916484026  C 99.9294225761045 89.9519443070551  93.313447045631 129.117089451852  68.5485539305477 156.183526286155  C 68.5485539305477 156.183526286155  67.7925505402973 157  67.7925505402973 157  C 67.7925505402973 157  40.2285930984888 131.058664992061  40.2285930984888 131.058664992061  C 49.4201811989328 121.205011300639  55.0469823657391 107.965740422561  55.0469823657391 93.4086034011827  C 55.0469823657391 63.2675926394046  30.9243191722859 38.7764067366315  0.982620974608833 38.2895971196522  C 0.982620974608833 38.2895971196522  0 38.282216418758  0 38.282216418758  Z " fill-rule="evenodd" />
    </mask>
  </defs>
  <g transform="matrix(1 0 0 1 -193 -113 )">
    <path d="M 0 38.282216418758  C 0 38.282216418758  0 0  0 0  C 37.0830254963481 0  70.621806321186 22.0787677507739  85.3492516754164 56.1858916484026  C 99.9294225761045 89.9519443070551  93.313447045631 129.117089451852  68.5485539305477 156.183526286155  C 68.5485539305477 156.183526286155  67.7925505402973 157  67.7925505402973 157  C 67.7925505402973 157  40.2285930984888 131.058664992061  40.2285930984888 131.058664992061  C 49.4201811989328 121.205011300639  55.0469823657391 107.965740422561  55.0469823657391 93.4086034011827  C 55.0469823657391 63.2675926394046  30.9243191722859 38.7764067366315  0.982620974608833 38.2895971196522  C 0.982620974608833 38.2895971196522  0 38.282216418758  0 38.282216418758  Z " fill-rule="nonzero" fill="#02a7f0" stroke="none" transform="matrix(1 0 0 1 193 113 )" />
    <path d="M 0 38.282216418758  C 0 38.282216418758  0 0  0 0  C 37.0830254963481 0  70.621806321186 22.0787677507739  85.3492516754164 56.1858916484026  C 99.9294225761045 89.9519443070551  93.313447045631 129.117089451852  68.5485539305477 156.183526286155  C 68.5485539305477 156.183526286155  67.7925505402973 157  67.7925505402973 157  C 67.7925505402973 157  40.2285930984888 131.058664992061  40.2285930984888 131.058664992061  C 49.4201811989328 121.205011300639  55.0469823657391 107.965740422561  55.0469823657391 93.4086034011827  C 55.0469823657391 63.2675926394046  30.9243191722859 38.7764067366315  0.982620974608833 38.2895971196522  C 0.982620974608833 38.2895971196522  0 38.282216418758  0 38.282216418758  Z " stroke-width="2" stroke="#000000" fill="none" stroke-opacity="0.850980392156863" transform="matrix(1 0 0 1 193 113 )" mask="url(#clip115)" />
  </g>
</svg>