<?xml version="1.0" encoding="utf-8"?>
<svg version="1.1" xmlns:xlink="http://www.w3.org/1999/xlink" width="15px" height="39px" xmlns="http://www.w3.org/2000/svg">
  <defs>
    <mask fill="white" id="clip114">
      <path d="M 13.9886426245412 0.00512213642370836  C 13.9886426245412 0.00512213642370836  15 0  15 0  L 14.9995024632694 38.3257630153381  C 14.9995024632694 38.3257630153381  14.2277317130547 38.3317496978479  14.2277317130547 38.3317496978479  C 11.6866372889758 38.3676563620344  9.18580764883993 38.5645837613846  6.7356389782488 38.9124653297377  C 6.7356389782488 38.9124653297377  6.16215396266541 39  6.16215396266541 39  L 0 1.13525529996181  C 4.59811127430922 0.434616022887541  9.27197609654889 0.0529032239407308  13.9886426245412 0.00512213642370836  Z " fill-rule="evenodd" />
    </mask>
  </defs>
  <g transform="matrix(1 0 0 1 -179 -113 )">
    <path d="M 13.9886426245412 0.00512213642370836  C 13.9886426245412 0.00512213642370836  15 0  15 0  L 14.9995024632694 38.3257630153381  C 14.9995024632694 38.3257630153381  14.2277317130547 38.3317496978479  14.2277317130547 38.3317496978479  C 11.6866372889758 38.3676563620344  9.18580764883993 38.5645837613846  6.7356389782488 38.9124653297377  C 6.7356389782488 38.9124653297377  6.16215396266541 39  6.16215396266541 39  L 0 1.13525529996181  C 4.59811127430922 0.434616022887541  9.27197609654889 0.0529032239407308  13.9886426245412 0.00512213642370836  Z " fill-rule="nonzero" fill="#d9001b" stroke="none" transform="matrix(1 0 0 1 179 113 )" />
    <path d="M 13.9886426245412 0.00512213642370836  C 13.9886426245412 0.00512213642370836  15 0  15 0  L 14.9995024632694 38.3257630153381  C 14.9995024632694 38.3257630153381  14.2277317130547 38.3317496978479  14.2277317130547 38.3317496978479  C 11.6866372889758 38.3676563620344  9.18580764883993 38.5645837613846  6.7356389782488 38.9124653297377  C 6.7356389782488 38.9124653297377  6.16215396266541 39  6.16215396266541 39  L 0 1.13525529996181  C 4.59811127430922 0.434616022887541  9.27197609654889 0.0529032239407308  13.9886426245412 0.00512213642370836  Z " stroke-width="2" stroke="#d7d7d7" fill="none" transform="matrix(1 0 0 1 179 113 )" mask="url(#clip114)" />
  </g>
</svg>