<?xml version="1.0" encoding="utf-8"?>
<svg version="1.1" xmlns:xlink="http://www.w3.org/1999/xlink" width="16px" height="16px" viewBox="35 135.5  16 16" xmlns="http://www.w3.org/2000/svg">
  <path d="M 43 135.5  C 47.48 135.5  51 139.02  51 143.5  C 51 147.98  47.48 151.5  43 151.5  C 38.52 151.5  35 147.98  35 143.5  C 35 139.02  38.52 135.5  43 135.5  Z " fill-rule="nonzero" fill="#ffffff" stroke="none" />
  <path d="M 43 136  C 47.2 136  50.5 139.3  50.5 143.5  C 50.5 147.7  47.2 151  43 151  C 38.8 151  35.5 147.7  35.5 143.5  C 35.5 139.3  38.8 136  43 136  Z " stroke-width="1" stroke="#02a7f0" fill="none" />
  <path d="M 43 147.5  C 40.76 147.5  39 145.74  39 143.5  C 39 141.26  40.76 139.5  43 139.5  C 45.24 139.5  47 141.26  47 143.5  C 47 145.74  45.24 147.5  43 147.5  " fill-rule="nonzero" fill="#02a7f0" stroke="none" />
</svg>