<?xml version="1.0" encoding="utf-8"?>
<svg version="1.1" xmlns:xlink="http://www.w3.org/1999/xlink" width="16px" height="16px" viewBox="60 253.5  16 16" xmlns="http://www.w3.org/2000/svg">
  <path d="M 68 253.5  C 72.48 253.5  76 257.02  76 261.5  C 76 265.98  72.48 269.5  68 269.5  C 63.52 269.5  60 265.98  60 261.5  C 60 257.02  63.52 253.5  68 253.5  Z " fill-rule="nonzero" fill="#f0f0f0" stroke="none" />
  <path d="M 68 254  C 72.2 254  75.5 257.3  75.5 261.5  C 75.5 265.7  72.2 269  68 269  C 63.8 269  60.5 265.7  60.5 261.5  C 60.5 257.3  63.8 254  68 254  Z " stroke-width="1" stroke="#8c8c8c" fill="none" />
  <path d="M 68 265.5  C 65.76 265.5  64 263.74  64 261.5  C 64 259.26  65.76 257.5  68 257.5  C 70.24 257.5  72 259.26  72 261.5  C 72 263.74  70.24 265.5  68 265.5  " fill-rule="nonzero" fill="#8c8c8c" stroke="none" />
</svg>