<?xml version="1.0" encoding="utf-8"?>
<svg version="1.1" xmlns:xlink="http://www.w3.org/1999/xlink" width="16px" height="16px" viewBox="34 65.5  16 16" xmlns="http://www.w3.org/2000/svg">
  <path d="M 42 65.5  C 46.48 65.5  50 69.02  50 73.5  C 50 77.98  46.48 81.5  42 81.5  C 37.52 81.5  34 77.98  34 73.5  C 34 69.02  37.52 65.5  42 65.5  Z " fill-rule="nonzero" fill="#f0f0f0" stroke="none" />
  <path d="M 42 66  C 46.2 66  49.5 69.3  49.5 73.5  C 49.5 77.7  46.2 81  42 81  C 37.8 81  34.5 77.7  34.5 73.5  C 34.5 69.3  37.8 66  42 66  Z " stroke-width="1" stroke="#02a7f0" fill="none" />
  <path d="M 42 77.5  C 39.76 77.5  38 75.74  38 73.5  C 38 71.26  39.76 69.5  42 69.5  C 44.24 69.5  46 71.26  46 73.5  C 46 75.74  44.24 77.5  42 77.5  " fill-rule="nonzero" fill="#02a7f0" stroke="none" />
</svg>