<?xml version="1.0" encoding="utf-8"?>
<svg version="1.1" xmlns:xlink="http://www.w3.org/1999/xlink" width="16px" height="16px" viewBox="34 125.5  16 16" xmlns="http://www.w3.org/2000/svg">
  <path d="M 42 125.5  C 46.48 125.5  50 129.02  50 133.5  C 50 137.98  46.48 141.5  42 141.5  C 37.52 141.5  34 137.98  34 133.5  C 34 129.02  37.52 125.5  42 125.5  Z " fill-rule="nonzero" fill="#f0f0f0" stroke="none" />
  <path d="M 42 126  C 46.2 126  49.5 129.3  49.5 133.5  C 49.5 137.7  46.2 141  42 141  C 37.8 141  34.5 137.7  34.5 133.5  C 34.5 129.3  37.8 126  42 126  Z " stroke-width="1" stroke="#02a7f0" fill="none" />
  <path d="M 42 137.5  C 39.76 137.5  38 135.74  38 133.5  C 38 131.26  39.76 129.5  42 129.5  C 44.24 129.5  46 131.26  46 133.5  C 46 135.74  44.24 137.5  42 137.5  " fill-rule="nonzero" fill="#02a7f0" stroke="none" />
</svg>