<?xml version="1.0" encoding="utf-8"?>
<svg version="1.1" xmlns:xlink="http://www.w3.org/1999/xlink" width="16px" height="16px" viewBox="20 130.5  16 16" xmlns="http://www.w3.org/2000/svg">
  <path d="M 28 130.5  C 32.48 130.5  36 134.02  36 138.5  C 36 142.98  32.48 146.5  28 146.5  C 23.52 146.5  20 142.98  20 138.5  C 20 134.02  23.52 130.5  28 130.5  Z " fill-rule="nonzero" fill="#ffffff" stroke="none" />
  <path d="M 28 131  C 32.2 131  35.5 134.3  35.5 138.5  C 35.5 142.7  32.2 146  28 146  C 23.8 146  20.5 142.7  20.5 138.5  C 20.5 134.3  23.8 131  28 131  Z " stroke-width="1" stroke="#02a7f0" fill="none" />
  <path d="M 28 142.5  C 25.76 142.5  24 140.74  24 138.5  C 24 136.26  25.76 134.5  28 134.5  C 30.24 134.5  32 136.26  32 138.5  C 32 140.74  30.24 142.5  28 142.5  " fill-rule="nonzero" fill="#02a7f0" stroke="none" />
</svg>