<?xml version="1.0" encoding="utf-8"?>
<svg version="1.1" xmlns:xlink="http://www.w3.org/1999/xlink" width="16px" height="16px" viewBox="60 310.5  16 16" xmlns="http://www.w3.org/2000/svg">
  <path d="M 68 310.5  C 72.48 310.5  76 314.02  76 318.5  C 76 322.98  72.48 326.5  68 326.5  C 63.52 326.5  60 322.98  60 318.5  C 60 314.02  63.52 310.5  68 310.5  Z " fill-rule="nonzero" fill="#f0f0f0" stroke="none" />
  <path d="M 68 311  C 72.2 311  75.5 314.3  75.5 318.5  C 75.5 322.7  72.2 326  68 326  C 63.8 326  60.5 322.7  60.5 318.5  C 60.5 314.3  63.8 311  68 311  Z " stroke-width="1" stroke="#8c8c8c" fill="none" />
  <path d="M 68 322.5  C 65.76 322.5  64 320.74  64 318.5  C 64 316.26  65.76 314.5  68 314.5  C 70.24 314.5  72 316.26  72 318.5  C 72 320.74  70.24 322.5  68 322.5  " fill-rule="nonzero" fill="#8c8c8c" stroke="none" />
</svg>