<?xml version="1.0" encoding="utf-8"?>
<svg version="1.1" xmlns:xlink="http://www.w3.org/1999/xlink" width="16px" height="16px" viewBox="210 4314.5  16 16" xmlns="http://www.w3.org/2000/svg">
  <path d="M 218 4314.5  C 222.48 4314.5  226 4318.02  226 4322.5  C 226 4326.98  222.48 4330.5  218 4330.5  C 213.52 4330.5  210 4326.98  210 4322.5  C 210 4318.02  213.52 4314.5  218 4314.5  Z " fill-rule="nonzero" fill="#ffffff" stroke="none" />
  <path d="M 218 4315  C 222.2 4315  225.5 4318.3  225.5 4322.5  C 225.5 4326.7  222.2 4330  218 4330  C 213.8 4330  210.5 4326.7  210.5 4322.5  C 210.5 4318.3  213.8 4315  218 4315  Z " stroke-width="1" stroke="#8c8c8c" fill="none" />
  <path d="M 218 4326.5  C 215.76 4326.5  214 4324.74  214 4322.5  C 214 4320.26  215.76 4318.5  218 4318.5  C 220.24 4318.5  222 4320.26  222 4322.5  C 222 4324.74  220.24 4326.5  218 4326.5  " fill-rule="nonzero" fill="#8c8c8c" stroke="none" />
</svg>