<?xml version="1.0" encoding="utf-8"?>
<svg version="1.1" xmlns:xlink="http://www.w3.org/1999/xlink" width="16px" height="16px" viewBox="20 132.5  16 16" xmlns="http://www.w3.org/2000/svg">
  <path d="M 28 132.5  C 32.48 132.5  36 136.02  36 140.5  C 36 144.98  32.48 148.5  28 148.5  C 23.52 148.5  20 144.98  20 140.5  C 20 136.02  23.52 132.5  28 132.5  Z " fill-rule="nonzero" fill="#ffffff" stroke="none" />
  <path d="M 28 133  C 32.2 133  35.5 136.3  35.5 140.5  C 35.5 144.7  32.2 148  28 148  C 23.8 148  20.5 144.7  20.5 140.5  C 20.5 136.3  23.8 133  28 133  Z " stroke-width="1" stroke="#02a7f0" fill="none" />
  <path d="M 28 144.5  C 25.76 144.5  24 142.74  24 140.5  C 24 138.26  25.76 136.5  28 136.5  C 30.24 136.5  32 138.26  32 140.5  C 32 142.74  30.24 144.5  28 144.5  " fill-rule="nonzero" fill="#02a7f0" stroke="none" />
</svg>