<?xml version="1.0" encoding="utf-8"?>
<svg version="1.1" xmlns:xlink="http://www.w3.org/1999/xlink" width="16px" height="16px" viewBox="20 185.5  16 16" xmlns="http://www.w3.org/2000/svg">
  <path d="M 28 185.5  C 32.48 185.5  36 189.02  36 193.5  C 36 197.98  32.48 201.5  28 201.5  C 23.52 201.5  20 197.98  20 193.5  C 20 189.02  23.52 185.5  28 185.5  Z " fill-rule="nonzero" fill="#f0f0f0" stroke="none" />
  <path d="M 28 186  C 32.2 186  35.5 189.3  35.5 193.5  C 35.5 197.7  32.2 201  28 201  C 23.8 201  20.5 197.7  20.5 193.5  C 20.5 189.3  23.8 186  28 186  Z " stroke-width="1" stroke="#02a7f0" fill="none" />
  <path d="M 28 197.5  C 25.76 197.5  24 195.74  24 193.5  C 24 191.26  25.76 189.5  28 189.5  C 30.24 189.5  32 191.26  32 193.5  C 32 195.74  30.24 197.5  28 197.5  " fill-rule="nonzero" fill="#02a7f0" stroke="none" />
</svg>