<?xml version="1.0" encoding="utf-8"?>
<svg version="1.1" xmlns:xlink="http://www.w3.org/1999/xlink" width="16px" height="16px" viewBox="210 4367.5  16 16" xmlns="http://www.w3.org/2000/svg">
  <path d="M 218 4367.5  C 222.48 4367.5  226 4371.02  226 4375.5  C 226 4379.98  222.48 4383.5  218 4383.5  C 213.52 4383.5  210 4379.98  210 4375.5  C 210 4371.02  213.52 4367.5  218 4367.5  Z " fill-rule="nonzero" fill="#f0f0f0" stroke="none" />
  <path d="M 218 4368  C 222.2 4368  225.5 4371.3  225.5 4375.5  C 225.5 4379.7  222.2 4383  218 4383  C 213.8 4383  210.5 4379.7  210.5 4375.5  C 210.5 4371.3  213.8 4368  218 4368  Z " stroke-width="1" stroke="#8c8c8c" fill="none" />
  <path d="M 218 4379.5  C 215.76 4379.5  214 4377.74  214 4375.5  C 214 4373.26  215.76 4371.5  218 4371.5  C 220.24 4371.5  222 4373.26  222 4375.5  C 222 4377.74  220.24 4379.5  218 4379.5  " fill-rule="nonzero" fill="#8c8c8c" stroke="none" />
</svg>