<?xml version="1.0" encoding="utf-8"?>
<svg version="1.1" xmlns:xlink="http://www.w3.org/1999/xlink" width="12px" height="12px" viewBox="20 446.5  12 12" xmlns="http://www.w3.org/2000/svg">
  <path d="M 26 446.5  C 29.36 446.5  32 449.14  32 452.5  C 32 455.86  29.36 458.5  26 458.5  C 22.64 458.5  20 455.86  20 452.5  C 20 449.14  22.64 446.5  26 446.5  Z " fill-rule="nonzero" fill="#f0f0f0" stroke="none" />
  <path d="M 26 447  C 29.08 447  31.5 449.42  31.5 452.5  C 31.5 455.58  29.08 458  26 458  C 22.92 458  20.5 455.58  20.5 452.5  C 20.5 449.42  22.92 447  26 447  Z " stroke-width="1" stroke="#d7d7d7" fill="none" />
  <path d="M 26 455.5  C 24.32 455.5  23 454.18  23 452.5  C 23 450.82  24.32 449.5  26 449.5  C 27.68 449.5  29 450.82  29 452.5  C 29 454.18  27.68 455.5  26 455.5  " fill-rule="nonzero" fill="#d7d7d7" stroke="none" />
</svg>