<?xml version="1.0" encoding="utf-8"?>
<svg version="1.1" xmlns:xlink="http://www.w3.org/1999/xlink" width="35px" height="34px" xmlns="http://www.w3.org/2000/svg">
  <g transform="matrix(1 0 0 1 -13 -13 )">
    <path d="M 33.96484375 15.36375  C 34.6549479166667 17.2620833333333  35 19.6208333333333  35 22.44  C 35 24.7916666666667  34.1731770833333 27.98625  32.51953125 32.02375  C 32.48046875 32.1229166666667  32.412109375 32.2929166666667  32.314453125 32.53375  C 32.216796875 32.7745833333333  32.12890625 32.9870833333333  32.05078125 33.17125  C 31.97265625 33.3554166666667  31.8880208333333 33.51125  31.796875 33.63875  C 31.640625 33.8795833333333  31.4583333333333 34  31.25 34  C 31.0546875 34  30.9016927083333 33.9291666666667  30.791015625 33.7875  C 30.6803385416667 33.6458333333333  30.625 33.46875  30.625 33.25625  C 30.625 33.12875  30.6412760416667 32.9410416666667  30.673828125 32.693125  C 30.7063802083333 32.4452083333333  30.72265625 32.27875  30.72265625 32.19375  C 30.7877604166667 31.2304166666667  30.8203125 30.3591666666667  30.8203125 29.58  C 30.8203125 28.1491666666667  30.7063802083333 26.8670833333333  30.478515625 25.73375  C 30.2506510416667 24.6004166666667  29.9348958333333 23.619375  29.53125 22.790625  C 29.1276041666667 21.961875  28.6067708333333 21.2464583333333  27.96875 20.644375  C 27.3307291666667 20.0422916666667  26.6438802083333 19.55  25.908203125 19.1675  C 25.1725260416667 18.785  24.306640625 18.4839583333333  23.310546875 18.264375  C 22.314453125 18.0447916666667  21.3118489583333 17.8925  20.302734375 17.8075  C 19.2936197916667 17.7225  18.1510416666667 17.68  16.875 17.68  L 12.5 17.68  L 12.5 23.12  C 12.5 23.4883333333333  12.3763020833333 23.8070833333333  12.12890625 24.07625  C 11.8815104166667 24.3454166666667  11.5885416666667 24.48  11.25 24.48  C 10.9114583333333 24.48  10.6184895833333 24.3454166666667  10.37109375 24.07625  L 0.37109375 13.19625  C 0.123697916666667 12.9270833333333  0 12.6083333333333  0 12.24  C 0 11.8716666666667  0.123697916666667 11.5529166666667  0.37109375 11.28375  L 10.37109375 0.403749999999999  C 10.6184895833333 0.134583333333332  10.9114583333333 0  11.25 0  C 11.5885416666667 0  11.8815104166667 0.134583333333332  12.12890625 0.403749999999999  C 12.3763020833333 0.672916666666662  12.5 0.991666666666663  12.5 1.36  L 12.5 6.8  L 16.875 6.8  C 26.1588541666667 6.8  31.85546875 9.65458333333333  33.96484375 15.36375  Z " fill-rule="nonzero" fill="#02a7f0" stroke="none" transform="matrix(1 0 0 1 13 13 )" />
  </g>
</svg>