<?xml version="1.0" encoding="utf-8"?>
<svg version="1.1" xmlns:xlink="http://www.w3.org/1999/xlink" width="781px" height="35px" xmlns="http://www.w3.org/2000/svg">
  <g transform="matrix(1 0 0 1 -181 -88 )">
    <path d="M 195.706783411065 117.666149068323  C 195.706783411065 117.666149068323  195.706783411065 114.852675818207  195.706783411065 114.852675818207  C 195.706783411065 114.852675818207  182.628419704315 105.91203026104  182.628419704315 105.91203026104  C 182.628419704315 105.91203026104  195.706783411065 97.896527770042  195.706783411065 97.896527770042  C 195.706783411065 97.896527770042  195.706783411065 93  195.706783411065 93  C 195.706783411065 90.5147186257614  197.721502036827 88.5  200.206783411065 88.5  C 200.206783411065 88.5  956.999999999999 88.5  956.999999999999 88.5  C 959.485281374237 88.5  961.499999999999 90.5147186257614  961.499999999999 93  C 961.499999999999 93  961.499999999999 117.666149068323  961.499999999999 117.666149068323  C 961.499999999999 120.151430442562  959.485281374237 122.166149068323  956.999999999999 122.166149068323  C 956.999999999999 122.166149068323  200.206783411065 122.166149068323  200.206783411065 122.166149068323  C 197.721502036827 122.166149068323  195.706783411065 120.151430442562  195.706783411065 117.666149068323  Z " fill-rule="nonzero" fill="#ffffff" stroke="none" />
    <path d="M 195.206783411065 117.666149068323  C 195.206783411065 117.666149068323  195.206783411065 115.116533864542  195.206783411065 115.116533864542  C 195.206783411065 115.116533864542  181.708943912495 105.889125799574  181.708943912495 105.889125799574  C 181.708943912495 105.889125799574  195.206783411065 97.6165338645418  195.206783411065 97.6165338645418  C 195.206783411065 97.6165338645418  195.206783411065 93  195.206783411065 93  C 195.206783411065 90.238576250846  197.445359661911 88  200.206783411065 88  C 200.206783411065 88  956.999999999999 88  956.999999999999 88  C 959.761423749153 88  961.999999999999 90.238576250846  961.999999999999 93  C 961.999999999999 93  961.999999999999 117.666149068323  961.999999999999 117.666149068323  C 961.999999999999 120.427572817477  959.761423749153 122.666149068323  956.999999999999 122.666149068323  C 956.999999999999 122.666149068323  200.206783411065 122.666149068323  200.206783411065 122.666149068323  C 197.445359661911 122.666149068323  195.206783411065 120.427572817477  195.206783411065 117.666149068323  Z M 196.206783411065 117.666149068323  C 196.206783411065 119.875288067646  197.997644411742 121.666149068323  200.206783411065 121.666149068323  C 200.206783411065 121.666149068323  956.999999999999 121.666149068323  956.999999999999 121.666149068323  C 959.209138999322 121.666149068323  960.999999999999 119.875288067646  960.999999999999 117.666149068323  C 960.999999999999 117.666149068323  960.999999999999 93  960.999999999999 93  C 960.999999999999 90.7908610006768  959.209138999322 89  956.999999999999 89  C 956.999999999999 89  200.206783411065 89  200.206783411065 89  C 197.997644411742 89  196.206783411065 90.7908610006768  196.206783411065 93  C 196.206783411065 93  196.206783411065 98.1765216755421  196.206783411065 98.1765216755421  C 196.206783411065 98.1765216755421  183.547895496135 105.934934722506  183.547895496135 105.934934722506  C 183.547895496135 105.934934722506  196.206783411065 114.588817771873  196.206783411065 114.588817771873  C 196.206783411065 114.588817771873  196.206783411065 117.666149068323  196.206783411065 117.666149068323  Z " fill-rule="nonzero" fill="#d7d7d7" stroke="none" />
  </g>
</svg>