<?xml version="1.0" encoding="utf-8"?>
<svg version="1.1" xmlns:xlink="http://www.w3.org/1999/xlink" width="12px" height="12px" viewBox="194 223.5  12 12" xmlns="http://www.w3.org/2000/svg">
  <path d="M 200 223.5  C 203.36 223.5  206 226.14  206 229.5  C 206 232.86  203.36 235.5  200 235.5  C 196.64 235.5  194 232.86  194 229.5  C 194 226.14  196.64 223.5  200 223.5  Z " fill-rule="nonzero" fill="#f0f0f0" stroke="none" />
  <path d="M 200 224  C 203.08 224  205.5 226.42  205.5 229.5  C 205.5 232.58  203.08 235  200 235  C 196.92 235  194.5 232.58  194.5 229.5  C 194.5 226.42  196.92 224  200 224  Z " stroke-width="1" stroke="#02a7f0" fill="none" />
  <path d="M 200 232.5  C 198.32 232.5  197 231.18  197 229.5  C 197 227.82  198.32 226.5  200 226.5  C 201.68 226.5  203 227.82  203 229.5  C 203 231.18  201.68 232.5  200 232.5  " fill-rule="nonzero" fill="#02a7f0" stroke="none" />
</svg>