<?xml version="1.0" encoding="utf-8"?>
<svg version="1.1" xmlns:xlink="http://www.w3.org/1999/xlink" width="82px" height="30px" xmlns="http://www.w3.org/2000/svg">
  <g transform="matrix(1 0 0 1 -486 -313 )">
    <path d="M 486.5 318  A 4.5 4.5 0 0 1 491 313.5 L 563 313.5  A 4.5 4.5 0 0 1 567.5 318 L 567.5 338  A 4.5 4.5 0 0 1 563 342.5 L 491 342.5  A 4.5 4.5 0 0 1 486.5 338 L 486.5 318  Z " fill-rule="nonzero" fill="#ffffff" stroke="none" />
    <path d="M 486.5 318  A 4.5 4.5 0 0 1 491 313.5 L 563 313.5  A 4.5 4.5 0 0 1 567.5 318 L 567.5 338  A 4.5 4.5 0 0 1 563 342.5 L 491 342.5  A 4.5 4.5 0 0 1 486.5 338 L 486.5 318  Z " stroke-width="1" stroke="#e4e4e4" fill="none" />
  </g>
</svg>