<?xml version="1.0" encoding="utf-8"?>
<svg version="1.1" xmlns:xlink="http://www.w3.org/1999/xlink" width="80px" height="30px" xmlns="http://www.w3.org/2000/svg">
  <g transform="matrix(1 0 0 1 -431 -424 )">
    <path d="M 432 429  A 4 4 0 0 1 436 425 L 506 425  A 4 4 0 0 1 510 429 L 510 449  A 4 4 0 0 1 506 453 L 436 453  A 4 4 0 0 1 432 449 L 432 429  Z " fill-rule="nonzero" fill="#f0f7ff" stroke="none" />
    <path d="M 431.5 429  A 4.5 4.5 0 0 1 436 424.5 L 506 424.5  A 4.5 4.5 0 0 1 510.5 429 L 510.5 449  A 4.5 4.5 0 0 1 506 453.5 L 436 453.5  A 4.5 4.5 0 0 1 431.5 449 L 431.5 429  Z " stroke-width="1" stroke="#7abbff" fill="none" stroke-opacity="0.996078431372549" />
  </g>
</svg>