<?xml version="1.0" encoding="utf-8"?>
<svg version="1.1" xmlns:xlink="http://www.w3.org/1999/xlink" width="15px" height="13px" xmlns="http://www.w3.org/2000/svg">
  <g transform="matrix(1 0 0 1 -28 -130 )">
    <path d="M 13.92578125 7.92578125  C 13.9752604166667 7.87630208333333  14 7.81770833333333  14 7.75  L 14 1.25  C 14 1.18229166666667  13.9752604166667 1.12369791666667  13.92578125 1.07421875  C 13.8763020833333 1.02473958333333  13.8177083333333 0.999999999999999  13.75 1  L 1.25 1  C 1.18229166666667 0.999999999999999  1.12369791666667 1.02473958333333  1.07421875 1.07421875  C 1.02473958333333 1.12369791666667  1 1.18229166666667  1 1.25  L 1 7.75  C 1 7.81770833333333  1.02473958333333 7.87630208333333  1.07421875 7.92578125  C 1.12369791666667 7.97526041666667  1.18229166666667 8  1.25 8  L 13.75 8  C 13.8177083333333 8  13.8763020833333 7.97526041666667  13.92578125 7.92578125  Z M 14.6328125 0.3671875  C 14.8776041666667 0.611979166666666  15 0.90625  15 1.25  L 15 9.75  C 15 10.09375  14.8776041666667 10.3880208333333  14.6328125 10.6328125  C 14.3880208333333 10.8776041666667  14.09375 11  13.75 11  L 9.5 11  C 9.5 11.1927083333333  9.54166666666667 11.39453125  9.625 11.60546875  C 9.70833333333333 11.81640625  9.79166666666667 12.0013020833333  9.875 12.16015625  C 9.95833333333333 12.3190104166667  10 12.4322916666667  10 12.5  C 10 12.6354166666667  9.95052083333333 12.7526041666667  9.8515625 12.8515625  C 9.75260416666667 12.9505208333333  9.63541666666667 13  9.5 13  L 5.5 13  C 5.36458333333333 13  5.24739583333333 12.9505208333333  5.1484375 12.8515625  C 5.04947916666667 12.7526041666667  5 12.6354166666667  5 12.5  C 5 12.4270833333333  5.04166666666667 12.3125  5.125 12.15625  C 5.20833333333333 12  5.29166666666667 11.8177083333333  5.375 11.609375  C 5.45833333333333 11.4010416666667  5.5 11.1979166666667  5.5 11  L 1.25 11  C 0.90625 11  0.611979166666667 10.8776041666667  0.3671875 10.6328125  C 0.122395833333333 10.3880208333333  0 10.09375  0 9.75  L 0 1.25  C 0 0.90625  0.122395833333333 0.611979166666666  0.3671875 0.3671875  C 0.611979166666667 0.122395833333333  0.90625 0  1.25 0  L 13.75 0  C 14.09375 0  14.3880208333333 0.122395833333333  14.6328125 0.3671875  Z " fill-rule="nonzero" fill="#000000" stroke="none" transform="matrix(1 0 0 1 28 130 )" />
  </g>
</svg>