<?xml version="1.0" encoding="utf-8"?>
<svg version="1.1" xmlns:xlink="http://www.w3.org/1999/xlink" width="105px" height="26px" xmlns="http://www.w3.org/2000/svg">
  <g transform="matrix(1 0 0 1 -107 -144 )">
    <path d="M 108 148  A 3 3 0 0 1 111 145 L 208 145  A 3 3 0 0 1 211 148 L 211 166  A 3 3 0 0 1 208 169 L 111 169  A 3 3 0 0 1 108 166 L 108 148  Z " fill-rule="nonzero" fill="#ff3399" stroke="none" fill-opacity="0.0980392156862745" />
    <path d="M 107.5 148  A 3.5 3.5 0 0 1 111 144.5 L 208 144.5  A 3.5 3.5 0 0 1 211.5 148 L 211.5 166  A 3.5 3.5 0 0 1 208 169.5 L 111 169.5  A 3.5 3.5 0 0 1 107.5 166 L 107.5 148  Z " stroke-width="1" stroke-dasharray="9,4" stroke="#ff3399" fill="none" stroke-dashoffset="0.5" />
  </g>
</svg>