<?xml version="1.0" encoding="utf-8"?>
<svg version="1.1" xmlns:xlink="http://www.w3.org/1999/xlink" width="28px" height="18px" xmlns="http://www.w3.org/2000/svg">
  <g transform="matrix(1 0 0 1 -888 -176 )">
    <path d="M 20.7890625 14.1015625  C 22.8776041666667 12.8359375  24.6145833333333 11.1354166666667  26 9  C 24.4166666666667 6.54166666666667  22.4322916666667 4.703125  20.046875 3.484375  C 20.6822916666667 4.56770833333333  21 5.73958333333333  21 7  C 21 8.92708333333333  20.3151041666667 10.5755208333333  18.9453125 11.9453125  C 17.5755208333333 13.3151041666667  15.9270833333333 14  14 14  C 12.0729166666667 14  10.4244791666667 13.3151041666667  9.0546875 11.9453125  C 7.68489583333333 10.5755208333333  7 8.92708333333333  7 7  C 7 5.73958333333333  7.31770833333333 4.56770833333333  7.953125 3.484375  C 5.56770833333333 4.703125  3.58333333333333 6.54166666666667  2 9  C 3.38541666666667 11.1354166666667  5.12239583333333 12.8359375  7.2109375 14.1015625  C 9.29947916666667 15.3671875  11.5625 16  14 16  C 16.4375 16  18.7005208333333 15.3671875  20.7890625 14.1015625  Z M 14.53125 3.53125  C 14.6770833333333 3.38541666666667  14.75 3.20833333333333  14.75 3  C 14.75 2.79166666666667  14.6770833333333 2.61458333333333  14.53125 2.46875  C 14.3854166666667 2.32291666666666  14.2083333333333 2.25  14 2.25  C 12.6979166666667 2.25  11.5807291666667 2.71614583333333  10.6484375 3.6484375  C 9.71614583333333 4.58072916666667  9.25 5.69791666666667  9.25 7  C 9.25 7.20833333333333  9.32291666666667 7.38541666666667  9.46875 7.53125  C 9.61458333333333 7.67708333333333  9.79166666666667 7.75  10 7.75  C 10.2083333333333 7.75  10.3854166666667 7.67708333333333  10.53125 7.53125  C 10.6770833333333 7.38541666666667  10.75 7.20833333333333  10.75 7  C 10.75 6.10416666666667  11.0677083333333 5.33854166666667  11.703125 4.703125  C 12.3385416666667 4.06770833333333  13.1041666666667 3.75  14 3.75  C 14.2083333333333 3.75  14.3854166666667 3.67708333333333  14.53125 3.53125  Z M 27.6875 7.921875  C 27.8958333333333 8.28645833333333  28 8.64583333333333  28 9  C 28 9.35416666666666  27.8958333333333 9.71354166666667  27.6875 10.078125  C 26.2291666666667 12.4739583333333  24.2682291666667 14.3932291666667  21.8046875 15.8359375  C 19.3411458333333 17.2786458333333  16.7395833333333 18  14 18  C 11.2604166666667 18  8.65885416666667 17.2760416666667  6.1953125 15.828125  C 3.73177083333333 14.3802083333333  1.77083333333333 12.4635416666667  0.3125 10.078125  C 0.104166666666667 9.71354166666667  0 9.35416666666666  0 9  C 0 8.64583333333333  0.104166666666667 8.28645833333333  0.3125 7.921875  C 1.77083333333333 5.53645833333333  3.73177083333333 3.61979166666667  6.1953125 2.171875  C 8.65885416666667 0.723958333333332  11.2604166666667 0  14 0  C 16.7395833333333 0  19.3411458333333 0.723958333333332  21.8046875 2.171875  C 24.2682291666667 3.61979166666667  26.2291666666667 5.53645833333333  27.6875 7.921875  Z " fill-rule="nonzero" fill="#000000" stroke="none" transform="matrix(1 0 0 1 888 176 )" />
  </g>
</svg>