<?xml version="1.0" encoding="utf-8"?>
<svg version="1.1" xmlns:xlink="http://www.w3.org/1999/xlink" width="261px" height="110px" xmlns="http://www.w3.org/2000/svg">
  <g transform="matrix(1 0 0 1 -555 -45 )">
    <path d="M 556 49  A 3 3 0 0 1 559 46 L 812 46  A 3 3 0 0 1 815 49 L 815 151  A 3 3 0 0 1 812 154 L 559 154  A 3 3 0 0 1 556 151 L 556 49  Z " fill-rule="nonzero" fill="#ff3399" stroke="none" fill-opacity="0.0980392156862745" />
    <path d="M 555.5 49  A 3.5 3.5 0 0 1 559 45.5 L 812 45.5  A 3.5 3.5 0 0 1 815.5 49 L 815.5 151  A 3.5 3.5 0 0 1 812 154.5 L 559 154.5  A 3.5 3.5 0 0 1 555.5 151 L 555.5 49  Z " stroke-width="1" stroke-dasharray="9,4" stroke="#ff3399" fill="none" stroke-dashoffset="0.5" />
  </g>
</svg>