<?xml version="1.0" encoding="utf-8"?>
<svg version="1.1" xmlns:xlink="http://www.w3.org/1999/xlink" width="35px" height="23px" xmlns="http://www.w3.org/2000/svg">
  <g transform="matrix(1 0 0 1 -1231 -278 )">
    <path d="M 35 5.1  C 35 5.49259259259259  34.8624896608768 5.82962962962963  34.5874689826303 6.11111111111111  L 18.477047146402 22.5777777777778  C 18.2020264681555 22.8592592592593  17.8763440860215 23  17.5 23  C 17.1236559139785 23  16.7979735318445 22.8592592592593  16.522952853598 22.5777777777778  L 0.412531017369727 6.11111111111111  C 0.137510339123243 5.82962962962963  0 5.49259259259259  0 5.1  C 0 4.7074074074074  0.137510339123243 4.37037037037037  0.412531017369727 4.08888888888889  L 4.01674937965261 0.422222222222222  C 4.29177005789909 0.14074074074074  4.61745244003309 0  4.99379652605459 0  C 5.3701406120761 0  5.69582299421009 0.14074074074074  5.97084367245658 0.422222222222222  L 17.5 12.2222222222222  L 29.0291563275434 0.422222222222222  C 29.3041770057899 0.14074074074074  29.6298593879239 0  30.0062034739454 0  C 30.3825475599669 0  30.7082299421009 0.14074074074074  30.9832506203474 0.422222222222222  L 34.5874689826303 4.08888888888889  C 34.8624896608768 4.37037037037037  35 4.7074074074074  35 5.1  Z " fill-rule="nonzero" fill="#d7d7d7" stroke="none" transform="matrix(1 0 0 1 1231 278 )" />
  </g>
</svg>