<?xml version="1.0" encoding="utf-8"?>
<svg version="1.1" xmlns:xlink="http://www.w3.org/1999/xlink" width="12px" height="12px" viewBox="184 215.5  12 12" xmlns="http://www.w3.org/2000/svg">
  <path d="M 190 215.5  C 193.36 215.5  196 218.14  196 221.5  C 196 224.86  193.36 227.5  190 227.5  C 186.64 227.5  184 224.86  184 221.5  C 184 218.14  186.64 215.5  190 215.5  Z " fill-rule="nonzero" fill="#f0f0f0" stroke="none" />
  <path d="M 190 216  C 193.08 216  195.5 218.42  195.5 221.5  C 195.5 224.58  193.08 227  190 227  C 186.92 227  184.5 224.58  184.5 221.5  C 184.5 218.42  186.92 216  190 216  Z " stroke-width="1" stroke="#02a7f0" fill="none" />
  <path d="M 190 224.5  C 188.32 224.5  187 223.18  187 221.5  C 187 219.82  188.32 218.5  190 218.5  C 191.68 218.5  193 219.82  193 221.5  C 193 223.18  191.68 224.5  190 224.5  " fill-rule="nonzero" fill="#02a7f0" stroke="none" />
</svg>