<?xml version="1.0" encoding="utf-8"?>
<svg version="1.1" xmlns:xlink="http://www.w3.org/1999/xlink" width="12px" height="12px" viewBox="184 152.5  12 12" xmlns="http://www.w3.org/2000/svg">
  <path d="M 190 152.5  C 193.36 152.5  196 155.14  196 158.5  C 196 161.86  193.36 164.5  190 164.5  C 186.64 164.5  184 161.86  184 158.5  C 184 155.14  186.64 152.5  190 152.5  Z " fill-rule="nonzero" fill="#ffffff" stroke="none" />
  <path d="M 190 153  C 193.08 153  195.5 155.42  195.5 158.5  C 195.5 161.58  193.08 164  190 164  C 186.92 164  184.5 161.58  184.5 158.5  C 184.5 155.42  186.92 153  190 153  Z " stroke-width="1" stroke="#02a7f0" fill="none" />
  <path d="M 190 161.5  C 188.32 161.5  187 160.18  187 158.5  C 187 156.82  188.32 155.5  190 155.5  C 191.68 155.5  193 156.82  193 158.5  C 193 160.18  191.68 161.5  190 161.5  " fill-rule="nonzero" fill="#02a7f0" stroke="none" />
</svg>