<?xml version="1.0" encoding="utf-8"?>
<svg version="1.1" xmlns:xlink="http://www.w3.org/1999/xlink" width="12px" height="12px" viewBox="0 6.5  12 12" xmlns="http://www.w3.org/2000/svg">
  <path d="M 6 6.5  C 9.36 6.5  12 9.14  12 12.5  C 12 15.86  9.36 18.5  6 18.5  C 2.64 18.5  0 15.86  0 12.5  C 0 9.14  2.64 6.5  6 6.5  Z " fill-rule="nonzero" fill="#f0f0f0" stroke="none" />
  <path d="M 6 7  C 9.08 7  11.5 9.42  11.5 12.5  C 11.5 15.58  9.08 18  6 18  C 2.92 18  0.5 15.58  0.5 12.5  C 0.5 9.42  2.92 7  6 7  Z " stroke-width="1" stroke="#d7d7d7" fill="none" />
  <path d="M 6 15.5  C 4.32 15.5  3 14.18  3 12.5  C 3 10.82  4.32 9.5  6 9.5  C 7.68 9.5  9 10.82  9 12.5  C 9 14.18  7.68 15.5  6 15.5  " fill-rule="nonzero" fill="#d7d7d7" stroke="none" />
</svg>