<?xml version="1.0" encoding="utf-8"?>
<svg version="1.1" xmlns:xlink="http://www.w3.org/1999/xlink" width="26px" height="24px" xmlns="http://www.w3.org/2000/svg">
  <g transform="matrix(1 0 0 1 -399 -193 )">
    <path d="M 14.7154788418708 20.1706730769231  C 14.8071640682999 20.0793269230769  14.8530066815145 19.9663461538462  14.8530066815145 19.8317307692308  L 14.8530066815145 17.0913461538462  C 14.8530066815145 16.9567307692308  14.8071640682999 16.84375  14.7154788418708 16.7524038461538  C 14.6237936154417 16.6610576923077  14.5152190051967 16.6153846153846  14.3897550111359 16.6153846153846  L 11.6102449888641 16.6153846153846  C 11.4847809948033 16.6153846153846  11.3762063845583 16.6610576923077  11.2845211581292 16.7524038461538  C 11.1928359317001 16.84375  11.1469933184855 16.9567307692308  11.1469933184855 17.0913461538462  L 11.1469933184855 19.8317307692308  C 11.1469933184855 19.9663461538462  11.1928359317001 20.0793269230769  11.2845211581292 20.1706730769231  C 11.3762063845583 20.2620192307692  11.4847809948033 20.3076923076923  11.6102449888641 20.3076923076923  L 14.3897550111359 20.3076923076923  C 14.5152190051967 20.3076923076923  14.6237936154417 20.2620192307692  14.7154788418708 20.1706730769231  Z M 14.6720489977728 14.6754807692308  C 14.7637342242019 14.6129807692308  14.8144023756496 14.5336538461538  14.8240534521158 14.4375  L 15.0846325167038 7.81730769230769  C 15.0846325167038 7.70192307692308  15.0363771343727 7.61057692307692  14.9398663697105 7.54326923076923  C 14.8144023756496 7.4375  14.6985894580549 7.38461538461539  14.5924276169265 7.38461538461539  L 11.4075723830735 7.38461538461539  C 11.3014105419451 7.38461538461539  11.1855976243504 7.4375  11.0601336302895 7.54326923076923  C 10.9636228656273 7.61057692307692  10.9153674832962 7.71153846153846  10.9153674832962 7.84615384615384  L 11.1614699331849 14.4375  C 11.1614699331849 14.5336538461538  11.209725315516 14.6129807692308  11.3062360801782 14.6754807692308  C 11.4027468448404 14.7379807692308  11.518559762435 14.7692307692308  11.6536748329621 14.7692307692308  L 14.3318485523385 14.7692307692308  C 14.4669636228656 14.7692307692308  14.5803637713437 14.7379807692308  14.6720489977728 14.6754807692308  Z M 13.9409799554566 0.259615384615385  C 14.2305122494432 0.432692307692307  14.4573125463994 0.668269230769229  14.6213808463252 0.966346153846155  L 25.739420935412 21.2740384615385  C 26.0772086117298 21.8798076923077  26.0675575352636 22.4855769230769  25.7104677060134 23.0913461538462  C 25.5463994060876 23.3701923076923  25.322011878248 23.5913461538462  25.0373051224944 23.7548076923077  C 24.7525983667409 23.9182692307692  24.4461766889384 24  24.1180400890869 24  L 1.88195991091314 24  C 1.55382331106162 24  1.24740163325909 23.9182692307692  0.962694877505568 23.7548076923077  C 0.677988121752042 23.5913461538462  0.453600593912398 23.3701923076923  0.289532293986637 23.0913461538462  C -0.0675575352635486 22.4855769230769  -0.0772086117297699 21.8798076923077  0.260579064587973 21.2740384615385  L 11.3786191536748 0.966346153846155  C 11.5426874536006 0.668269230769229  11.7694877505568 0.432692307692307  12.0590200445434 0.259615384615385  C 12.3485523385301 0.0865384615384626  12.6622123236823 0  13 0  C 13.3377876763177 0  13.6514476614699 0.0865384615384626  13.9409799554566 0.259615384615385  Z " fill-rule="nonzero" fill="#f59a23" stroke="none" transform="matrix(1 0 0 1 399 193 )" />
  </g>
</svg>