<?xml version="1.0" encoding="utf-8"?>
<svg version="1.1" xmlns:xlink="http://www.w3.org/1999/xlink" width="12px" height="12px" viewBox="369 684.5  12 12" xmlns="http://www.w3.org/2000/svg">
  <path d="M 375 684.5  C 378.36 684.5  381 687.14  381 690.5  C 381 693.86  378.36 696.5  375 696.5  C 371.64 696.5  369 693.86  369 690.5  C 369 687.14  371.64 684.5  375 684.5  Z " fill-rule="nonzero" fill="#ffffff" stroke="none" />
  <path d="M 375 685  C 378.08 685  380.5 687.42  380.5 690.5  C 380.5 693.58  378.08 696  375 696  C 371.92 696  369.5 693.58  369.5 690.5  C 369.5 687.42  371.92 685  375 685  Z " stroke-width="1" stroke="#02a7f0" fill="none" />
  <path d="M 375 693.5  C 373.32 693.5  372 692.18  372 690.5  C 372 688.82  373.32 687.5  375 687.5  C 376.68 687.5  378 688.82  378 690.5  C 378 692.18  376.68 693.5  375 693.5  " fill-rule="nonzero" fill="#02a7f0" stroke="none" />
</svg>