<?xml version="1.0" encoding="utf-8"?>
<svg version="1.1" xmlns:xlink="http://www.w3.org/1999/xlink" width="39px" height="35px" xmlns="http://www.w3.org/2000/svg">
  <g transform="matrix(1 0 0 1 -11 -14 )">
    <path d="M 37.8465401785714 15.815625  C 38.6155133928571 17.7697916666667  39 20.1979166666667  39 23.1  C 39 25.5208333333333  38.0786830357143 28.809375  36.2360491071429 32.965625  C 36.1925223214286 33.0677083333333  36.1163504464286 33.2427083333333  36.0075334821429 33.490625  C 35.8987165178571 33.7385416666667  35.80078125 33.9572916666667  35.7137276785714 34.146875  C 35.6266741071429 34.3364583333333  35.5323660714286 34.496875  35.4308035714286 34.628125  C 35.2566964285714 34.8760416666667  35.0535714285714 35  34.8214285714286 35  C 34.6037946428571 35  34.4333147321429 34.9270833333333  34.3099888392857 34.78125  C 34.1866629464286 34.6354166666667  34.125 34.453125  34.125 34.234375  C 34.125 34.103125  34.1431361607143 33.9098958333333  34.1794084821429 33.6546875  C 34.2156808035714 33.3994791666667  34.2338169642857 33.228125  34.2338169642857 33.140625  C 34.3063616071429 32.1489583333333  34.3426339285714 31.2520833333333  34.3426339285714 30.45  C 34.3426339285714 28.9770833333333  34.2156808035714 27.6572916666667  33.9617745535714 26.490625  C 33.7078683035714 25.3239583333333  33.3560267857143 24.3140625  32.90625 23.4609375  C 32.4564732142857 22.6078125  31.8761160714286 21.8713541666667  31.1651785714286 21.2515625  C 30.4542410714286 20.6317708333333  29.6888950892857 20.125  28.869140625 19.73125  C 28.0493861607143 19.3375  27.0845424107143 19.0276041666667  25.974609375 18.8015625  C 24.8646763392857 18.5755208333333  23.7474888392857 18.41875  22.623046875 18.33125  C 21.4986049107143 18.24375  20.2254464285714 18.2  18.8035714285714 18.2  L 13.9285714285714 18.2  L 13.9285714285714 23.8  C 13.9285714285714 24.1791666666667  13.7907366071429 24.5072916666667  13.5150669642857 24.784375  C 13.2393973214286 25.0614583333333  12.9129464285714 25.2  12.5357142857143 25.2  C 12.1584821428571 25.2  11.83203125 25.0614583333333  11.5563616071429 24.784375  L 0.413504464285714 13.584375  C 0.137834821428571 13.3072916666667  0 12.9791666666667  0 12.6  C 0 12.2208333333333  0.137834821428571 11.8927083333333  0.413504464285714 11.615625  L 11.5563616071429 0.415624999999999  C 11.83203125 0.138541666666665  12.1584821428571 0  12.5357142857143 0  C 12.9129464285714 0  13.2393973214286 0.138541666666665  13.5150669642857 0.415624999999999  C 13.7907366071429 0.692708333333329  13.9285714285714 1.02083333333333  13.9285714285714 1.4  L 13.9285714285714 7  L 18.8035714285714 7  C 29.1484375 7  35.49609375 9.93854166666667  37.8465401785714 15.815625  Z " fill-rule="nonzero" fill="#02a7f0" stroke="none" transform="matrix(1 0 0 1 11 14 )" />
  </g>
</svg>