<?xml version="1.0" encoding="utf-8"?>
<svg version="1.1" xmlns:xlink="http://www.w3.org/1999/xlink" width="12px" height="12px" viewBox="369 683.5  12 12" xmlns="http://www.w3.org/2000/svg">
  <path d="M 375 683.5  C 378.36 683.5  381 686.14  381 689.5  C 381 692.86  378.36 695.5  375 695.5  C 371.64 695.5  369 692.86  369 689.5  C 369 686.14  371.64 683.5  375 683.5  Z " fill-rule="nonzero" fill="#f0f0f0" stroke="none" />
  <path d="M 375 684  C 378.08 684  380.5 686.42  380.5 689.5  C 380.5 692.58  378.08 695  375 695  C 371.92 695  369.5 692.58  369.5 689.5  C 369.5 686.42  371.92 684  375 684  Z " stroke-width="1" stroke="#02a7f0" fill="none" />
  <path d="M 375 692.5  C 373.32 692.5  372 691.18  372 689.5  C 372 687.82  373.32 686.5  375 686.5  C 376.68 686.5  378 687.82  378 689.5  C 378 691.18  376.68 692.5  375 692.5  " fill-rule="nonzero" fill="#02a7f0" stroke="none" />
</svg>