<?xml version="1.0" encoding="utf-8"?>
<svg version="1.1" xmlns:xlink="http://www.w3.org/1999/xlink" width="12px" height="12px" viewBox="369 586.5  12 12" xmlns="http://www.w3.org/2000/svg">
  <path d="M 375 586.5  C 378.36 586.5  381 589.14  381 592.5  C 381 595.86  378.36 598.5  375 598.5  C 371.64 598.5  369 595.86  369 592.5  C 369 589.14  371.64 586.5  375 586.5  Z " fill-rule="nonzero" fill="#ffffff" stroke="none" />
  <path d="M 375 587  C 378.08 587  380.5 589.42  380.5 592.5  C 380.5 595.58  378.08 598  375 598  C 371.92 598  369.5 595.58  369.5 592.5  C 369.5 589.42  371.92 587  375 587  Z " stroke-width="1" stroke="#02a7f0" fill="none" />
  <path d="M 375 595.5  C 373.32 595.5  372 594.18  372 592.5  C 372 590.82  373.32 589.5  375 589.5  C 376.68 589.5  378 590.82  378 592.5  C 378 594.18  376.68 595.5  375 595.5  " fill-rule="nonzero" fill="#02a7f0" stroke="none" />
</svg>