<?xml version="1.0" encoding="utf-8"?>
<svg version="1.1" xmlns:xlink="http://www.w3.org/1999/xlink" width="12px" height="12px" viewBox="36 96.5  12 12" xmlns="http://www.w3.org/2000/svg">
  <path d="M 42 96.5  C 45.36 96.5  48 99.14  48 102.5  C 48 105.86  45.36 108.5  42 108.5  C 38.64 108.5  36 105.86  36 102.5  C 36 99.14  38.64 96.5  42 96.5  Z " fill-rule="nonzero" fill="#ffffff" stroke="none" />
  <path d="M 42 97  C 45.08 97  47.5 99.42  47.5 102.5  C 47.5 105.58  45.08 108  42 108  C 38.92 108  36.5 105.58  36.5 102.5  C 36.5 99.42  38.92 97  42 97  Z " stroke-width="1" stroke="#d7d7d7" fill="none" />
  <path d="M 42 105.5  C 40.32 105.5  39 104.18  39 102.5  C 39 100.82  40.32 99.5  42 99.5  C 43.68 99.5  45 100.82  45 102.5  C 45 104.18  43.68 105.5  42 105.5  " fill-rule="nonzero" fill="#d7d7d7" stroke="none" />
</svg>