<?xml version="1.0" encoding="utf-8"?>
<svg version="1.1" xmlns:xlink="http://www.w3.org/1999/xlink" width="16px" height="16px" viewBox="50 220.5  16 16" xmlns="http://www.w3.org/2000/svg">
  <path d="M 58 220.5  C 62.48 220.5  66 224.02  66 228.5  C 66 232.98  62.48 236.5  58 236.5  C 53.52 236.5  50 232.98  50 228.5  C 50 224.02  53.52 220.5  58 220.5  Z " fill-rule="nonzero" fill="#ffffff" stroke="none" />
  <path d="M 58 221  C 62.2 221  65.5 224.3  65.5 228.5  C 65.5 232.7  62.2 236  58 236  C 53.8 236  50.5 232.7  50.5 228.5  C 50.5 224.3  53.8 221  58 221  Z " stroke-width="1" stroke="#02a7f0" fill="none" />
  <path d="M 58 232.5  C 55.76 232.5  54 230.74  54 228.5  C 54 226.26  55.76 224.5  58 224.5  C 60.24 224.5  62 226.26  62 228.5  C 62 230.74  60.24 232.5  58 232.5  " fill-rule="nonzero" fill="#02a7f0" stroke="none" />
</svg>