<?xml version="1.0" encoding="utf-8"?>
<svg version="1.1" xmlns:xlink="http://www.w3.org/1999/xlink" width="12px" height="12px" viewBox="80 332.5  12 12" xmlns="http://www.w3.org/2000/svg">
  <path d="M 86 332.5  C 89.36 332.5  92 335.14  92 338.5  C 92 341.86  89.36 344.5  86 344.5  C 82.64 344.5  80 341.86  80 338.5  C 80 335.14  82.64 332.5  86 332.5  Z " fill-rule="nonzero" fill="#f0f0f0" stroke="none" />
  <path d="M 86 333  C 89.08 333  91.5 335.42  91.5 338.5  C 91.5 341.58  89.08 344  86 344  C 82.92 344  80.5 341.58  80.5 338.5  C 80.5 335.42  82.92 333  86 333  Z " stroke-width="1" stroke="#02a7f0" fill="none" />
  <path d="M 86 341.5  C 84.32 341.5  83 340.18  83 338.5  C 83 336.82  84.32 335.5  86 335.5  C 87.68 335.5  89 336.82  89 338.5  C 89 340.18  87.68 341.5  86 341.5  " fill-rule="nonzero" fill="#02a7f0" stroke="none" />
</svg>