<?xml version="1.0" encoding="utf-8"?>
<svg version="1.1" xmlns:xlink="http://www.w3.org/1999/xlink" width="40px" height="40px" xmlns="http://www.w3.org/2000/svg">
  <g transform="matrix(1 0 0 1 -76 -122 )">
    <path d="M 39.4018205461638 16.4889466840052  L 35.8127438231469 20  L 39.4018205461638 23.5110533159948  C 39.9219765929779 23.9965322930212  40.0953619419159 24.6033810143043  39.9219765929779 25.331599479844  C 39.7139141742523 26.0424794104898  39.2631122670134 26.4846120502818  38.5695708712614 26.6579973992198  L 33.6801040312094 27.9063719115735  L 35.0585175552666 32.7438231469441  C 35.2665799739922 33.4547030775899  35.1018638925011 34.061551798873  34.5643693107932 34.5643693107932  C 34.061551798873 35.1018638925011  33.4547030775899 35.2665799739922  32.7438231469441 35.0585175552666  L 27.9063719115735 33.6801040312094  L 26.6579973992198 38.5695708712614  C 26.4846120502818 39.2631122670134  26.0424794104898 39.7139141742523  25.331599479844 39.9219765929779  C 25.1235370611183 39.9566536627655  24.9588209796272 39.9739921976593  24.8374512353706 39.9739921976593  C 24.2999566536628 39.9739921976593  23.8578240138708 39.7832683138275  23.5110533159948 39.4018205461638  L 20 35.8127438231469  L 16.4889466840052 39.4018205461638  C 16.0034677069788 39.9219765929779  15.3966189856957 40.0953619419159  14.668400520156 39.9219765929779  C 13.9575205895102 39.7312527091461  13.5153879497183 39.2804508019072  13.3420026007802 38.5695708712614  L 12.0936280884265 33.6801040312094  L 7.25617685305592 35.0585175552666  C 6.54529692241006 35.2665799739922  5.93844820112701 35.1018638925011  5.43563068920676 34.5643693107932  C 4.89813610749892 34.061551798873  4.7334200260078 33.4547030775899  4.94148244473342 32.7438231469441  L 6.31989596879064 27.9063719115735  L 1.43042912873862 26.6579973992198  C 0.736887732986563 26.4846120502818  0.286085825747724 26.0424794104898  0.0780234070221066 25.331599479844  C -0.0953619419159081 24.6033810143043  0.0780234070221066 23.9965322930212  0.598179453836151 23.5110533159948  L 4.18725617685306 20  L 0.598179453836151 16.4889466840052  C 0.0780234070221066 16.0034677069788  -0.0953619419159081 15.3966189856957  0.0780234070221066 14.668400520156  C 0.286085825747724 13.9575205895102  0.736887732986563 13.5153879497182  1.43042912873862 13.3420026007802  L 6.31989596879064 12.0936280884265  L 4.94148244473342 7.25617685305592  C 4.7334200260078 6.54529692241005  4.89813610749892 5.938448201127  5.43563068920676 5.43563068920676  C 5.93844820112701 4.89813610749891  6.54529692241006 4.7334200260078  7.25617685305592 4.94148244473342  L 12.0936280884265 6.31989596879064  L 13.3420026007802 1.43042912873862  C 13.5153879497183 0.719549198092757  13.9575205895102 0.27741655830082  14.668400520156 0.104031209362807  C 15.3792804508019 -0.104031209362807  15.986129172085 0.0606848721283049  16.4889466840052 0.598179453836152  L 20 4.21326397919376  L 23.5110533159948 0.598179453836152  C 24.013870827915 0.0780234070221075  24.6207195491981 -0.0866926744690133  25.331599479844 0.104031209362807  C 26.0424794104898 0.27741655830082  26.4846120502818 0.719549198092757  26.6579973992198 1.43042912873862  L 27.9063719115735 6.31989596879064  L 32.7438231469441 4.94148244473342  C 33.4547030775899 4.7334200260078  34.061551798873 4.89813610749891  34.5643693107932 5.43563068920676  C 35.1018638925011 5.938448201127  35.2665799739922 6.54529692241005  35.0585175552666 7.25617685305592  L 33.6801040312094 12.0936280884265  L 38.5695708712614 13.3420026007802  C 39.2631122670134 13.5153879497182  39.7139141742523 13.9575205895102  39.9219765929779 14.668400520156  C 40.0953619419159 15.3966189856957  39.9219765929779 16.0034677069788  39.4018205461638 16.4889466840052  Z " fill-rule="nonzero" fill="#000000" stroke="none" transform="matrix(1 0 0 1 76 122 )" />
  </g>
</svg>