<?xml version="1.0" encoding="utf-8"?>
<svg version="1.1" xmlns:xlink="http://www.w3.org/1999/xlink" width="12px" height="12px" viewBox="50 77.5  12 12" xmlns="http://www.w3.org/2000/svg">
  <path d="M 56 77.5  C 59.36 77.5  62 80.14  62 83.5  C 62 86.86  59.36 89.5  56 89.5  C 52.64 89.5  50 86.86  50 83.5  C 50 80.14  52.64 77.5  56 77.5  Z " fill-rule="nonzero" fill="#ffffff" stroke="none" />
  <path d="M 56 78  C 59.08 78  61.5 80.42  61.5 83.5  C 61.5 86.58  59.08 89  56 89  C 52.92 89  50.5 86.58  50.5 83.5  C 50.5 80.42  52.92 78  56 78  Z " stroke-width="1" stroke="#02a7f0" fill="none" />
  <path d="M 56 86.5  C 54.32 86.5  53 85.18  53 83.5  C 53 81.82  54.32 80.5  56 80.5  C 57.68 80.5  59 81.82  59 83.5  C 59 85.18  57.68 86.5  56 86.5  " fill-rule="nonzero" fill="#02a7f0" stroke="none" />
</svg>