<?xml version="1.0" encoding="utf-8"?>
<svg version="1.1" xmlns:xlink="http://www.w3.org/1999/xlink" width="13px" height="13px" viewBox="12 123  13 13" xmlns="http://www.w3.org/2000/svg">
  <path d="M 12.5 125  A 1.5 1.5 0 0 1 14 123.5 L 23 123.5  A 1.5 1.5 0 0 1 24.5 125 L 24.5 134  A 1.5 1.5 0 0 1 23 135.5 L 14 135.5  A 1.5 1.5 0 0 1 12.5 134 L 12.5 125  Z " fill-rule="nonzero" fill="#ffffff" stroke="none" />
  <path d="M 12.5 125  A 1.5 1.5 0 0 1 14 123.5 L 23 123.5  A 1.5 1.5 0 0 1 24.5 125 L 24.5 134  A 1.5 1.5 0 0 1 23 135.5 L 14 135.5  A 1.5 1.5 0 0 1 12.5 134 L 12.5 125  Z " stroke-width="1" stroke="#8c8c8c" fill="none" />
</svg>