<?xml version="1.0" encoding="utf-8"?>
<svg version="1.1" xmlns:xlink="http://www.w3.org/1999/xlink" width="13px" height="13px" viewBox="136 98  13 13" xmlns="http://www.w3.org/2000/svg">
  <path d="M 136.5 100  A 1.5 1.5 0 0 1 138 98.5 L 147 98.5  A 1.5 1.5 0 0 1 148.5 100 L 148.5 109  A 1.5 1.5 0 0 1 147 110.5 L 138 110.5  A 1.5 1.5 0 0 1 136.5 109 L 136.5 100  Z " fill-rule="nonzero" fill="#ffffff" stroke="none" />
  <path d="M 136.5 100  A 1.5 1.5 0 0 1 138 98.5 L 147 98.5  A 1.5 1.5 0 0 1 148.5 100 L 148.5 109  A 1.5 1.5 0 0 1 147 110.5 L 138 110.5  A 1.5 1.5 0 0 1 136.5 109 L 136.5 100  Z " stroke-width="1" stroke="#8c8c8c" fill="none" />
</svg>