<?xml version="1.0" encoding="utf-8"?>
<svg version="1.1" xmlns:xlink="http://www.w3.org/1999/xlink" width="13px" height="13px" viewBox="136 73  13 13" xmlns="http://www.w3.org/2000/svg">
  <path d="M 136.5 75  A 1.5 1.5 0 0 1 138 73.5 L 147 73.5  A 1.5 1.5 0 0 1 148.5 75 L 148.5 84  A 1.5 1.5 0 0 1 147 85.5 L 138 85.5  A 1.5 1.5 0 0 1 136.5 84 L 136.5 75  Z " fill-rule="nonzero" fill="#ffffff" stroke="none" />
  <path d="M 136.5 75  A 1.5 1.5 0 0 1 138 73.5 L 147 73.5  A 1.5 1.5 0 0 1 148.5 75 L 148.5 84  A 1.5 1.5 0 0 1 147 85.5 L 138 85.5  A 1.5 1.5 0 0 1 136.5 84 L 136.5 75  Z " stroke-width="1" stroke="#8c8c8c" fill="none" />
  <path d="M 138.785714285714 79.5  L 141.571428571429 82.2857142857143  L 146.214285714286 75.7857142857143  " stroke-width="2.78571428571429" stroke="#8c8c8c" fill="none" />
</svg>