<?xml version="1.0" encoding="utf-8"?>
<svg version="1.1" xmlns:xlink="http://www.w3.org/1999/xlink" width="13px" height="13px" viewBox="12 98  13 13" xmlns="http://www.w3.org/2000/svg">
  <path d="M 12.5 100  A 1.5 1.5 0 0 1 14 98.5 L 23 98.5  A 1.5 1.5 0 0 1 24.5 100 L 24.5 109  A 1.5 1.5 0 0 1 23 110.5 L 14 110.5  A 1.5 1.5 0 0 1 12.5 109 L 12.5 100  Z " fill-rule="nonzero" fill="#ffffff" stroke="none" />
  <path d="M 12.5 100  A 1.5 1.5 0 0 1 14 98.5 L 23 98.5  A 1.5 1.5 0 0 1 24.5 100 L 24.5 109  A 1.5 1.5 0 0 1 23 110.5 L 14 110.5  A 1.5 1.5 0 0 1 12.5 109 L 12.5 100  Z " stroke-width="1" stroke="#8c8c8c" fill="none" />
  <path d="M 14.7857142857143 104.5  L 17.5714285714286 107.285714285714  L 22.2142857142857 100.785714285714  " stroke-width="2.78571428571429" stroke="#8c8c8c" fill="none" />
</svg>