<?xml version="1.0" encoding="utf-8"?>
<svg version="1.1" xmlns:xlink="http://www.w3.org/1999/xlink" width="12px" height="12px" viewBox="30 194.5  12 12" xmlns="http://www.w3.org/2000/svg">
  <path d="M 36 194.5  C 39.36 194.5  42 197.14  42 200.5  C 42 203.86  39.36 206.5  36 206.5  C 32.64 206.5  30 203.86  30 200.5  C 30 197.14  32.64 194.5  36 194.5  Z " fill-rule="nonzero" fill="#f0f0f0" stroke="none" />
  <path d="M 36 195  C 39.08 195  41.5 197.42  41.5 200.5  C 41.5 203.58  39.08 206  36 206  C 32.92 206  30.5 203.58  30.5 200.5  C 30.5 197.42  32.92 195  36 195  Z " stroke-width="1" stroke="#d7d7d7" fill="none" />
  <path d="M 36 203.5  C 34.32 203.5  33 202.18  33 200.5  C 33 198.82  34.32 197.5  36 197.5  C 37.68 197.5  39 198.82  39 200.5  C 39 202.18  37.68 203.5  36 203.5  " fill-rule="nonzero" fill="#d7d7d7" stroke="none" />
</svg>