<?xml version="1.0" encoding="utf-8"?>
<svg version="1.1" xmlns:xlink="http://www.w3.org/1999/xlink" width="12px" height="12px" viewBox="40 331.5  12 12" xmlns="http://www.w3.org/2000/svg">
  <path d="M 46 331.5  C 49.36 331.5  52 334.14  52 337.5  C 52 340.86  49.36 343.5  46 343.5  C 42.64 343.5  40 340.86  40 337.5  C 40 334.14  42.64 331.5  46 331.5  Z " fill-rule="nonzero" fill="#f0f0f0" stroke="none" />
  <path d="M 46 332  C 49.08 332  51.5 334.42  51.5 337.5  C 51.5 340.58  49.08 343  46 343  C 42.92 343  40.5 340.58  40.5 337.5  C 40.5 334.42  42.92 332  46 332  Z " stroke-width="1" stroke="#02a7f0" fill="none" />
  <path d="M 46 340.5  C 44.32 340.5  43 339.18  43 337.5  C 43 335.82  44.32 334.5  46 334.5  C 47.68 334.5  49 335.82  49 337.5  C 49 339.18  47.68 340.5  46 340.5  " fill-rule="nonzero" fill="#02a7f0" stroke="none" />
</svg>