<?xml version="1.0" encoding="utf-8"?>
<svg version="1.1" xmlns:xlink="http://www.w3.org/1999/xlink" width="12px" height="12px" viewBox="40 237.5  12 12" xmlns="http://www.w3.org/2000/svg">
  <path d="M 46 237.5  C 49.36 237.5  52 240.14  52 243.5  C 52 246.86  49.36 249.5  46 249.5  C 42.64 249.5  40 246.86  40 243.5  C 40 240.14  42.64 237.5  46 237.5  Z " fill-rule="nonzero" fill="#f0f0f0" stroke="none" />
  <path d="M 46 238  C 49.08 238  51.5 240.42  51.5 243.5  C 51.5 246.58  49.08 249  46 249  C 42.92 249  40.5 246.58  40.5 243.5  C 40.5 240.42  42.92 238  46 238  Z " stroke-width="1" stroke="#02a7f0" fill="none" />
  <path d="M 46 246.5  C 44.32 246.5  43 245.18  43 243.5  C 43 241.82  44.32 240.5  46 240.5  C 47.68 240.5  49 241.82  49 243.5  C 49 245.18  47.68 246.5  46 246.5  " fill-rule="nonzero" fill="#02a7f0" stroke="none" />
</svg>