<?xml version="1.0" encoding="utf-8"?>
<svg version="1.1" xmlns:xlink="http://www.w3.org/1999/xlink" width="12px" height="12px" viewBox="495 96.5  12 12" xmlns="http://www.w3.org/2000/svg">
  <path d="M 501 96.5  C 504.36 96.5  507 99.14  507 102.5  C 507 105.86  504.36 108.5  501 108.5  C 497.64 108.5  495 105.86  495 102.5  C 495 99.14  497.64 96.5  501 96.5  Z " fill-rule="nonzero" fill="#ffffff" stroke="none" />
  <path d="M 501 97  C 504.08 97  506.5 99.42  506.5 102.5  C 506.5 105.58  504.08 108  501 108  C 497.92 108  495.5 105.58  495.5 102.5  C 495.5 99.42  497.92 97  501 97  Z " stroke-width="1" stroke="#02a7f0" fill="none" />
  <path d="M 501 105.5  C 499.32 105.5  498 104.18  498 102.5  C 498 100.82  499.32 99.5  501 99.5  C 502.68 99.5  504 100.82  504 102.5  C 504 104.18  502.68 105.5  501 105.5  " fill-rule="nonzero" fill="#02a7f0" stroke="none" />
</svg>