<?xml version="1.0" encoding="utf-8"?>
<svg version="1.1" xmlns:xlink="http://www.w3.org/1999/xlink" width="12px" height="12px" viewBox="0 61.5  12 12" xmlns="http://www.w3.org/2000/svg">
  <path d="M 6 61.5  C 9.36 61.5  12 64.14  12 67.5  C 12 70.86  9.36 73.5  6 73.5  C 2.64 73.5  0 70.86  0 67.5  C 0 64.14  2.64 61.5  6 61.5  Z " fill-rule="nonzero" fill="#f0f0f0" stroke="none" />
  <path d="M 6 62  C 9.08 62  11.5 64.42  11.5 67.5  C 11.5 70.58  9.08 73  6 73  C 2.92 73  0.5 70.58  0.5 67.5  C 0.5 64.42  2.92 62  6 62  Z " stroke-width="1" stroke="#02a7f0" fill="none" />
  <path d="M 6 70.5  C 4.32 70.5  3 69.18  3 67.5  C 3 65.82  4.32 64.5  6 64.5  C 7.68 64.5  9 65.82  9 67.5  C 9 69.18  7.68 70.5  6 70.5  " fill-rule="nonzero" fill="#02a7f0" stroke="none" />
</svg>