<?xml version="1.0" encoding="utf-8"?>
<svg version="1.1" xmlns:xlink="http://www.w3.org/1999/xlink" width="16px" height="16px" viewBox="119 239.5  16 16" xmlns="http://www.w3.org/2000/svg">
  <path d="M 127 239.5  C 131.48 239.5  135 243.02  135 247.5  C 135 251.98  131.48 255.5  127 255.5  C 122.52 255.5  119 251.98  119 247.5  C 119 243.02  122.52 239.5  127 239.5  Z " fill-rule="nonzero" fill="#f0f0f0" stroke="none" />
  <path d="M 127 240  C 131.2 240  134.5 243.3  134.5 247.5  C 134.5 251.7  131.2 255  127 255  C 122.8 255  119.5 251.7  119.5 247.5  C 119.5 243.3  122.8 240  127 240  Z " stroke-width="1" stroke="#02a7f0" fill="none" />
  <path d="M 127 251.5  C 124.76 251.5  123 249.74  123 247.5  C 123 245.26  124.76 243.5  127 243.5  C 129.24 243.5  131 245.26  131 247.5  C 131 249.74  129.24 251.5  127 251.5  " fill-rule="nonzero" fill="#02a7f0" stroke="none" />
</svg>