<?xml version="1.0" encoding="utf-8"?>
<svg version="1.1" xmlns:xlink="http://www.w3.org/1999/xlink" width="16px" height="16px" viewBox="379 239.5  16 16" xmlns="http://www.w3.org/2000/svg">
  <path d="M 387 239.5  C 391.48 239.5  395 243.02  395 247.5  C 395 251.98  391.48 255.5  387 255.5  C 382.52 255.5  379 251.98  379 247.5  C 379 243.02  382.52 239.5  387 239.5  Z " fill-rule="nonzero" fill="#f0f0f0" stroke="none" />
  <path d="M 387 240  C 391.2 240  394.5 243.3  394.5 247.5  C 394.5 251.7  391.2 255  387 255  C 382.8 255  379.5 251.7  379.5 247.5  C 379.5 243.3  382.8 240  387 240  Z " stroke-width="1" stroke="#02a7f0" fill="none" />
  <path d="M 387 251.5  C 384.76 251.5  383 249.74  383 247.5  C 383 245.26  384.76 243.5  387 243.5  C 389.24 243.5  391 245.26  391 247.5  C 391 249.74  389.24 251.5  387 251.5  " fill-rule="nonzero" fill="#02a7f0" stroke="none" />
</svg>