<?xml version="1.0" encoding="utf-8"?>
<svg version="1.1" xmlns:xlink="http://www.w3.org/1999/xlink" width="16px" height="16px" viewBox="639 239.5  16 16" xmlns="http://www.w3.org/2000/svg">
  <path d="M 647 239.5  C 651.48 239.5  655 243.02  655 247.5  C 655 251.98  651.48 255.5  647 255.5  C 642.52 255.5  639 251.98  639 247.5  C 639 243.02  642.52 239.5  647 239.5  Z " fill-rule="nonzero" fill="#ffffff" stroke="none" />
  <path d="M 647 240  C 651.2 240  654.5 243.3  654.5 247.5  C 654.5 251.7  651.2 255  647 255  C 642.8 255  639.5 251.7  639.5 247.5  C 639.5 243.3  642.8 240  647 240  Z " stroke-width="1" stroke="#02a7f0" fill="none" />
  <path d="M 647 251.5  C 644.76 251.5  643 249.74  643 247.5  C 643 245.26  644.76 243.5  647 243.5  C 649.24 243.5  651 245.26  651 247.5  C 651 249.74  649.24 251.5  647 251.5  " fill-rule="nonzero" fill="#02a7f0" stroke="none" />
</svg>