<?xml version="1.0" encoding="utf-8"?>
<svg version="1.1" xmlns:xlink="http://www.w3.org/1999/xlink" width="27px" height="24px" xmlns="http://www.w3.org/2000/svg">
  <g transform="matrix(1 0 0 1 -6 -10 )">
    <path d="M 26.2014508928571 10.845  C 26.7338169642857 12.185  27 13.85  27 15.84  C 27 17.5  26.3621651785714 19.755  25.0864955357143 22.605  C 25.0563616071429 22.675  25.0036272321429 22.795  24.9282924107143 22.965  C 24.8529575892857 23.135  24.78515625 23.285  24.7248883928571 23.415  C 24.6646205357143 23.545  24.5993303571429 23.655  24.5290178571429 23.745  C 24.4084821428571 23.915  24.2678571428571 24  24.1071428571429 24  C 23.9564732142857 24  23.8384486607143 23.95  23.7530691964286 23.85  C 23.6676897321429 23.75  23.625 23.625  23.625 23.475  C 23.625 23.385  23.6375558035714 23.2525  23.6626674107143 23.0775  C 23.6877790178571 22.9025  23.7003348214286 22.785  23.7003348214286 22.725  C 23.7505580357143 22.045  23.7756696428571 21.43  23.7756696428571 20.88  C 23.7756696428571 19.87  23.6877790178571 18.965  23.5119977678571 18.165  C 23.3362165178571 17.365  23.0926339285714 16.6725  22.78125 16.0875  C 22.4698660714286 15.5025  22.0680803571429 14.9975  21.5758928571429 14.5725  C 21.0837053571429 14.1475  20.5538504464286 13.8  19.986328125 13.53  C 19.4188058035714 13.26  18.7508370535714 13.0475  17.982421875 12.8925  C 17.2140066964286 12.7375  16.4405691964286 12.63  15.662109375 12.57  C 14.8836495535714 12.51  14.0022321428571 12.48  13.0178571428571 12.48  L 9.64285714285714 12.48  L 9.64285714285714 16.32  C 9.64285714285714 16.58  9.54743303571429 16.805  9.35658482142857 16.995  C 9.16573660714286 17.185  8.93973214285714 17.28  8.67857142857143 17.28  C 8.41741071428572 17.28  8.19140625 17.185  8.00055803571429 16.995  L 0.286272321428571 9.315  C 0.0954241071428571 9.125  0 8.9  0 8.64  C 0 8.38  0.0954241071428571 8.155  0.286272321428571 7.965  L 8.00055803571429 0.284999999999999  C 8.19140625 0.0949999999999989  8.41741071428572 0  8.67857142857143 0  C 8.93973214285714 0  9.16573660714286 0.0949999999999989  9.35658482142857 0.284999999999999  C 9.54743303571429 0.474999999999997  9.64285714285714 0.699999999999998  9.64285714285714 0.960000000000001  L 9.64285714285714 4.8  L 13.0178571428571 4.8  C 20.1796875 4.8  24.57421875 6.815  26.2014508928571 10.845  Z " fill-rule="nonzero" fill="#02a7f0" stroke="none" transform="matrix(1 0 0 1 6 10 )" />
  </g>
</svg>