<?xml version="1.0" encoding="utf-8"?>
<svg version="1.1" xmlns:xlink="http://www.w3.org/1999/xlink" width="754px" height="35px" xmlns="http://www.w3.org/2000/svg">
  <g transform="matrix(1 0 0 1 -210 -89 )">
    <path d="M 224.215639810427 118.666149068323  C 224.215639810427 118.666149068323  224.215639810427 115.857924770084  224.215639810427 115.857924770084  C 224.215639810427 115.857924770084  211.581654138878 106.91178796323  211.581654138878 106.91178796323  C 211.581654138878 106.91178796323  224.215639810427 98.8913624356062  224.215639810427 98.8913624356062  C 224.215639810427 98.8913624356062  224.215639810427 94  224.215639810427 94  C 224.215639810427 91.5147186257614  226.230358436188 89.5  228.715639810427 89.5  C 228.715639810427 89.5  958.999999999999 89.5  958.999999999999 89.5  C 961.485281374237 89.5  963.499999999999 91.5147186257614  963.499999999999 94  C 963.499999999999 94  963.499999999999 118.666149068323  963.499999999999 118.666149068323  C 963.499999999999 121.151430442562  961.485281374237 123.166149068323  958.999999999999 123.166149068323  C 958.999999999999 123.166149068323  228.715639810427 123.166149068323  228.715639810427 123.166149068323  C 226.230358436188 123.166149068323  224.215639810427 121.151430442562  224.215639810427 118.666149068323  Z " fill-rule="nonzero" fill="#ffffff" stroke="none" />
    <path d="M 223.715639810427 118.666149068323  C 223.715639810427 118.666149068323  223.715639810427 116.116533864542  223.715639810427 116.116533864542  C 223.715639810427 116.116533864542  210.684434968017 106.889125799574  210.684434968017 106.889125799574  C 210.684434968017 106.889125799574  223.715639810427 98.6165338645418  223.715639810427 98.6165338645418  C 223.715639810427 98.6165338645418  223.715639810427 94  223.715639810427 94  C 223.715639810427 91.238576250846  225.954216061273 89  228.715639810427 89  C 228.715639810427 89  958.999999999999 89  958.999999999999 89  C 961.761423749153 89  963.999999999999 91.238576250846  963.999999999999 94  C 963.999999999999 94  963.999999999999 118.666149068323  963.999999999999 118.666149068323  C 963.999999999999 121.427572817477  961.761423749153 123.666149068323  958.999999999999 123.666149068323  C 958.999999999999 123.666149068323  228.715639810427 123.666149068323  228.715639810427 123.666149068323  C 225.954216061273 123.666149068323  223.715639810427 121.427572817477  223.715639810427 118.666149068323  Z M 224.715639810427 118.666149068323  C 224.715639810427 120.875288067646  226.506500811103 122.666149068323  228.715639810427 122.666149068323  C 228.715639810427 122.666149068323  958.999999999999 122.666149068323  958.999999999999 122.666149068323  C 961.209138999322 122.666149068323  962.999999999999 120.875288067646  962.999999999999 118.666149068323  C 962.999999999999 118.666149068323  962.999999999999 94  962.999999999999 94  C 962.999999999999 91.7908610006768  961.209138999322 90  958.999999999999 90  C 958.999999999999 90  228.715639810427 90  228.715639810427 90  C 226.506500811103 90  224.715639810427 91.7908610006768  224.715639810427 94  C 224.715639810427 94  224.715639810427 99.1661910066705  224.715639810427 99.1661910066705  C 224.715639810427 99.1661910066705  212.478873309739 106.934450126886  212.478873309739 106.934450126886  C 212.478873309739 106.934450126886  224.715639810427 115.599315675627  224.715639810427 115.599315675627  C 224.715639810427 115.599315675627  224.715639810427 118.666149068323  224.715639810427 118.666149068323  Z " fill-rule="nonzero" fill="#d7d7d7" stroke="none" />
  </g>
</svg>