<?xml version="1.0" encoding="utf-8"?>
<svg version="1.1" xmlns:xlink="http://www.w3.org/1999/xlink" width="781px" height="35px" xmlns="http://www.w3.org/2000/svg">
  <g transform="matrix(1 0 0 1 -196 -70 )">
    <path d="M 210.706783411065 99.666149068323  C 210.706783411065 99.666149068323  210.706783411065 96.8526758182074  210.706783411065 96.8526758182074  C 210.706783411065 96.8526758182074  197.628419704315 87.9120302610395  197.628419704315 87.9120302610395  C 197.628419704315 87.9120302610395  210.706783411065 79.896527770042  210.706783411065 79.896527770042  C 210.706783411065 79.896527770042  210.706783411065 75  210.706783411065 75  C 210.706783411065 72.5147186257614  212.721502036827 70.5  215.206783411065 70.5  C 215.206783411065 70.5  971.999999999999 70.5  971.999999999999 70.5  C 974.485281374237 70.5  976.499999999999 72.5147186257614  976.499999999999 75  C 976.499999999999 75  976.499999999999 99.666149068323  976.499999999999 99.666149068323  C 976.499999999999 102.151430442562  974.485281374237 104.166149068323  971.999999999999 104.166149068323  C 971.999999999999 104.166149068323  215.206783411065 104.166149068323  215.206783411065 104.166149068323  C 212.721502036827 104.166149068323  210.706783411065 102.151430442562  210.706783411065 99.666149068323  Z " fill-rule="nonzero" fill="#ffffff" stroke="none" />
    <path d="M 210.206783411065 99.666149068323  C 210.206783411065 99.666149068323  210.206783411065 97.1165338645418  210.206783411065 97.1165338645418  C 210.206783411065 97.1165338645418  196.708943912495 87.8891257995735  196.708943912495 87.8891257995735  C 196.708943912495 87.8891257995735  210.206783411065 79.6165338645418  210.206783411065 79.6165338645418  C 210.206783411065 79.6165338645418  210.206783411065 75  210.206783411065 75  C 210.206783411065 72.238576250846  212.445359661911 70  215.206783411065 70  C 215.206783411065 70  971.999999999999 70  971.999999999999 70  C 974.761423749153 70  976.999999999999 72.238576250846  976.999999999999 75  C 976.999999999999 75  976.999999999999 99.666149068323  976.999999999999 99.666149068323  C 976.999999999999 102.427572817477  974.761423749153 104.666149068323  971.999999999999 104.666149068323  C 971.999999999999 104.666149068323  215.206783411065 104.666149068323  215.206783411065 104.666149068323  C 212.445359661911 104.666149068323  210.206783411065 102.427572817477  210.206783411065 99.666149068323  Z M 211.206783411065 99.666149068323  C 211.206783411065 101.875288067646  212.997644411742 103.666149068323  215.206783411065 103.666149068323  C 215.206783411065 103.666149068323  971.999999999999 103.666149068323  971.999999999999 103.666149068323  C 974.209138999322 103.666149068323  975.999999999999 101.875288067646  975.999999999999 99.666149068323  C 975.999999999999 99.666149068323  975.999999999999 75  975.999999999999 75  C 975.999999999999 72.7908610006768  974.209138999322 71  971.999999999999 71  C 971.999999999999 71  215.206783411065 71  215.206783411065 71  C 212.997644411742 71  211.206783411065 72.7908610006768  211.206783411065 75  C 211.206783411065 75  211.206783411065 80.1765216755421  211.206783411065 80.1765216755421  C 211.206783411065 80.1765216755421  198.547895496135 87.9349347225055  198.547895496135 87.9349347225055  C 198.547895496135 87.9349347225055  211.206783411065 96.588817771873  211.206783411065 96.588817771873  C 211.206783411065 96.588817771873  211.206783411065 99.666149068323  211.206783411065 99.666149068323  Z " fill-rule="nonzero" fill="#d7d7d7" stroke="none" />
  </g>
</svg>