<?xml version="1.0" encoding="utf-8"?>
<svg version="1.1" xmlns:xlink="http://www.w3.org/1999/xlink" width="22px" height="22px" xmlns="http://www.w3.org/2000/svg">
  <g transform="matrix(1 0 0 1 -562 -2 )">
    <path d="M 20.3119419642857 20.3119419642857  C 20.3896949404762 20.2341889880952  20.4285714285714 20.1421130952381  20 20.0357142857143  L 20 6.67857142857143  C 20.4285714285714 6.57217261904762  20.3896949404762 6.48009672619048  20.3119419642857 6.40234375  C 20.2341889880952 6.32459077380952  20.1421130952381 6.28571428571429  20.0357142857143 6.28571428571429  L 6.67857142857143 6.28571428571429  C 6.57217261904762 6.28571428571429  6.48009672619048 6.32459077380952  6.40234375 6.40234375  C 6.32459077380952 6.48009672619048  6.28571428571429 6.57217261904762  6.28571428571429 6.67857142857143  L 6.28571428571429 20.0357142857143  C 6.28571428571429 20.1421130952381  6.32459077380952 20.2341889880952  6.40234375 20.3119419642857  C 6.48009672619048 20.3896949404762  6.57217261904762 20.4285714285714  6.67857142857143 20  L 20.0357142857143 20  C 20.1421130952381 20.4285714285714  20.2341889880952 20.3896949404762  20.3119419642857 20.3119419642857  Z M 21.4229910714286 5.29129464285714  C 21.8076636904762 5.67596726190476  22 6.13839285714286  22 6.67857142857143  L 22 20.0357142857143  C 22 20.5758928571429  21.8076636904762 21.038318452381  21.4229910714286 21.4229910714286  C 21.038318452381 21.8076636904762  20.5758928571429 22  20.0357142857143 22  L 6.67857142857143 22  C 6.13839285714286 22  5.67596726190476 21.8076636904762  5.29129464285714 21.4229910714286  C 4.90662202380952 21.038318452381  4.71428571428571 20.5758928571429  5 20.0357142857143  L 5 6.67857142857143  C 4.71428571428571 6.13839285714286  4.90662202380952 5.67596726190476  5.29129464285714 5.29129464285714  C 5.67596726190476 4.90662202380952  6.13839285714286 4.71428571428571  6.67857142857143 5  L 20.0357142857143 5  C 20.5758928571429 4.71428571428571  21.038318452381 4.90662202380952  21.4229910714286 5.29129464285714  Z M 16.7087053571429 0.577008928571429  C 17.0933779761905 0.961681547619046  17.2857142857143 1.42410714285714  17.2857142857143 1.96428571428571  L 17.2857142857143 3.92857142857143  L 15.7142857142857 3.92857142857143  L 15.7142857142857 1.96428571428571  C 15.7142857142857 1.8578869047619  15.6754092261905 1.76581101190476  15.59765625 1.68805803571429  C 15.5199032738095 1.61030505952381  15.4278273809524 1.57142857142857  15.3214285714286 2  L 1.96428571428571 2  C 1.8578869047619 1.57142857142857  1.76581101190476 1.61030505952381  1.68805803571429 1.68805803571429  C 1.61030505952381 1.76581101190476  1.57142857142857 1.8578869047619  2 1.96428571428571  L 2 15.3214285714286  C 1.57142857142857 15.4278273809524  1.61030505952381 15.5199032738095  1.68805803571429 15.59765625  C 1.76581101190476 15.6754092261905  1.8578869047619 15.7142857142857  1.96428571428571 15.7142857142857  L 3.92857142857143 15.7142857142857  L 3.92857142857143 17.2857142857143  L 1.96428571428571 17.2857142857143  C 1.42410714285714 17.2857142857143  0.961681547619048 17.0933779761905  0.577008928571429 16.7087053571429  C 0.19233630952381 16.3240327380952  0 15.8616071428571  0 15.3214285714286  L 0 1.96428571428571  C 0 1.42410714285714  0.19233630952381 0.961681547619046  0.577008928571429 0.577008928571429  C 0.961681547619048 0.19233630952381  1.42410714285714 0  1.96428571428571 0  L 15.3214285714286 0  C 15.8616071428571 0  16.3240327380952 0.19233630952381  16.7087053571429 0.577008928571429  Z " fill-rule="nonzero" fill="#02a7f0" stroke="none" transform="matrix(1 0 0 1 562 2 )" />
  </g>
</svg>