<?xml version="1.0" encoding="utf-8"?>
<svg version="1.1" xmlns:xlink="http://www.w3.org/1999/xlink" width="12px" height="12px" viewBox="60 216.5  12 12" xmlns="http://www.w3.org/2000/svg">
  <path d="M 66 216.5  C 69.36 216.5  72 219.14  72 222.5  C 72 225.86  69.36 228.5  66 228.5  C 62.64 228.5  60 225.86  60 222.5  C 60 219.14  62.64 216.5  66 216.5  Z " fill-rule="nonzero" fill="#ffffff" stroke="none" />
  <path d="M 66 217  C 69.08 217  71.5 219.42  71.5 222.5  C 71.5 225.58  69.08 228  66 228  C 62.92 228  60.5 225.58  60.5 222.5  C 60.5 219.42  62.92 217  66 217  Z " stroke-width="1" stroke="#02a7f0" fill="none" />
  <path d="M 66 225.5  C 64.32 225.5  63 224.18  63 222.5  C 63 220.82  64.32 219.5  66 219.5  C 67.68 219.5  69 220.82  69 222.5  C 69 224.18  67.68 225.5  66 225.5  " fill-rule="nonzero" fill="#02a7f0" stroke="none" />
</svg>