<?xml version="1.0" encoding="utf-8"?>
<svg version="1.1" xmlns:xlink="http://www.w3.org/1999/xlink" width="16px" height="16px" viewBox="20 106.5  16 16" xmlns="http://www.w3.org/2000/svg">
  <path d="M 28 106.5  C 32.48 106.5  36 110.02  36 114.5  C 36 118.98  32.48 122.5  28 122.5  C 23.52 122.5  20 118.98  20 114.5  C 20 110.02  23.52 106.5  28 106.5  Z " fill-rule="nonzero" fill="#f0f0f0" stroke="none" />
  <path d="M 28 107  C 32.2 107  35.5 110.3  35.5 114.5  C 35.5 118.7  32.2 122  28 122  C 23.8 122  20.5 118.7  20.5 114.5  C 20.5 110.3  23.8 107  28 107  Z " stroke-width="1" stroke="#02a7f0" fill="none" />
  <path d="M 28 118.5  C 25.76 118.5  24 116.74  24 114.5  C 24 112.26  25.76 110.5  28 110.5  C 30.24 110.5  32 112.26  32 114.5  C 32 116.74  30.24 118.5  28 118.5  " fill-rule="nonzero" fill="#02a7f0" stroke="none" />
</svg>