<?xml version="1.0" encoding="utf-8"?>
<svg version="1.1" xmlns:xlink="http://www.w3.org/1999/xlink" width="16px" height="16px" viewBox="20 253.5  16 16" xmlns="http://www.w3.org/2000/svg">
  <path d="M 28 253.5  C 32.48 253.5  36 257.02  36 261.5  C 36 265.98  32.48 269.5  28 269.5  C 23.52 269.5  20 265.98  20 261.5  C 20 257.02  23.52 253.5  28 253.5  Z " fill-rule="nonzero" fill="#f0f0f0" stroke="none" />
  <path d="M 28 254  C 32.2 254  35.5 257.3  35.5 261.5  C 35.5 265.7  32.2 269  28 269  C 23.8 269  20.5 265.7  20.5 261.5  C 20.5 257.3  23.8 254  28 254  Z " stroke-width="1" stroke="#02a7f0" fill="none" />
  <path d="M 28 265.5  C 25.76 265.5  24 263.74  24 261.5  C 24 259.26  25.76 257.5  28 257.5  C 30.24 257.5  32 259.26  32 261.5  C 32 263.74  30.24 265.5  28 265.5  " fill-rule="nonzero" fill="#02a7f0" stroke="none" />
</svg>