<?xml version="1.0" encoding="utf-8"?>
<svg version="1.1" xmlns:xlink="http://www.w3.org/1999/xlink" width="16px" height="16px" viewBox="20 225.5  16 16" xmlns="http://www.w3.org/2000/svg">
  <path d="M 28 225.5  C 32.48 225.5  36 229.02  36 233.5  C 36 237.98  32.48 241.5  28 241.5  C 23.52 241.5  20 237.98  20 233.5  C 20 229.02  23.52 225.5  28 225.5  Z " fill-rule="nonzero" fill="#ffffff" stroke="none" />
  <path d="M 28 226  C 32.2 226  35.5 229.3  35.5 233.5  C 35.5 237.7  32.2 241  28 241  C 23.8 241  20.5 237.7  20.5 233.5  C 20.5 229.3  23.8 226  28 226  Z " stroke-width="1" stroke="#02a7f0" fill="none" />
  <path d="M 28 237.5  C 25.76 237.5  24 235.74  24 233.5  C 24 231.26  25.76 229.5  28 229.5  C 30.24 229.5  32 231.26  32 233.5  C 32 235.74  30.24 237.5  28 237.5  " fill-rule="nonzero" fill="#02a7f0" stroke="none" />
</svg>