<?xml version="1.0" encoding="utf-8"?>
<svg version="1.1" xmlns:xlink="http://www.w3.org/1999/xlink" width="16px" height="16px" viewBox="20 279.5  16 16" xmlns="http://www.w3.org/2000/svg">
  <path d="M 28 279.5  C 32.48 279.5  36 283.02  36 287.5  C 36 291.98  32.48 295.5  28 295.5  C 23.52 295.5  20 291.98  20 287.5  C 20 283.02  23.52 279.5  28 279.5  Z " fill-rule="nonzero" fill="#f0f0f0" stroke="none" />
  <path d="M 28 280  C 32.2 280  35.5 283.3  35.5 287.5  C 35.5 291.7  32.2 295  28 295  C 23.8 295  20.5 291.7  20.5 287.5  C 20.5 283.3  23.8 280  28 280  Z " stroke-width="1" stroke="#02a7f0" fill="none" />
  <path d="M 28 291.5  C 25.76 291.5  24 289.74  24 287.5  C 24 285.26  25.76 283.5  28 283.5  C 30.24 283.5  32 285.26  32 287.5  C 32 289.74  30.24 291.5  28 291.5  " fill-rule="nonzero" fill="#02a7f0" stroke="none" />
</svg>