<?xml version="1.0" encoding="utf-8"?>
<svg version="1.1" xmlns:xlink="http://www.w3.org/1999/xlink" width="12px" height="12px" viewBox="249 4493.5  12 12" xmlns="http://www.w3.org/2000/svg">
  <path d="M 255 4493.5  C 258.36 4493.5  261 4496.14  261 4499.5  C 261 4502.86  258.36 4505.5  255 4505.5  C 251.64 4505.5  249 4502.86  249 4499.5  C 249 4496.14  251.64 4493.5  255 4493.5  Z " fill-rule="nonzero" fill="#ffffff" stroke="none" />
  <path d="M 255 4494  C 258.08 4494  260.5 4496.42  260.5 4499.5  C 260.5 4502.58  258.08 4505  255 4505  C 251.92 4505  249.5 4502.58  249.5 4499.5  C 249.5 4496.42  251.92 4494  255 4494  Z " stroke-width="1" stroke="#02a7f0" fill="none" />
  <path d="M 255 4502.5  C 253.32 4502.5  252 4501.18  252 4499.5  C 252 4497.82  253.32 4496.5  255 4496.5  C 256.68 4496.5  258 4497.82  258 4499.5  C 258 4501.18  256.68 4502.5  255 4502.5  " fill-rule="nonzero" fill="#02a7f0" stroke="none" />
</svg>