<?xml version="1.0" encoding="utf-8"?>
<svg version="1.1" xmlns:xlink="http://www.w3.org/1999/xlink" width="12px" height="12px" viewBox="249 4243.5  12 12" xmlns="http://www.w3.org/2000/svg">
  <path d="M 255 4243.5  C 258.36 4243.5  261 4246.14  261 4249.5  C 261 4252.86  258.36 4255.5  255 4255.5  C 251.64 4255.5  249 4252.86  249 4249.5  C 249 4246.14  251.64 4243.5  255 4243.5  Z " fill-rule="nonzero" fill="#f0f0f0" stroke="none" />
  <path d="M 255 4244  C 258.08 4244  260.5 4246.42  260.5 4249.5  C 260.5 4252.58  258.08 4255  255 4255  C 251.92 4255  249.5 4252.58  249.5 4249.5  C 249.5 4246.42  251.92 4244  255 4244  Z " stroke-width="1" stroke="#02a7f0" fill="none" />
  <path d="M 255 4252.5  C 253.32 4252.5  252 4251.18  252 4249.5  C 252 4247.82  253.32 4246.5  255 4246.5  C 256.68 4246.5  258 4247.82  258 4249.5  C 258 4251.18  256.68 4252.5  255 4252.5  " fill-rule="nonzero" fill="#02a7f0" stroke="none" />
</svg>