<?xml version="1.0" encoding="utf-8"?>
<svg version="1.1" xmlns:xlink="http://www.w3.org/1999/xlink" width="41px" height="37px" xmlns="http://www.w3.org/2000/svg">
  <g transform="matrix(1 0 0 1 -5 -9 )">
    <path d="M 39.7873883928571 16.719375  C 40.5957961309524 18.7852083333333  41 21.3520833333333  41 24.42  C 41 26.9791666666667  40.0314360119048 30.455625  38.0943080357143 34.849375  C 38.0485491071429 34.9572916666667  37.9684709821429 35.1422916666667  37.8540736607143 35.404375  C 37.7396763392857 35.6664583333333  37.63671875 35.8977083333333  37.5452008928571 36.098125  C 37.4536830357143 36.2985416666667  37.3545386904762 36.468125  37.2477678571429 36.606875  C 37.0647321428571 36.8689583333333  36.8511904761905 37  36.6071428571429 37  C 36.3783482142857 37  36.1991257440476 36.9229166666667  36.0694754464286 36.76875  C 35.9398251488095 36.6145833333333  35.875 36.421875  35.875 36.190625  C 35.875 36.051875  35.8940662202381 35.8476041666667  35.9321986607143 35.5778125  C 35.9703311011905 35.3080208333333  35.9893973214286 35.126875  35.9893973214286 35.034375  C 36.065662202381 33.9860416666667  36.1037946428572 33.0379166666667  36.1037946428571 32.19  C 36.1037946428572 30.6329166666667  35.9703311011905 29.2377083333333  35.7034040178571 28.004375  C 35.4364769345238 26.7710416666667  35.0665922619048 25.7034375  34.59375 24.8015625  C 34.1209077380952 23.8996875  33.5107886904762 23.1211458333333  32.7633928571429 22.4659375  C 32.0159970238095 21.8107291666667  31.2114025297619 21.275  30.349609375 20.85875  C 29.4878162202381 20.4425  28.4734933035714 20.1148958333333  27.306640625 19.8759375  C 26.1397879464286 19.6369791666667  24.9653087797619 19.47125  23.783203125 19.37875  C 22.6010974702381 19.28625  21.2626488095238 19.24  19.7678571428571 19.24  L 14.6428571428571 19.24  L 14.6428571428571 25.16  C 14.6428571428571 25.5608333333333  14.4979538690476 25.9077083333333  14.2081473214286 26.200625  C 13.9183407738095 26.4935416666667  13.5751488095238 26.64  13.1785714285714 26.64  C 12.781994047619 26.64  12.4388020833333 26.4935416666667  12.1489955357143 26.200625  L 0.434709821428571 14.360625  C 0.144903273809524 14.0677083333333  0 13.7208333333333  0 13.32  C 0 12.9191666666667  0.144903273809524 12.5722916666667  0.434709821428571 12.279375  L 12.1489955357143 0.439374999999999  C 12.4388020833333 0.146458333333332  12.781994047619 0  13.1785714285714 0  C 13.5751488095238 0  13.9183407738095 0.146458333333332  14.2081473214286 0.439374999999999  C 14.4979538690476 0.732291666666662  14.6428571428571 1.07916666666666  14.6428571428571 1.48  L 14.6428571428571 7.4  L 19.7678571428571 7.4  C 30.6432291666667 7.4  37.31640625 10.5064583333333  39.7873883928571 16.719375  Z " fill-rule="nonzero" fill="#02a7f0" stroke="none" transform="matrix(1 0 0 1 5 9 )" />
  </g>
</svg>