<?xml version="1.0" encoding="utf-8"?>
<svg version="1.1" xmlns:xlink="http://www.w3.org/1999/xlink" width="12px" height="12px" viewBox="51 100.5  12 12" xmlns="http://www.w3.org/2000/svg">
  <path d="M 57 100.5  C 60.36 100.5  63 103.14  63 106.5  C 63 109.86  60.36 112.5  57 112.5  C 53.64 112.5  51 109.86  51 106.5  C 51 103.14  53.64 100.5  57 100.5  Z " fill-rule="nonzero" fill="#ffffff" stroke="none" />
  <path d="M 57 101  C 60.08 101  62.5 103.42  62.5 106.5  C 62.5 109.58  60.08 112  57 112  C 53.92 112  51.5 109.58  51.5 106.5  C 51.5 103.42  53.92 101  57 101  Z " stroke-width="1" stroke="#d7d7d7" fill="none" />
  <path d="M 57 109.5  C 55.32 109.5  54 108.18  54 106.5  C 54 104.82  55.32 103.5  57 103.5  C 58.68 103.5  60 104.82  60 106.5  C 60 108.18  58.68 109.5  57 109.5  " fill-rule="nonzero" fill="#d7d7d7" stroke="none" />
</svg>