<?xml version="1.0" encoding="utf-8"?>
<svg version="1.1" xmlns:xlink="http://www.w3.org/1999/xlink" width="36px" height="10px" preserveAspectRatio="xMinYMid meet" viewBox="505 1226  36 8" xmlns="http://www.w3.org/2000/svg">
  <path d="M 487 1240.5  L 505 1240.5  A 5 5 0 0 0 510.5 1235.5 A 5 5 0 0 1 515.5 1230.5 L 531 1230.5  A 5 5 0 0 1 536.5 1235.5 L 536.5 1246  " stroke-width="1" stroke="#ff3399" fill="none" />
  <path d="M 489 1237.5  A 3 3 0 0 0 486 1240.5 A 3 3 0 0 0 489 1243.5 A 3 3 0 0 0 492 1240.5 A 3 3 0 0 0 489 1237.5 Z " fill-rule="nonzero" fill="#ff3399" stroke="none" />
</svg>