<?xml version="1.0" encoding="utf-8"?>
<svg version="1.1" xmlns:xlink="http://www.w3.org/1999/xlink" width="12px" height="12px" viewBox="249 4366.5  12 12" xmlns="http://www.w3.org/2000/svg">
  <path d="M 255 4366.5  C 258.36 4366.5  261 4369.14  261 4372.5  C 261 4375.86  258.36 4378.5  255 4378.5  C 251.64 4378.5  249 4375.86  249 4372.5  C 249 4369.14  251.64 4366.5  255 4366.5  Z " fill-rule="nonzero" fill="#f0f0f0" stroke="none" />
  <path d="M 255 4367  C 258.08 4367  260.5 4369.42  260.5 4372.5  C 260.5 4375.58  258.08 4378  255 4378  C 251.92 4378  249.5 4375.58  249.5 4372.5  C 249.5 4369.42  251.92 4367  255 4367  Z " stroke-width="1" stroke="#02a7f0" fill="none" />
  <path d="M 255 4375.5  C 253.32 4375.5  252 4374.18  252 4372.5  C 252 4370.82  253.32 4369.5  255 4369.5  C 256.68 4369.5  258 4370.82  258 4372.5  C 258 4374.18  256.68 4375.5  255 4375.5  " fill-rule="nonzero" fill="#02a7f0" stroke="none" />
</svg>