<?xml version="1.0" encoding="utf-8"?>
<svg version="1.1" xmlns:xlink="http://www.w3.org/1999/xlink" width="12px" height="12px" viewBox="30 164.5  12 12" xmlns="http://www.w3.org/2000/svg">
  <path d="M 36 164.5  C 39.36 164.5  42 167.14  42 170.5  C 42 173.86  39.36 176.5  36 176.5  C 32.64 176.5  30 173.86  30 170.5  C 30 167.14  32.64 164.5  36 164.5  Z " fill-rule="nonzero" fill="#ffffff" stroke="none" />
  <path d="M 36 165  C 39.08 165  41.5 167.42  41.5 170.5  C 41.5 173.58  39.08 176  36 176  C 32.92 176  30.5 173.58  30.5 170.5  C 30.5 167.42  32.92 165  36 165  Z " stroke-width="1" stroke="#02a7f0" fill="none" />
  <path d="M 36 173.5  C 34.32 173.5  33 172.18  33 170.5  C 33 168.82  34.32 167.5  36 167.5  C 37.68 167.5  39 168.82  39 170.5  C 39 172.18  37.68 173.5  36 173.5  " fill-rule="nonzero" fill="#02a7f0" stroke="none" />
</svg>