<?xml version="1.0" encoding="utf-8"?>
<svg version="1.1" xmlns:xlink="http://www.w3.org/1999/xlink" width="40px" height="50px" xmlns="http://www.w3.org/2000/svg">
  <defs>
    <filter x="230px" y="157px" width="40px" height="50px" filterUnits="userSpaceOnUse" id="filter395">
      <feOffset dx="1" dy="1" in="SourceAlpha" result="shadowOffsetInner" />
      <feGaussianBlur stdDeviation="2.5" in="shadowOffsetInner" result="shadowGaussian" />
      <feComposite in2="shadowGaussian" operator="atop" in="SourceAlpha" result="shadowComposite" />
      <feColorMatrix type="matrix" values="0 0 0 0 0  0 0 0 0 0  0 0 0 0 0  0 0 0 0.698039215686274 0  " in="shadowComposite" />
    </filter>
    <g id="widget396">
      <path d="M 249 200.036928468354  C 243.2 190.40734059591  234.5 184.629587872444  234.5 175  C 234.5 169.985714285714  237.4 161.5  249 161.5  C 260.6 161.5  263.5 169.985714285714  263.5 175  C 263.5 184.629587872444  254.8 190.40734059591  249 200.036928468354  Z " fill-rule="nonzero" fill="#009dd9" stroke="none" />
      <path d="M 249 201  C 243 191  234 185  234 175  C 234 169.8  237 161  249 161  C 261 161  264 169.8  264 175  C 264 185  255 191  249 201  Z M 249 199.073856936707  C 254.6 189.81468119182  263 184.259175744887  263 175  C 263 170.171428571429  260.2 162  249 162  C 237.8 162  235 170.171428571429  235 175  C 235 184.259175744887  243.4 189.81468119182  249 199.073856936707  Z " fill-rule="nonzero" fill="#ffffff" stroke="none" />
    </g>
  </defs>
  <g transform="matrix(1 0 0 1 -230 -157 )">
    <use xlink:href="#widget396" filter="url(#filter395)" />
    <use xlink:href="#widget396" />
  </g>
</svg>