<?xml version="1.0" encoding="utf-8"?>
<svg version="1.1" xmlns:xlink="http://www.w3.org/1999/xlink" width="23px" height="23px" xmlns="http://www.w3.org/2000/svg">
  <g transform="matrix(1 0 0 1 -367 -487 )">
    <path d="M 5.7275390625 1.54231770833333  C 7.48947482638889 0.514105902777776  9.41362847222222 0  11.5 0  C 13.5863715277778 0  15.5105251736111 0.514105902777776  17.2724609375 1.54231770833333  C 19.0343967013889 2.57052951388889  20.4294704861111 3.96560329861111  21.4576822916667 5.7275390625  C 22.4858940972222 7.48947482638889  23 9.41362847222222  23 11.5  C 23 13.5863715277778  22.4858940972222 15.5105251736111  21.4576822916667 17.2724609375  C 20.4294704861111 19.0343967013889  19.0343967013889 20.4294704861111  17.2724609375 21.4576822916667  C 15.5105251736111 22.4858940972222  13.5863715277778 23  11.5 23  C 9.41362847222222 23  7.48947482638889 22.4858940972222  5.7275390625 21.4576822916667  C 3.96560329861111 20.4294704861111  2.57052951388889 19.0343967013889  1.54231770833333 17.2724609375  C 0.514105902777778 15.5105251736111  0 13.5863715277778  0 11.5  C 0 9.41362847222222  0.514105902777778 7.48947482638889  1.54231770833333 5.7275390625  C 2.57052951388889 3.96560329861111  3.96560329861111 2.57052951388889  5.7275390625 1.54231770833333  Z M 7.412109375 18.552734375  C 8.65993923611111 19.2814670138889  10.0225694444444 19.6458333333333  11.5 19.6458333333333  C 12.9774305555556 19.6458333333333  14.3400607638889 19.2814670138889  15.587890625 18.552734375  C 16.8357204861111 17.8240017361111  17.8240017361111 16.8357204861111  18.552734375 15.587890625  C 19.2814670138889 14.3400607638889  19.6458333333333 12.9774305555556  19.6458333333333 11.5  C 19.6458333333333 10.0225694444444  19.2814670138889 8.65993923611111  18.552734375 7.412109375  C 17.8240017361111 6.16427951388889  16.8357204861111 5.17599826388889  15.587890625 4.447265625  C 14.3400607638889 3.71853298611111  12.9774305555556 3.35416666666667  11.5 3.35416666666667  C 10.0225694444444 3.35416666666667  8.65993923611111 3.71853298611111  7.412109375 4.447265625  C 6.16427951388889 5.17599826388889  5.17599826388889 6.16427951388889  4.447265625 7.412109375  C 3.71853298611111 8.65993923611111  3.35416666666667 10.0225694444444  3.35416666666667 11.5  C 3.35416666666667 12.9774305555556  3.71853298611111 14.3400607638889  4.447265625 15.587890625  C 5.17599826388889 16.8357204861111  6.16427951388889 17.8240017361111  7.412109375 18.552734375  Z M 15.8125 16.2916666666667  L 12.9375 16.2916666666667  C 12.7977430555556 16.2916666666667  12.6829427083333 16.2467447916667  12.5930989583333 16.1569010416667  C 12.5032552083333 16.0670572916667  12.4583333333333 15.9522569444444  12.4583333333333 15.8125  L 12.4583333333333 7.1875  C 12.4583333333333 7.04774305555555  12.5032552083333 6.93294270833333  12.5930989583333 6.84309895833333  C 12.6829427083333 6.75325520833333  12.7977430555556 6.70833333333333  12.9375 6.70833333333333  L 15.8125 6.70833333333333  C 15.9522569444444 6.70833333333333  16.0670572916667 6.75325520833333  16.1569010416667 6.84309895833333  C 16.2467447916667 6.93294270833333  16.2916666666667 7.04774305555555  16.2916666666667 7.1875  L 16.2916666666667 15.8125  C 16.2916666666667 15.9522569444444  16.2467447916667 16.0670572916667  16.1569010416667 16.1569010416667  C 16.0670572916667 16.2467447916667  15.9522569444444 16.2916666666667  15.8125 16.2916666666667  Z M 10.0625 16.2916666666667  L 7.1875 16.2916666666667  C 7.04774305555556 16.2916666666667  6.93294270833333 16.2467447916667  6.84309895833333 16.1569010416667  C 6.75325520833333 16.0670572916667  6.70833333333333 15.9522569444444  6.70833333333333 15.8125  L 6.70833333333333 7.1875  C 6.70833333333333 7.04774305555555  6.75325520833333 6.93294270833333  6.84309895833333 6.84309895833333  C 6.93294270833333 6.75325520833333  7.04774305555556 6.70833333333333  7.1875 6.70833333333333  L 10.0625 6.70833333333333  C 10.2022569444444 6.70833333333333  10.3170572916667 6.75325520833333  10.4069010416667 6.84309895833333  C 10.4967447916667 6.93294270833333  10.5416666666667 7.04774305555555  10.5416666666667 7.1875  L 10.5416666666667 15.8125  C 10.5416666666667 15.9522569444444  10.4967447916667 16.0670572916667  10.4069010416667 16.1569010416667  C 10.3170572916667 16.2467447916667  10.2022569444444 16.2916666666667  10.0625 16.2916666666667  Z " fill-rule="nonzero" fill="#000000" stroke="none" transform="matrix(1 0 0 1 367 487 )" />
  </g>
</svg>