<?xml version="1.0" encoding="utf-8"?>
<svg version="1.1" xmlns:xlink="http://www.w3.org/1999/xlink" width="36px" height="45px" xmlns="http://www.w3.org/2000/svg">
  <defs>
    <filter x="269px" y="309px" width="36px" height="45px" filterUnits="userSpaceOnUse" id="filter152">
      <feOffset dx="1" dy="1" in="SourceAlpha" result="shadowOffsetInner" />
      <feGaussianBlur stdDeviation="2.5" in="shadowOffsetInner" result="shadowGaussian" />
      <feComposite in2="shadowGaussian" operator="atop" in="SourceAlpha" result="shadowComposite" />
      <feColorMatrix type="matrix" values="0 0 0 0 0  0 0 0 0 0  0 0 0 0 0  0 0 0 0.698039215686274 0  " in="shadowComposite" />
    </filter>
    <g id="widget153">
      <path d="M 286 347.030671506739  C 281 338.653490157994  273.5 333.627181348746  273.5 325.25  C 273.5 320.885714285714  276 313.5  286 313.5  C 296 313.5  298.5 320.885714285714  298.5 325.25  C 298.5 333.627181348746  291 338.653490157994  286 347.030671506739  Z " fill-rule="nonzero" fill="#009dd9" stroke="none" />
      <path d="M 286 348  C 280.8 339.25  273 334  273 325.25  C 273 320.7  275.6 313  286 313  C 296.4 313  299 320.7  299 325.25  C 299 334  291.2 339.25  286 348  Z M 286 346.061343013479  C 290.8 338.056980315987  298 333.254362697492  298 325.25  C 298 321.071428571429  295.6 314  286 314  C 276.4 314  274 321.071428571429  274 325.25  C 274 333.254362697492  281.2 338.056980315987  286 346.061343013479  Z " fill-rule="nonzero" fill="#ffffff" stroke="none" />
    </g>
  </defs>
  <g transform="matrix(1 0 0 1 -269 -309 )">
    <use xlink:href="#widget153" filter="url(#filter152)" />
    <use xlink:href="#widget153" />
  </g>
</svg>