<?xml version="1.0" encoding="utf-8"?>
<svg version="1.1" xmlns:xlink="http://www.w3.org/1999/xlink" width="16px" height="22px" xmlns="http://www.w3.org/2000/svg">
  <g transform="matrix(1 0 0 1 -267 -340 )">
    <path d="M 15.703125 13.296875  C 15.9010416666667 13.4947916666667  16 13.7291666666667  16 14  C 16 14.2708333333333  15.9010416666667 14.5052083333333  15.703125 14.703125  L 8.703125 21.703125  C 8.50520833333333 21.9010416666667  8.27083333333333 22  8 22  C 7.72916666666667 22  7.49479166666667 21.9010416666667  7.296875 21.703125  L 0.296875 14.703125  C 0.0989583333333333 14.5052083333333  0 14.2708333333333  0 14  C 0 13.7291666666667  0.0989583333333333 13.4947916666667  0.296875 13.296875  C 0.494791666666667 13.0989583333333  0.729166666666667 13  1 13  L 15 13  C 15.2708333333333 13  15.5052083333333 13.0989583333333  15.703125 13.296875  Z M 15.703125 7.296875  C 15.9010416666667 7.49479166666666  16 7.72916666666666  16 8  C 16 8.27083333333333  15.9010416666667 8.50520833333333  15.703125 8.703125  C 15.5052083333333 8.90104166666667  15.2708333333333 9  15 9  L 1 9  C 0.729166666666667 9  0.494791666666667 8.90104166666667  0.296875 8.703125  C 0.0989583333333333 8.50520833333333  0 8.27083333333333  0 8  C 0 7.72916666666666  0.0989583333333333 7.49479166666666  0.296875 7.296875  L 7.296875 0.296875000000001  C 7.49479166666667 0.0989583333333313  7.72916666666667 0  8 0  C 8.27083333333333 0  8.50520833333333 0.0989583333333313  8.703125 0.296875000000001  L 15.703125 7.296875  Z " fill-rule="nonzero" fill="#000000" stroke="none" transform="matrix(1 0 0 1 267 340 )" />
  </g>
</svg>