<?xml version="1.0" encoding="utf-8"?>
<svg version="1.1" xmlns:xlink="http://www.w3.org/1999/xlink" width="80px" height="21px" xmlns="http://www.w3.org/2000/svg">
  <defs>
    <mask fill="white" id="clip229">
      <path d="M 0 15.75  L 0 5.25  C 0 2.30999999999999  2.20000000000005 0  5 0  L 27.7575757575758 0  L 75 0  C 77.8 0  80 2.30999999999999  80 5.25  L 80 15.75  C 80 18.69  77.8 21  75 21  L 27.7575757575758 21  L 5 21  C 2.20000000000005 21  0 18.69  0 15.75  Z " fill-rule="evenodd" />
    </mask>
  </defs>
  <g transform="matrix(1 0 0 1 -928 -177 )">
    <path d="M 0 15.75  L 0 5.25  C 0 2.30999999999999  2.20000000000005 0  5 0  L 27.7575757575758 0  L 75 0  C 77.8 0  80 2.30999999999999  80 5.25  L 80 15.75  C 80 18.69  77.8 21  75 21  L 27.7575757575758 21  L 5 21  C 2.20000000000005 21  0 18.69  0 15.75  Z " fill-rule="nonzero" fill="#f0f7ff" stroke="none" transform="matrix(1 0 0 1 928 177 )" />
    <path d="M 0 15.75  L 0 5.25  C 0 2.30999999999999  2.20000000000005 0  5 0  L 27.7575757575758 0  L 75 0  C 77.8 0  80 2.30999999999999  80 5.25  L 80 15.75  C 80 18.69  77.8 21  75 21  L 27.7575757575758 21  L 5 21  C 2.20000000000005 21  0 18.69  0 15.75  Z " stroke-width="2" stroke="#7abbff" fill="none" stroke-opacity="0.996078431372549" transform="matrix(1 0 0 1 928 177 )" mask="url(#clip229)" />
  </g>
</svg>