<?xml version="1.0" encoding="utf-8"?>
<svg version="1.1" xmlns:xlink="http://www.w3.org/1999/xlink" width="18px" height="18px" xmlns="http://www.w3.org/2000/svg">
  <g transform="matrix(1 0 0 1 -107 -57 )">
    <path d="M 14.87109375 11.4763140817651  C 15.20703125 10.6859182349124  15.375 9.85853341985723  15.375 8.99415963659961  C 15.375 7.74042829331603  15.03515625 6.59182349123945  14.35546875 5.54834523036989  L 5.51953125 14.3439325113563  C 6.58984375 15.0369889682025  7.75 15.3835171966256  9 15.3835171966256  C 9.8671875 15.3835171966256  10.693359375 15.2141466580143  11.478515625 14.8754055807917  C 12.263671875 14.5366645035691  12.94140625 14.0830629461389  13.51171875 13.514600908501  C 14.08203125 12.9461388708631  14.53515625 12.2667099286178  14.87109375 11.4763140817651  Z M 2.625 8.99415963659961  C 2.625 10.2556781310837  2.97265625 11.4198572355613  3.66796875 12.4866969500324  L 12.515625 3.6794289422453  C 11.4609375 2.97079818299805  10.2890625 2.61648280337443  9 2.61648280337443  C 7.84375 2.61648280337443  6.77734375 2.90071382219338  5.80078125 3.46917585983128  C 4.82421875 4.03763789746917  4.05078125 4.81245944192083  3.48046875 5.79364049318624  C 2.91015625 6.77482154445166  2.625 7.84166125892278  2.625 8.99415963659961  Z M 17.28515625 5.49578195976639  C 17.76171875 6.60545100584036  18 7.7715768981181  18 8.99415963659961  C 18 10.2167423750811  17.76171875 11.384815055159  17.28515625 12.4983776768332  C 16.80859375 13.6119402985075  16.169921875 14.5697598961713  15.369140625 15.3718364698248  C 14.568359375 16.1739130434783  13.611328125 16.8124594419208  12.498046875 17.2874756651525  C 11.384765625 17.7624918883842  10.21875 18  9 18  C 7.78125 18  6.615234375 17.7624918883842  5.501953125 17.2874756651525  C 4.388671875 16.8124594419208  3.431640625 16.1739130434783  2.630859375 15.3718364698248  C 1.830078125 14.5697598961713  1.19140625 13.6119402985075  0.71484375 12.4983776768332  C 0.23828125 11.384815055159  0 10.2167423750811  0 8.99415963659961  C 0 7.7715768981181  0.23828125 6.60545100584036  0.71484375 5.49578195976639  C 1.19140625 4.38611291369241  1.830078125 3.43024010382868  2.630859375 2.62816353017521  C 3.431640625 1.82608695652174  4.388671875 1.18754055807917  5.501953125 0.712524334847503  C 6.615234375 0.237508111615832  7.78125 0  9 0  C 10.21875 0  11.384765625 0.237508111615832  12.498046875 0.712524334847503  C 13.611328125 1.18754055807917  14.568359375 1.82608695652174  15.369140625 2.62816353017521  C 16.169921875 3.43024010382868  16.80859375 4.38611291369241  17.28515625 5.49578195976639  Z " fill-rule="nonzero" fill="#d9001b" stroke="none" transform="matrix(1 0 0 1 107 57 )" />
  </g>
</svg>