<?xml version="1.0" encoding="utf-8"?>
<svg version="1.1" xmlns:xlink="http://www.w3.org/1999/xlink" width="100px" height="34px" xmlns="http://www.w3.org/2000/svg">
  <g transform="matrix(1 0 0 1 -620 -115 )">
    <path d="M 621 120  A 4 4 0 0 1 625 116 L 715 116  A 4 4 0 0 1 719 120 L 719 144  A 4 4 0 0 1 715 148 L 625 148  A 4 4 0 0 1 621 144 L 621 120  Z " fill-rule="nonzero" fill="#f0f7ff" stroke="none" />
    <path d="M 620.5 120  A 4.5 4.5 0 0 1 625 115.5 L 715 115.5  A 4.5 4.5 0 0 1 719.5 120 L 719.5 144  A 4.5 4.5 0 0 1 715 148.5 L 625 148.5  A 4.5 4.5 0 0 1 620.5 144 L 620.5 120  Z " stroke-width="1" stroke="#7abbff" fill="none" stroke-opacity="0.996078431372549" />
  </g>
</svg>