<?xml version="1.0" encoding="utf-8"?>
<svg version="1.1" xmlns:xlink="http://www.w3.org/1999/xlink" width="80px" height="29px" xmlns="http://www.w3.org/2000/svg">
  <defs>
    <mask fill="white" id="clip98">
      <path d="M 0 21.75  L 0 7.25  C 0 3.18999999999998  2.20000000000005 0  5 0  L 27.7575757575758 0  L 75 0  C 77.8 0  80 3.18999999999998  80 7.25  L 80 21.75  C 80 25.81  77.8 29  75 29  L 27.7575757575758 29  L 5 29  C 2.20000000000005 29  0 25.81  0 21.75  Z " fill-rule="evenodd" />
    </mask>
  </defs>
  <g transform="matrix(1 0 0 1 -927 -173 )">
    <path d="M 0 21.75  L 0 7.25  C 0 3.18999999999998  2.20000000000005 0  5 0  L 27.7575757575758 0  L 75 0  C 77.8 0  80 3.18999999999998  80 7.25  L 80 21.75  C 80 25.81  77.8 29  75 29  L 27.7575757575758 29  L 5 29  C 2.20000000000005 29  0 25.81  0 21.75  Z " fill-rule="nonzero" fill="#f0f7ff" stroke="none" transform="matrix(1 0 0 1 927 173 )" />
    <path d="M 0 21.75  L 0 7.25  C 0 3.18999999999998  2.20000000000005 0  5 0  L 27.7575757575758 0  L 75 0  C 77.8 0  80 3.18999999999998  80 7.25  L 80 21.75  C 80 25.81  77.8 29  75 29  L 27.7575757575758 29  L 5 29  C 2.20000000000005 29  0 25.81  0 21.75  Z " stroke-width="2" stroke="#7abbff" fill="none" stroke-opacity="0.996078431372549" transform="matrix(1 0 0 1 927 173 )" mask="url(#clip98)" />
  </g>
</svg>