<?xml version="1.0" encoding="utf-8"?>
<svg version="1.1" xmlns:xlink="http://www.w3.org/1999/xlink" width="40px" height="48px" xmlns="http://www.w3.org/2000/svg">
  <defs>
    <filter x="943px" y="131px" width="40px" height="48px" filterUnits="userSpaceOnUse" id="filter99">
      <feOffset dx="1" dy="1" in="SourceAlpha" result="shadowOffsetInner" />
      <feGaussianBlur stdDeviation="2.5" in="shadowOffsetInner" result="shadowGaussian" />
      <feComposite in2="shadowGaussian" operator="atop" in="SourceAlpha" result="shadowComposite" />
      <feColorMatrix type="matrix" values="0 0 0 0 0  0 0 0 0 0  0 0 0 0 0  0 0 0 0.698039215686274 0  " in="shadowComposite" />
    </filter>
    <g id="widget100">
      <path d="M 962 172.069464668747  C 956.2 162.927362873075  947.5 157.442101795672  947.5 148.3  C 947.5 143.545714285714  950.4 135.5  962 135.5  C 973.6 135.5  976.5 143.545714285714  976.5 148.3  C 976.5 157.442101795672  967.8 162.927362873075  962 172.069464668747  Z " fill-rule="nonzero" fill="#009dd9" stroke="none" />
      <path d="M 962 173  C 956 163.5  947 157.8  947 148.3  C 947 143.36  950 135  962 135  C 974 135  977 143.36  977 148.3  C 977 157.8  968 163.5  962 173  Z M 962 171.138929337494  C 967.6 162.35472574615  976 157.084203591344  976 148.3  C 976 143.731428571429  973.2 136  962 136  C 950.8 136  948 143.731428571429  948 148.3  C 948 157.084203591344  956.4 162.35472574615  962 171.138929337494  Z " fill-rule="nonzero" fill="#ffffff" stroke="none" />
    </g>
  </defs>
  <g transform="matrix(1 0 0 1 -943 -131 )">
    <use xlink:href="#widget100" filter="url(#filter99)" />
    <use xlink:href="#widget100" />
  </g>
</svg>