<?xml version="1.0" encoding="utf-8"?>
<svg version="1.1" xmlns:xlink="http://www.w3.org/1999/xlink" width="754px" height="35px" xmlns="http://www.w3.org/2000/svg">
  <g transform="matrix(1 0 0 1 -161 -89 )">
    <path d="M 175.215639810427 118.666149068323  C 175.215639810427 118.666149068323  175.215639810427 115.857924770084  175.215639810427 115.857924770084  C 175.215639810427 115.857924770084  162.581654138878 106.91178796323  162.581654138878 106.91178796323  C 162.581654138878 106.91178796323  175.215639810427 98.8913624356062  175.215639810427 98.8913624356062  C 175.215639810427 98.8913624356062  175.215639810427 94  175.215639810427 94  C 175.215639810427 91.5147186257614  177.230358436188 89.5  179.715639810427 89.5  C 179.715639810427 89.5  909.999999999999 89.5  909.999999999999 89.5  C 912.485281374237 89.5  914.499999999999 91.5147186257614  914.499999999999 94  C 914.499999999999 94  914.499999999999 118.666149068323  914.499999999999 118.666149068323  C 914.499999999999 121.151430442562  912.485281374237 123.166149068323  909.999999999999 123.166149068323  C 909.999999999999 123.166149068323  179.715639810427 123.166149068323  179.715639810427 123.166149068323  C 177.230358436188 123.166149068323  175.215639810427 121.151430442562  175.215639810427 118.666149068323  Z " fill-rule="nonzero" fill="#ffffff" stroke="none" />
    <path d="M 174.715639810427 118.666149068323  C 174.715639810427 118.666149068323  174.715639810427 116.116533864542  174.715639810427 116.116533864542  C 174.715639810427 116.116533864542  161.684434968017 106.889125799574  161.684434968017 106.889125799574  C 161.684434968017 106.889125799574  174.715639810427 98.6165338645418  174.715639810427 98.6165338645418  C 174.715639810427 98.6165338645418  174.715639810427 94  174.715639810427 94  C 174.715639810427 91.238576250846  176.954216061273 89  179.715639810427 89  C 179.715639810427 89  909.999999999999 89  909.999999999999 89  C 912.761423749153 89  914.999999999999 91.238576250846  914.999999999999 94  C 914.999999999999 94  914.999999999999 118.666149068323  914.999999999999 118.666149068323  C 914.999999999999 121.427572817477  912.761423749153 123.666149068323  909.999999999999 123.666149068323  C 909.999999999999 123.666149068323  179.715639810427 123.666149068323  179.715639810427 123.666149068323  C 176.954216061273 123.666149068323  174.715639810427 121.427572817477  174.715639810427 118.666149068323  Z M 175.715639810427 118.666149068323  C 175.715639810427 120.875288067646  177.506500811103 122.666149068323  179.715639810427 122.666149068323  C 179.715639810427 122.666149068323  909.999999999999 122.666149068323  909.999999999999 122.666149068323  C 912.209138999322 122.666149068323  913.999999999999 120.875288067646  913.999999999999 118.666149068323  C 913.999999999999 118.666149068323  913.999999999999 94  913.999999999999 94  C 913.999999999999 91.7908610006768  912.209138999322 90  909.999999999999 90  C 909.999999999999 90  179.715639810427 90  179.715639810427 90  C 177.506500811103 90  175.715639810427 91.7908610006768  175.715639810427 94  C 175.715639810427 94  175.715639810427 99.1661910066705  175.715639810427 99.1661910066705  C 175.715639810427 99.1661910066705  163.478873309739 106.934450126886  163.478873309739 106.934450126886  C 163.478873309739 106.934450126886  175.715639810427 115.599315675627  175.715639810427 115.599315675627  C 175.715639810427 115.599315675627  175.715639810427 118.666149068323  175.715639810427 118.666149068323  Z " fill-rule="nonzero" fill="#d7d7d7" stroke="none" />
  </g>
</svg>