<?xml version="1.0" encoding="utf-8"?>
<svg version="1.1" xmlns:xlink="http://www.w3.org/1999/xlink" width="12px" height="12px" viewBox="40 172.5  12 12" xmlns="http://www.w3.org/2000/svg">
  <path d="M 46 172.5  C 49.36 172.5  52 175.14  52 178.5  C 52 181.86  49.36 184.5  46 184.5  C 42.64 184.5  40 181.86  40 178.5  C 40 175.14  42.64 172.5  46 172.5  Z " fill-rule="nonzero" fill="#ffffff" stroke="none" />
  <path d="M 46 173  C 49.08 173  51.5 175.42  51.5 178.5  C 51.5 181.58  49.08 184  46 184  C 42.92 184  40.5 181.58  40.5 178.5  C 40.5 175.42  42.92 173  46 173  Z " stroke-width="1" stroke="#02a7f0" fill="none" />
  <path d="M 46 181.5  C 44.32 181.5  43 180.18  43 178.5  C 43 176.82  44.32 175.5  46 175.5  C 47.68 175.5  49 176.82  49 178.5  C 49 180.18  47.68 181.5  46 181.5  " fill-rule="nonzero" fill="#02a7f0" stroke="none" />
</svg>