<?xml version="1.0" encoding="utf-8"?>
<svg version="1.1" xmlns:xlink="http://www.w3.org/1999/xlink" width="12px" height="12px" viewBox="495 54.5  12 12" xmlns="http://www.w3.org/2000/svg">
  <path d="M 501 54.5  C 504.36 54.5  507 57.14  507 60.5  C 507 63.86  504.36 66.5  501 66.5  C 497.64 66.5  495 63.86  495 60.5  C 495 57.14  497.64 54.5  501 54.5  Z " fill-rule="nonzero" fill="#ffffff" stroke="none" />
  <path d="M 501 55  C 504.08 55  506.5 57.42  506.5 60.5  C 506.5 63.58  504.08 66  501 66  C 497.92 66  495.5 63.58  495.5 60.5  C 495.5 57.42  497.92 55  501 55  Z " stroke-width="1" stroke="#02a7f0" fill="none" />
  <path d="M 501 63.5  C 499.32 63.5  498 62.18  498 60.5  C 498 58.82  499.32 57.5  501 57.5  C 502.68 57.5  504 58.82  504 60.5  C 504 62.18  502.68 63.5  501 63.5  " fill-rule="nonzero" fill="#02a7f0" stroke="none" />
</svg>